<svg version="1.1" id="Layer_1" xmlns="http://www.w3.org/2000/svg" xmlns:xlink="http://www.w3.org/1999/xlink" x="0px" y="0px"
	 width="100%" viewBox="0 0 1200 629" enable-background="new 0 0 1200 629" xml:space="preserve">
<path fill="#FCFCFC" opacity="1.000000" stroke="none" 
	d="
M914.000000,630.000000 
	C609.333374,630.000000 305.166718,630.000000 1.000041,630.000000 
	C1.000027,420.333374 1.000027,210.666733 1.000014,1.000069 
	C400.999969,1.000046 800.999939,1.000046 1201.000000,1.000023 
	C1201.000000,210.666611 1201.000000,420.333221 1201.000000,629.999878 
	C1105.500000,630.000000 1010.000000,630.000000 914.000000,630.000000 
M842.341187,121.224335 
	C842.341187,121.224335 842.377869,121.369835 843.072876,121.279007 
	C855.715210,114.458221 868.810181,108.775276 883.088928,106.473022 
	C889.594849,105.424026 896.210632,105.057014 902.906311,104.367302 
	C902.906311,87.773247 902.906311,71.374619 902.906311,54.469074 
	C901.199646,54.469074 899.746826,54.357067 898.315735,54.486137 
	C880.977722,56.049778 864.216492,60.257015 848.135437,66.724991 
	C838.025513,70.791367 828.414124,76.097191 817.894409,80.905289 
	C813.080383,83.843147 808.117737,86.564522 803.475769,89.752861 
	C764.266724,116.683510 739.644348,153.349182 729.920654,200.840302 
	C729.721375,202.192459 729.522156,203.544617 729.016602,205.506546 
	C728.878479,206.632904 728.740356,207.759247 728.203613,209.567688 
	C727.808167,213.374359 727.412781,217.181030 726.799561,221.574799 
	C726.738525,221.987473 726.677429,222.400146 726.120972,223.501984 
	C726.076294,238.084152 726.043945,252.666397 725.974670,267.248444 
	C725.963257,269.651184 726.209656,271.353485 729.418213,271.345703 
	C766.873169,271.254974 804.328491,271.241455 841.783447,271.321350 
	C845.291321,271.328827 845.731750,269.835480 844.989258,266.170471 
	C845.302185,255.234848 844.431030,244.108505 846.156006,233.400330 
	C850.838013,204.335144 867.103455,184.739197 896.099243,176.722168 
	C898.442932,176.074188 900.746094,175.279739 902.775513,174.644882 
	C902.775513,159.203064 902.775513,144.296906 902.775513,129.423447 
	C871.010315,127.430710 837.636963,147.129333 819.109924,176.340042 
	C823.236145,179.353378 827.398865,182.393372 831.929138,185.701767 
	C804.339111,201.765060 787.889465,226.263931 774.911743,254.854431 
	C768.906494,219.449295 772.782837,186.694839 787.114868,154.834686 
	C791.036621,157.494598 794.816650,160.058395 797.491211,161.872421 
	C809.346558,150.439743 820.666992,139.522873 832.615784,128.466003 
	C835.847412,126.101082 839.079041,123.736160 842.341187,121.224335 
M1127.920898,258.131470 
	C1126.960693,240.540848 1127.419922,222.732971 1124.767456,205.401337 
	C1117.512451,157.995682 1093.909668,120.158752 1054.152954,92.999947 
	C1020.273254,69.855957 982.416199,57.844837 941.681702,54.434704 
	C937.598755,54.092892 935.790649,55.132607 935.814026,59.865704 
	C935.986267,94.687500 935.884460,129.510849 935.805969,164.333557 
	C935.784058,174.050354 935.686523,174.052811 945.377808,176.184799 
	C946.677917,176.470825 947.995667,176.678925 949.291565,176.981705 
	C969.397461,181.679062 986.721558,190.577240 997.996704,208.839325 
	C1005.167297,220.453369 1007.683289,233.160522 1007.172241,246.572037 
	C1007.002930,251.013565 1008.502686,252.740387 1013.109680,252.924789 
	C1023.416870,253.337341 1033.696655,254.389221 1043.996582,255.039383 
	C1054.772583,255.719559 1054.832642,255.414337 1054.600830,244.227310 
	C1054.255615,227.569153 1051.475342,211.442490 1044.797241,196.111465 
	C1039.233154,183.337845 1031.863281,171.753860 1022.001343,161.798264 
	C1018.840454,158.607391 1016.332947,158.432159 1013.517456,162.160110 
	C1011.759705,164.487564 1009.540039,166.466187 1006.636536,169.546738 
	C995.032166,146.013000 977.570557,128.608734 957.413696,113.335648 
	C987.410828,110.518410 1015.819763,115.050514 1043.336182,128.088211 
	C1042.007690,130.276230 1041.365967,131.640274 1040.447754,132.782196 
	C1038.477539,135.232574 1034.681152,137.629349 1034.764648,139.934555 
	C1034.855469,142.443069 1038.436401,144.876465 1040.597534,147.249908 
	C1050.991699,158.665558 1059.251343,171.457443 1065.434692,185.594711 
	C1074.939697,207.326233 1079.180542,230.009766 1077.414062,253.701202 
	C1077.149170,257.253662 1077.879028,258.906067 1081.681885,259.204468 
	C1095.616089,260.297821 1109.535278,261.589050 1123.454956,262.862122 
	C1126.372070,263.128906 1127.922363,262.070740 1127.920898,258.131470 
M929.587708,343.157196 
	C923.987122,343.509125 918.386536,343.861053 912.582092,344.225800 
	C912.582092,358.821045 912.582092,373.221375 912.582092,388.013947 
	C942.481628,389.012604 971.130066,385.515533 997.411743,370.856354 
	C1003.957703,367.205200 1009.656311,362.034882 1016.165222,357.253693 
	C1011.710632,352.519653 1008.234436,348.825409 1004.320190,344.665588 
	C1029.049316,334.761200 1047.605591,317.946808 1064.151733,297.839081 
	C1067.575073,319.704865 1055.553223,368.912170 1041.964233,385.856537 
	C1038.853882,381.277405 1035.882446,376.902740 1032.918457,372.538940 
	C997.919250,405.475616 956.807434,413.456299 912.551880,411.757294 
	C912.551880,428.523163 912.551880,444.605865 912.551880,460.993103 
	C971.285339,465.894867 1023.144043,450.691284 1066.108398,409.917999 
	C1099.012573,378.691833 1117.796021,340.089355 1123.266113,294.538391 
	C1082.977539,290.116516 1043.501831,285.783813 1003.735840,281.419281 
	C1003.385681,283.129486 1003.159302,284.399872 1002.863708,285.653992 
	C997.880920,306.798615 987.420288,324.362976 966.908386,333.139099 
	C955.444580,338.043884 942.673218,339.892303 929.587708,343.157196 
M74.482689,335.991821 
	C47.586929,365.133820 61.065434,411.769592 99.337288,422.227661 
	C102.148613,422.995880 104.936646,424.351685 107.346718,426.002045 
	C120.139343,434.761902 133.751831,441.484802 149.303772,443.577637 
	C151.037384,443.810944 153.525818,444.180634 154.507355,443.257294 
	C158.643402,439.366394 162.340714,435.009064 166.086166,430.944397 
	C151.565323,432.048035 147.095688,431.144958 128.951767,423.316437 
	C130.758652,422.797119 132.312042,422.372620 133.852280,421.904785 
	C171.483444,410.475494 183.710831,363.544159 156.427048,335.267609 
	C135.838043,313.929413 97.973969,314.018188 74.482689,335.991821 
M695.553650,423.055145 
	C709.887817,426.424133 723.172302,424.726929 733.820007,413.741150 
	C745.900940,401.276550 746.360046,379.510651 735.321411,366.624664 
	C723.739136,353.104004 701.313660,350.105682 686.182678,360.327850 
	C674.667664,368.107147 669.730469,379.334045 671.189941,392.990753 
	C672.761292,407.695892 680.640991,417.864044 695.553650,423.055145 
M573.241150,414.567139 
	C572.462585,412.821594 571.043457,411.088165 571.010193,409.328552 
	C570.805481,398.511078 571.009583,387.686646 570.891907,376.866516 
	C570.769592,365.619659 565.655945,358.574432 555.506104,355.630829 
	C548.102539,353.483734 540.683716,353.759552 533.503357,356.608795 
	C523.684753,360.504944 521.066101,366.816956 524.824646,376.995361 
	C526.314087,375.655396 527.713684,374.208038 529.298157,373.004089 
	C535.523804,368.273712 542.365601,365.684784 550.256104,367.803345 
	C555.078247,369.098083 556.711060,372.467590 557.336731,378.523804 
	C557.870056,383.685760 554.031189,383.440125 551.203369,384.550049 
	C547.802856,385.884766 544.231934,386.810425 540.897705,388.282288 
	C536.959412,390.020782 532.924377,391.763519 529.414612,394.200531 
	C522.932678,398.701263 520.813354,406.918762 523.676880,414.180206 
	C526.588928,421.564728 533.471863,425.783722 541.666077,424.228516 
	C546.900146,423.235107 551.890015,420.954895 557.238464,419.168457 
	C561.483459,424.915924 567.661438,426.335724 574.944397,422.697327 
	C580.698242,419.822815 581.361023,418.246185 579.491394,411.958679 
	C577.704895,412.786407 575.913208,413.616547 573.241150,414.567139 
M800.937927,390.513489 
	C800.937927,401.282562 800.937927,412.051636 800.937927,422.910736 
	C805.699524,422.910736 809.928589,422.910736 814.642151,422.910736 
	C814.642151,409.817230 814.689270,397.028137 814.610107,384.239838 
	C814.589539,380.918182 814.398987,377.565033 813.902222,374.284515 
	C811.663086,359.498169 798.673035,350.907867 784.651917,355.460083 
	C779.842041,357.021667 775.630127,360.425018 771.217346,362.945648 
	C771.100281,360.733795 770.972168,358.312927 770.839478,355.805420 
	C766.766113,355.805420 763.117920,355.793762 759.469971,355.819397 
	C758.988403,355.822754 758.508240,356.016418 757.821655,356.167053 
	C757.821655,378.399200 757.821655,400.622650 757.821655,422.886322 
	C762.347229,422.886322 766.577332,422.886322 771.090393,422.886322 
	C771.090393,408.947906 771.090210,395.318481 771.090393,381.689087 
	C771.090515,373.840881 775.392395,368.190918 783.112244,365.898682 
	C791.262573,363.478638 798.077820,366.916229 799.952637,375.170288 
	C801.001953,379.789886 800.655457,384.726532 800.937927,390.513489 
M301.998566,382.521362 
	C301.992188,380.189514 302.018951,377.857025 301.973724,375.525940 
	C301.773926,365.227570 295.984863,357.182434 285.967865,355.477570 
	C279.914825,354.447388 273.270081,354.577087 267.289185,355.936493 
	C255.896149,358.526093 252.583374,365.399078 255.865814,377.236969 
	C256.774841,376.367310 257.562988,375.580780 258.385345,374.831787 
	C264.304352,369.440186 271.098511,366.312958 279.266022,367.234009 
	C285.054657,367.886871 287.441467,371.080688 288.585602,377.209442 
	C289.696228,383.158722 285.415924,383.506104 281.819000,384.829498 
	C280.726990,385.231293 279.578918,385.503052 278.526794,385.987152 
	C272.363159,388.822937 265.819336,391.083984 260.176575,394.733734 
	C253.764709,398.880951 252.091736,407.341553 254.995346,414.397797 
	C257.922668,421.511658 264.755035,425.739197 272.631165,424.255096 
	C278.063385,423.231506 283.248840,420.898438 288.701813,419.098694 
	C291.964417,424.559845 297.918640,426.272461 304.925720,423.254486 
	C311.991486,420.211243 312.814270,418.688751 310.955261,411.813660 
	C310.351318,412.129608 309.785400,412.424805 309.220245,412.721466 
	C303.138428,415.913910 302.028656,415.278961 302.007080,408.499237 
	C301.980560,400.171173 301.999146,391.842926 301.998566,382.521362 
M348.971283,518.251526 
	C354.406006,521.638855 356.806671,526.908508 357.012207,532.941040 
	C357.454193,545.912354 357.451080,558.898865 357.622803,571.879272 
	C357.645844,573.621277 357.625977,575.363831 357.625977,577.025696 
	C360.467651,577.025696 362.586975,577.025696 365.002838,577.025696 
	C365.002838,571.132202 365.095276,565.490906 364.982971,559.853577 
	C364.770996,549.213562 365.081909,538.508240 363.967865,527.957520 
	C362.987885,518.676575 357.344025,511.972504 348.073364,509.413605 
	C338.847778,506.867157 330.595764,508.989746 324.038147,516.267151 
	C321.974426,518.557434 320.146820,521.060425 317.864471,523.896912 
	C313.984802,514.469727 307.406952,509.178314 297.413818,508.491913 
	C287.545105,507.814056 280.573303,512.772095 274.136902,519.846130 
	C274.136902,516.605347 274.136902,513.364563 274.136902,510.180969 
	C271.568787,510.180969 269.475739,510.180969 267.206665,510.180969 
	C267.206665,532.536926 267.206665,554.630981 267.206665,576.979004 
	C269.524048,576.979004 271.751038,576.979004 274.247955,576.979004 
	C274.247955,563.227600 274.263123,549.765625 274.242462,536.303650 
	C274.229462,527.839172 280.696503,518.873535 288.688049,516.358826 
	C298.679474,513.214783 308.797424,518.715393 310.999756,528.975098 
	C312.000946,533.639282 312.112274,538.545532 312.181946,543.348450 
	C312.343262,554.472046 312.233246,565.599548 312.233246,576.895630 
	C314.937500,576.895630 317.300354,576.895630 319.778687,576.895630 
	C319.778687,562.850220 319.760193,549.197876 319.783813,535.545715 
	C319.807953,521.581055 335.855408,511.657257 348.971283,518.251526 
M99.908257,236.358490 
	C114.229393,236.358170 128.552505,236.487625 142.870285,236.268311 
	C146.551193,236.211914 148.523285,237.260818 149.989990,240.727493 
	C153.615936,249.297592 158.090088,257.526459 161.398758,266.206787 
	C163.535233,271.811890 166.733368,272.962982 172.197556,271.346191 
	C171.445129,269.566040 170.790543,267.895905 170.043594,266.268219 
	C155.756927,235.135864 141.493439,203.992661 127.074654,172.921570 
	C126.258751,171.163361 124.309196,169.208649 122.583084,168.862579 
	C121.523766,168.650208 119.352943,171.083267 118.585556,172.745804 
	C105.974480,200.067596 93.498039,227.451599 81.016068,254.832901 
	C78.508537,260.333557 76.103050,265.880768 73.691765,271.313599 
	C79.838661,273.354431 82.691734,271.014984 84.759529,265.802338 
	C88.127121,257.313019 92.177269,249.091537 96.044022,240.805862 
	C96.782295,239.223846 98.004387,237.867645 99.908257,236.358490 
M217.902863,411.812439 
	C205.058609,416.170929 197.212555,410.654053 197.184372,397.228943 
	C197.167953,389.403442 197.178986,381.577911 197.178284,373.752380 
	C197.177750,367.823853 197.178177,361.895294 197.178177,356.012329 
	C192.435699,356.012329 188.350159,356.012329 184.086975,356.012329 
	C184.086975,371.847290 183.139038,387.530334 184.324936,403.050354 
	C185.835327,422.816925 205.722717,430.888641 221.997131,419.161682 
	C223.515411,418.067657 225.004562,416.933167 227.138672,415.348602 
	C227.138672,418.428955 227.138672,420.542694 227.138672,422.905273 
	C231.649109,422.905273 235.862183,422.905273 240.078583,422.905273 
	C240.078583,400.415314 240.078583,378.229645 240.078583,356.069092 
	C235.609634,356.069092 231.526031,356.069092 227.025055,356.069092 
	C227.025055,369.826447 226.603867,383.294769 227.193405,396.718750 
	C227.513260,404.001495 224.568481,408.339478 217.902863,411.812439 
M484.000183,557.414734 
	C483.231567,559.371643 482.462982,561.328491 481.359222,564.138733 
	C480.167816,561.587524 479.284241,559.853638 478.533966,558.063843 
	C472.558289,543.808594 466.387054,529.628784 460.774017,515.231689 
	C458.906494,510.441589 456.517975,508.729584 451.733521,510.416229 
	C451.771088,510.788757 451.726471,511.150238 451.848511,511.442047 
	C460.826813,532.907104 469.795044,554.376648 478.873169,575.799500 
	C479.360229,576.948853 480.781067,577.702515 481.767181,578.640381 
	C482.786011,577.529846 484.248444,576.591309 484.755859,575.282471 
	C490.584625,560.248352 496.261749,545.155518 502.000702,530.086426 
	C502.591766,528.534485 503.321228,527.035339 504.391449,524.584106 
	C510.893616,541.779663 516.901367,557.804749 523.061890,573.770813 
	C523.759644,575.579102 525.317566,577.055481 526.476562,578.685791 
	C527.832336,577.081970 529.673584,575.687622 530.469604,573.842346 
	C539.292664,553.389038 547.957947,532.867554 556.640625,512.353882 
	C556.918091,511.698334 556.926941,510.929077 557.031982,510.367981 
	C552.001892,508.773071 549.654785,510.549011 547.819275,515.145508 
	C541.780151,530.269226 535.224121,545.186707 528.832397,560.168823 
	C528.362915,561.269287 527.620239,562.253235 526.689148,563.823181 
	C520.295776,546.810669 514.221863,530.485046 507.959595,514.231934 
	C507.317993,512.566650 505.548889,511.335815 504.302948,509.903381 
	C503.069611,511.389069 501.355988,512.684143 500.678711,514.390503 
	C495.099915,528.445923 489.713470,542.577698 484.000183,557.414734 
M861.194031,386.321930 
	C856.730652,383.430511 852.013733,380.849976 847.917908,377.508057 
	C846.050842,375.984650 844.010193,372.501282 844.586243,370.734222 
	C845.232178,368.752533 848.606567,367.342987 851.066711,366.386017 
	C852.603271,365.788300 854.755493,366.136139 856.438049,366.669525 
	C861.590210,368.302734 866.649048,370.230682 872.160278,372.192047 
	C872.160278,368.588928 872.245667,364.987152 872.094421,361.395355 
	C872.060730,360.596161 871.380249,359.449524 870.682495,359.109528 
	C860.928650,354.357178 850.791748,352.127625 840.419861,356.665924 
	C828.907776,361.703186 826.446838,375.325470 835.332581,384.325195 
	C838.214355,387.243958 841.761780,389.559174 845.197205,391.863556 
	C849.195190,394.545288 853.664917,396.583099 857.413940,399.551941 
	C859.338989,401.076294 861.539856,404.350830 861.092163,406.234497 
	C860.549316,408.518127 857.608398,410.693481 855.198486,411.921875 
	C853.350464,412.863953 850.504517,412.906219 848.472473,412.232513 
	C842.242310,410.166901 836.190369,407.563782 829.683472,405.018829 
	C829.683472,408.623383 829.545898,412.576019 829.777161,416.506989 
	C829.837402,417.530701 830.824402,418.933197 831.765076,419.404358 
	C840.453613,423.756256 849.639893,425.891144 859.295776,423.895325 
	C866.985474,422.305878 872.610718,417.818634 874.764648,409.988983 
	C876.913574,402.177551 874.150024,395.963287 867.790161,391.200775 
	C865.793396,389.705566 863.776123,388.237823 861.194031,386.321930 
M387.861633,349.386841 
	C387.861633,351.337372 387.861633,353.287872 387.861633,355.542664 
	C384.485138,355.708313 381.592987,355.850159 378.610840,355.996460 
	C378.610840,360.142273 378.610840,363.880463 378.610840,367.940430 
	C381.716095,367.940430 384.495819,367.940430 387.832825,367.940430 
	C387.832825,386.460846 387.832825,404.666626 387.832825,422.796692 
	C392.605560,422.796692 396.800507,422.796692 401.394897,422.796692 
	C401.394897,404.321350 401.394897,386.251038 401.394897,367.727997 
	C405.543976,367.727997 409.286102,367.727997 413.002380,367.727997 
	C413.002380,363.529175 413.002380,359.800201 413.002380,355.594818 
	C408.920227,355.594818 405.168335,355.594818 401.153503,355.594818 
	C401.343872,348.678375 400.276581,341.918304 404.989014,336.576752 
	C409.356873,331.625793 415.458710,332.724518 421.545319,333.325684 
	C421.545319,329.676849 421.748657,326.352325 421.429688,323.078705 
	C421.324921,322.003387 420.023193,320.403107 419.002258,320.159302 
	C410.148590,318.045197 402.203735,319.587738 395.703735,326.478607 
	C389.854767,332.679291 387.934296,340.218292 387.861633,349.386841 
M504.662537,370.666473 
	C506.026123,371.409149 507.389709,372.151855 509.266052,373.173828 
	C509.266052,369.174225 509.062225,365.854828 509.327728,362.573395 
	C509.558075,359.726440 508.408417,358.425964 505.846863,357.462555 
	C497.522552,354.331696 489.084656,353.348480 480.371338,355.410217 
	C453.873627,361.680084 451.574707,396.016296 462.013245,410.618561 
	C473.585999,426.807556 494.001343,426.675598 509.007874,421.293823 
	C509.802704,421.008789 510.673035,419.676666 510.721558,418.789001 
	C510.916748,415.219940 510.802307,411.633911 510.802307,407.881805 
	C505.722351,409.246307 501.324097,410.788574 496.794617,411.572296 
	C485.997894,413.440399 476.035126,408.532501 472.071930,399.785706 
	C467.774902,390.302124 470.134796,377.491852 477.754639,371.369690 
	C486.104950,364.660645 495.055420,365.935028 504.662537,370.666473 
M622.762634,411.780518 
	C620.778687,411.951416 618.785217,412.337128 616.812622,412.250458 
	C612.048584,412.041229 608.415161,409.452576 608.248901,404.795654 
	C607.812256,392.565033 608.101440,380.308502 608.101440,367.638428 
	C615.365417,367.638428 622.112793,367.638428 628.799988,367.638428 
	C628.799988,363.451263 628.799988,359.701111 628.799988,355.562073 
	C621.760071,355.562073 615.020020,355.562073 607.792480,355.562073 
	C607.792480,350.981720 607.792480,346.782135 607.792480,343.225800 
	C599.799194,351.482117 591.763184,359.782623 583.782349,368.026123 
	C586.805176,368.026123 590.380859,368.026123 594.269836,368.026123 
	C594.269836,379.932159 594.101196,391.386475 594.313721,402.833649 
	C594.564209,416.325043 601.318115,423.955261 614.633362,424.312164 
	C620.329224,424.464874 626.588379,422.632874 631.584412,419.876862 
	C633.411865,418.868774 632.326538,412.576630 632.554932,408.694153 
	C632.561218,408.587341 632.395020,408.470367 632.163025,408.166962 
	C629.341248,409.266174 626.450439,410.392334 622.762634,411.780518 
M391.730164,541.108521 
	C408.828613,541.108521 425.927063,541.108521 442.975555,541.108521 
	C444.064026,527.898438 437.305878,516.142456 426.060150,511.052155 
	C414.632721,505.879578 400.486664,508.553711 391.999756,517.490784 
	C379.997681,530.129456 379.280060,552.646301 390.430511,566.731323 
	C400.615631,579.596985 420.515991,582.455444 436.351959,573.743713 
	C441.261475,571.042908 443.630554,567.927246 441.885162,562.830994 
	C436.800201,565.332764 431.887512,568.540100 426.499939,570.259277 
	C406.586945,576.613647 388.737549,562.065369 391.730164,541.108521 
M568.346985,524.917358 
	C560.715027,540.948608 562.963379,558.730286 573.964905,569.348572 
	C587.770447,582.673157 611.712585,581.679626 624.108032,567.267761 
	C637.228577,552.012817 634.750488,526.926636 619.136230,515.075134 
	C605.572937,504.780334 579.676086,505.590698 568.346985,524.917358 
M134.856155,481.673737 
	C139.705383,480.717499 136.355423,477.359741 137.157791,475.107849 
	C119.542183,475.107849 102.306396,475.107849 85.062027,475.107849 
	C85.062027,509.276611 85.062027,543.156067 85.062027,576.950806 
	C87.787949,576.950806 90.207474,576.950806 93.021919,576.950806 
	C93.021919,560.188538 93.021919,543.772827 93.021919,526.917175 
	C106.489609,526.917175 119.564362,526.917175 132.767136,526.917175 
	C132.767136,524.554810 132.767136,522.642517 132.767136,520.274048 
	C119.451759,520.274048 106.380081,520.274048 93.148056,520.274048 
	C93.148056,507.116669 93.148056,494.419891 93.148056,481.675507 
	C106.997986,481.675507 120.484520,481.675507 134.856155,481.673737 
M450.710632,266.785645 
	C451.687958,267.096832 453.330505,267.170563 453.539490,267.756042 
	C455.593933,273.510620 457.515625,274.472443 462.950134,271.825287 
	C465.030121,270.812134 466.864990,269.307098 468.904053,268.196014 
	C472.035156,266.489868 472.721252,264.124329 471.360687,260.888031 
	C468.141205,262.722565 465.087891,264.462372 461.139130,266.712463 
	C460.934692,263.616760 460.704529,261.710358 460.699768,259.803345 
	C460.669098,247.489822 460.456116,235.170685 460.749298,222.864014 
	C461.106598,207.865280 451.632233,203.246887 441.542725,203.216156 
	C435.305084,203.197128 429.005280,205.571106 422.834808,207.244766 
	C417.920074,208.577789 416.848358,212.203293 418.211670,216.823700 
	C422.248718,214.798340 426.028168,212.347885 430.161560,210.927994 
	C445.118500,205.789993 453.413544,211.870377 453.207001,227.493744 
	C453.192169,228.616470 453.090118,229.738052 453.015350,231.101990 
	C450.317932,231.407410 447.855286,231.623642 445.411865,231.973938 
	C435.784760,233.354141 426.255585,235.197296 419.151611,242.600616 
	C413.707153,248.274490 412.298065,255.222931 415.298187,262.452057 
	C418.257294,269.582428 424.201324,272.882355 431.880554,273.112122 
	C438.652374,273.314697 444.560303,270.910492 450.710632,266.785645 
M206.176102,519.424438 
	C211.636032,516.276978 217.411499,514.491638 223.810623,515.122742 
	C230.140503,515.746948 234.680237,518.808105 235.484085,524.158875 
	C236.107407,528.308044 235.608612,532.625793 235.608612,536.805298 
	C225.388031,537.549988 215.673462,538.888245 206.967026,544.014343 
	C198.404251,549.055786 194.619202,558.602661 197.649887,567.051636 
	C200.722778,575.618347 209.505585,580.471680 219.539734,578.148560 
	C225.201828,576.837830 230.505508,573.978943 235.917175,571.838562 
	C237.897522,579.697937 240.213791,580.619873 247.866516,576.124573 
	C249.012436,575.451477 250.057755,574.583191 251.250443,574.017944 
	C254.692535,572.386658 255.355743,569.826111 254.266953,566.405579 
	C250.825714,568.256592 247.626099,569.977661 243.316269,572.295898 
	C243.316269,569.039917 243.320190,567.254578 243.315643,565.469299 
	C243.281693,552.147461 243.378708,538.823425 243.163193,525.504517 
	C243.025177,516.974731 239.290894,512.365417 231.149460,509.872437 
	C222.215775,507.136932 213.840759,508.761536 205.533905,512.687805 
	C200.912277,514.872253 199.558334,517.740356 201.255234,522.651001 
	C202.849243,521.625183 204.222000,520.741760 206.176102,519.424438 
M577.175110,212.061874 
	C583.739319,217.164597 581.614929,224.263855 582.008728,231.082443 
	C579.063782,231.411270 576.591492,231.652176 574.128967,231.968658 
	C565.806091,233.038300 557.736511,234.896378 550.768433,239.921478 
	C543.941040,244.845078 540.973694,253.503632 543.419922,261.151184 
	C545.806519,268.612335 552.958374,273.829498 561.654480,272.892212 
	C567.090210,272.306305 572.330322,269.740326 577.601196,267.899597 
	C579.012817,267.406647 580.215149,266.314484 581.690735,265.385864 
	C583.668823,273.845245 586.245422,274.969299 593.224060,270.970795 
	C594.666443,270.144379 595.944458,269.003113 597.434937,268.294373 
	C600.795593,266.696350 601.271057,264.134644 600.273193,260.721741 
	C597.005066,262.585083 593.819763,264.401184 589.661865,266.771790 
	C589.445984,263.756012 589.219177,262.023865 589.214233,260.291046 
	C589.175903,246.960556 589.264587,233.629135 589.142151,220.299591 
	C589.061890,211.564194 584.904785,206.346222 576.455200,204.042587 
	C567.460571,201.590378 558.994385,203.173889 550.904541,207.551605 
	C545.717407,210.358597 545.554382,210.646957 547.202759,217.248978 
	C556.100647,210.527130 565.589905,206.967133 577.175110,212.061874 
M321.714111,320.974609 
	C321.485565,322.233795 321.058990,323.492706 321.057434,324.752167 
	C321.018127,356.418304 321.019318,388.084473 321.038727,419.750641 
	C321.039398,420.843170 321.300568,421.935547 321.425720,422.913879 
	C325.870972,422.913879 329.965851,422.913879 334.255341,422.913879 
	C334.255341,388.836853 334.255341,355.055725 334.255341,320.818390 
	C330.257812,320.818390 326.463257,320.818390 321.714111,320.974609 
M617.469971,271.900208 
	C620.610657,272.380402 620.922241,270.562042 620.906799,268.038239 
	C620.825562,254.720596 620.852905,241.402222 620.873596,228.084152 
	C620.875916,226.599426 620.758911,225.004349 621.234070,223.648590 
	C624.040344,215.642105 634.734924,209.261749 643.716309,210.079285 
	C652.096252,210.842072 659.088013,216.980316 659.947510,226.342834 
	C660.993713,237.737228 660.687378,249.257172 660.923706,260.723694 
	C660.998047,264.330139 660.935364,267.939423 660.935364,271.713623 
	C663.657166,271.713623 665.765808,271.713623 667.907593,271.713623 
	C667.907593,256.401367 668.450012,241.249283 667.724609,226.158157 
	C667.206055,215.370407 661.584595,207.158920 650.597046,204.066803 
	C639.653503,200.987091 630.184998,203.456024 623.102783,212.840607 
	C622.648560,213.442459 622.696167,214.422974 622.510254,215.227325 
	C621.900146,214.805237 621.290039,214.383148 620.679932,213.961044 
	C620.679932,210.752838 620.679932,207.544617 620.679932,204.406067 
	C618.006531,204.406067 615.901184,204.406067 613.289124,204.406067 
	C613.289124,226.267151 613.252991,247.868988 613.428345,269.469116 
	C613.434998,270.288300 615.487732,271.090881 617.469971,271.900208 
M184.258148,214.546524 
	C184.442535,226.528625 184.110214,238.546219 184.930374,250.484650 
	C186.214828,269.181396 205.043350,279.045959 221.528107,269.913177 
	C225.156265,267.903107 228.212280,264.860413 232.025146,261.911652 
	C232.025146,265.311371 232.025146,268.509613 232.025146,271.632935 
	C234.723816,271.632935 236.818207,271.632935 239.088104,271.632935 
	C239.088104,249.083435 239.088104,226.808121 239.088104,204.496872 
	C236.635696,204.496872 234.418030,204.496872 231.943436,204.496872 
	C231.943436,219.137115 231.971130,233.442963 231.908234,247.748413 
	C231.900406,249.530106 231.730164,251.433151 231.094223,253.069778 
	C227.575211,262.126465 216.450684,268.154327 206.681915,266.464844 
	C196.798187,264.755493 192.024719,258.512390 191.890335,246.641327 
	C191.750824,234.317871 191.842453,221.991791 191.833420,209.666855 
	C191.832138,207.911194 191.833237,206.155518 191.833237,204.434021 
	C188.945175,204.434021 186.843536,204.434021 184.258133,204.434021 
	C184.258133,207.654068 184.258133,210.611023 184.258148,214.546524 
M291.001007,212.203827 
	C293.363464,213.484772 295.725891,214.765701 297.976135,215.985794 
	C300.207581,209.557388 297.074951,206.492920 291.959961,205.312042 
	C287.010468,204.169388 281.834869,202.978455 276.843018,203.267395 
	C267.299927,203.819748 259.927795,210.795425 258.778351,219.068268 
	C257.593506,227.595825 262.259033,234.768661 271.625977,238.696030 
	C274.381195,239.851227 277.262604,240.714752 279.983521,241.939896 
	C282.697723,243.162033 285.386383,244.506271 287.901154,246.090775 
	C291.748840,248.515152 293.653076,252.128067 292.880524,256.696411 
	C292.117157,261.210052 289.273743,264.730133 284.846191,265.093842 
	C279.374146,265.543335 273.721375,265.004944 268.274963,264.111389 
	C264.857910,263.550751 261.676697,261.552734 258.389648,260.199615 
	C258.000671,260.437592 257.611694,260.675568 257.222717,260.913544 
	C258.134979,263.296967 258.350494,266.715637 260.082367,267.881317 
	C266.913757,272.479340 274.780548,274.057037 282.942871,272.808655 
	C294.759064,271.001465 301.975433,261.754791 300.035095,251.202927 
	C298.626617,243.543274 293.338501,239.261108 286.591278,236.389374 
	C281.707397,234.310715 276.724243,232.446976 271.930634,230.180130 
	C267.933441,228.289917 265.116455,225.148575 265.506134,220.413681 
	C265.920715,215.376556 269.220215,212.419357 273.781097,210.810333 
	C279.413788,208.823257 284.898529,209.635590 291.001007,212.203827 
M323.004700,251.463852 
	C323.037598,253.962143 322.928040,256.471985 323.129578,258.956604 
	C323.793945,267.147400 329.186340,272.647430 337.259552,272.967896 
	C340.528992,273.097656 343.852692,272.414001 347.120605,271.902100 
	C352.202728,271.106049 354.228271,268.319550 352.282501,263.076965 
	C350.250641,263.736816 348.248596,264.557007 346.166870,265.015442 
	C344.072968,265.476471 341.894012,265.835327 339.762482,265.787384 
	C333.708008,265.651306 331.314606,263.468781 330.858307,257.367523 
	C330.461517,252.062210 330.411560,246.724579 330.374908,241.400101 
	C330.305267,231.287704 330.354736,221.174500 330.354736,210.398300 
	C336.922302,210.398300 342.947693,210.398300 349.263397,210.398300 
	C349.151917,207.969254 349.071960,206.227539 348.974365,204.101242 
	C342.620850,204.101242 336.681610,204.101242 330.226105,204.101242 
	C330.226105,196.496918 330.226105,189.290802 330.226105,180.832077 
	C328.367035,182.361206 327.423645,183.093384 326.528473,183.880478 
	C320.101074,189.531769 324.541504,197.461060 322.397339,204.443756 
	C316.586761,204.443756 310.845734,204.443756 305.204315,204.443756 
	C305.204315,206.659271 305.204315,208.414078 305.204315,210.610733 
	C311.217010,210.610733 316.961121,210.610733 323.004700,210.610733 
	C323.004700,224.194763 323.004700,237.334991 323.004700,251.463852 
M654.327271,355.813599 
	C650.540649,355.813599 646.754089,355.813599 642.750977,355.813599 
	C642.750977,378.434082 642.750977,400.634430 642.750977,422.842957 
	C647.232971,422.842957 651.448364,422.842957 655.911133,422.842957 
	C655.911133,400.744995 655.914734,379.000061 655.884705,357.255127 
	C655.884155,356.830566 655.489014,356.406494 654.327271,355.813599 
M356.608398,423.165131 
	C360.034637,423.165131 363.460907,423.165131 366.909058,423.165131 
	C366.909058,400.415497 366.909058,378.248352 366.909058,355.957336 
	C362.525787,355.957336 358.440918,355.957336 354.433838,355.957336 
	C354.207825,356.427765 353.953339,356.710510 353.952850,356.993683 
	C353.918396,378.097504 353.881104,399.201447 353.962067,420.304932 
	C353.965759,421.265808 355.050415,422.222565 356.608398,423.165131 
M429.876587,356.592896 
	C429.876587,378.639130 429.876587,400.685333 429.876587,422.868591 
	C434.436249,422.868591 438.628387,422.868591 442.798706,422.868591 
	C442.798706,400.366241 442.798706,378.182861 442.798706,355.913391 
	C438.521271,355.913391 434.557007,355.913391 429.876587,356.592896 
M365.159271,264.388245 
	C365.159271,266.810547 365.159271,269.232819 365.159271,271.668823 
	C367.999115,271.668823 370.104523,271.668823 372.521484,271.668823 
	C372.608978,269.811432 372.749054,268.183563 372.752045,266.555420 
	C372.772491,255.410110 372.736389,244.264587 372.795898,233.119553 
	C372.804535,231.498459 372.662811,229.413788 373.551941,228.338425 
	C377.959351,223.007919 382.316406,217.531448 387.423309,212.916565 
	C391.519989,209.214554 396.663879,209.753647 401.282959,212.877136 
	C403.427643,214.327393 405.489014,215.900818 407.871704,217.623428 
	C409.355560,215.217209 410.627472,213.154617 411.855347,211.163467 
	C401.145386,200.183762 391.541779,200.171112 381.305511,211.018799 
	C378.556824,213.931671 376.128906,217.147278 372.587189,221.378662 
	C372.587189,214.744781 372.587189,209.547409 372.587189,204.398315 
	C369.851593,204.398315 367.751587,204.398315 365.162476,204.398315 
	C365.162476,224.247955 365.162476,243.833176 365.159271,264.388245 
M676.399658,508.872437 
	C667.035034,511.252594 662.203247,519.073547 655.683472,526.936035 
	C655.683472,520.465515 655.683472,515.290466 655.683472,510.106750 
	C652.943054,510.106750 650.825623,510.106750 648.445374,510.106750 
	C648.445374,532.488098 648.445374,554.671326 648.445374,577.012329 
	C650.960144,577.012329 653.213501,577.012329 655.802795,577.012329 
	C655.802795,565.616394 656.304016,554.470154 655.623352,543.396606 
	C655.183411,536.240662 657.829773,530.984131 662.096191,525.864502 
	C672.033936,513.939331 677.784058,513.251648 690.078430,522.765442 
	C690.201294,522.860535 690.353210,522.918274 690.778687,523.149475 
	C692.168152,520.993286 693.569946,518.817993 694.916626,516.728271 
	C688.226318,509.998962 683.943176,508.110413 676.399658,508.872437 
M155.312180,556.500122 
	C155.312180,552.667603 155.753998,548.773560 155.230255,545.013977 
	C153.586777,533.216736 160.579788,525.968872 168.528900,519.383301 
	C174.181732,514.700073 178.908646,514.874023 184.975296,519.021484 
	C186.833649,520.291931 188.600830,521.695862 190.642700,523.211609 
	C192.088623,520.789062 193.334808,518.701172 194.507095,516.737122 
	C184.409149,506.193054 175.162399,505.833801 165.208954,515.430664 
	C162.707062,517.842834 160.652115,520.718018 158.386108,523.375610 
	C157.623718,524.269714 156.843811,525.148926 155.323822,526.893616 
	C155.323822,520.554810 155.323822,515.431458 155.323822,510.269897 
	C152.751236,510.269897 150.535858,510.269897 148.322693,510.269897 
	C148.322693,532.713318 148.322693,554.788330 148.322693,576.877747 
	C150.804260,576.877747 153.017822,576.877747 155.312134,576.877747 
	C155.312134,570.156067 155.312134,563.827942 155.312180,556.500122 
M707.890869,498.500061 
	C707.890869,490.736633 707.890869,482.973175 707.890869,475.083740 
	C705.158752,475.083740 702.904297,475.083740 700.557495,475.083740 
	C700.557495,509.197296 700.557495,543.031799 700.557495,577.038879 
	C703.088989,577.038879 705.344604,577.038879 707.890869,577.038879 
	C707.890869,551.009949 707.890869,525.255005 707.890869,498.500061 
M738.049988,566.424316 
	C740.719360,568.674133 743.645020,570.686157 746.001648,573.226135 
	C750.161560,577.709595 755.127441,577.855530 761.173645,576.852478 
	C746.925781,565.009888 733.112793,553.528809 719.045349,541.836182 
	C731.326721,531.087219 742.978149,520.889587 755.044556,510.328766 
	C748.737732,509.050446 744.443298,510.497681 740.242310,514.386169 
	C730.973633,522.965332 721.209290,531.010742 711.589966,539.206787 
	C710.625183,540.028870 709.268127,540.390503 707.679504,541.168396 
	C718.612122,550.255371 728.060730,558.108826 738.049988,566.424316 
M485.895142,268.273193 
	C485.759644,274.774414 490.218323,270.848907 492.736755,271.772949 
	C492.736755,237.272491 492.736755,203.252441 492.736755,169.550476 
	C490.249969,169.550476 488.175568,169.550476 485.883179,169.550476 
	C485.883179,202.384628 485.883179,234.851044 485.895142,268.273193 
M516.903809,227.500015 
	C516.903809,242.246765 516.903809,256.993530 516.903809,271.644470 
	C519.612366,271.644470 521.553345,271.644470 523.589539,271.644470 
	C523.589539,249.056168 523.589539,226.706192 523.589539,204.398102 
	C521.237183,204.398102 519.299377,204.398102 516.903809,204.398102 
	C516.903809,211.921768 516.903809,219.210907 516.903809,227.500015 
M646.591370,342.915375 
	C652.176941,343.605164 655.851807,341.846222 656.898865,337.692352 
	C657.890198,333.759888 656.800354,330.441925 653.108887,328.360138 
	C649.452576,326.298157 644.875671,327.440033 642.551392,330.880768 
	C639.843628,334.889130 641.043396,339.117889 646.591370,342.915375 
M353.421143,331.958862 
	C352.048615,338.154907 354.060974,342.294342 359.009583,343.119751 
	C363.283295,343.832611 366.512421,342.275909 368.129242,338.114471 
	C369.677307,334.130096 368.269684,330.927032 364.955231,328.615204 
	C361.281555,326.052856 357.523987,327.061127 353.421143,331.958862 
M430.523041,330.038513 
	C427.696594,333.916626 427.628174,337.735168 431.162933,341.144104 
	C434.179169,344.052979 437.772308,344.174713 441.123077,341.866638 
	C444.550079,339.506134 445.301971,335.995056 443.804291,332.193207 
	C441.839417,327.205505 436.640442,326.161957 430.523041,330.038513 
M516.880066,174.550110 
	C516.880066,176.939972 516.880066,179.329849 516.880066,181.448898 
	C519.753601,181.448898 521.789307,181.448898 523.679810,181.448898 
	C523.679810,177.145828 523.679810,173.267685 523.679810,169.280807 
	C521.399780,169.280807 519.465210,169.280807 517.153320,169.280807 
	C517.057556,170.758987 516.965210,172.184174 516.880066,174.550110 
z"/>
<path fill="#EF9F19" opacity="1.000000" stroke="none" 
	d="
M1127.901611,258.585602 
	C1127.922363,262.070740 1126.372070,263.128906 1123.454956,262.862122 
	C1109.535278,261.589050 1095.616089,260.297821 1081.681885,259.204468 
	C1077.879028,258.906067 1077.149170,257.253662 1077.414062,253.701202 
	C1079.180542,230.009766 1074.939697,207.326233 1065.434692,185.594711 
	C1059.251343,171.457443 1050.991699,158.665558 1040.597534,147.249908 
	C1038.436401,144.876465 1034.855469,142.443069 1034.764648,139.934555 
	C1034.681152,137.629349 1038.477539,135.232574 1040.447754,132.782196 
	C1041.365967,131.640274 1042.007690,130.276230 1043.336182,128.088211 
	C1015.819763,115.050514 987.410828,110.518410 957.413696,113.335648 
	C977.570557,128.608734 995.032166,146.013000 1006.636536,169.546738 
	C1009.540039,166.466187 1011.759705,164.487564 1013.517456,162.160110 
	C1016.332947,158.432159 1018.840454,158.607391 1022.001343,161.798264 
	C1031.863281,171.753860 1039.233154,183.337845 1044.797241,196.111465 
	C1051.475342,211.442490 1054.255615,227.569153 1054.600830,244.227310 
	C1054.832642,255.414337 1054.772583,255.719559 1043.996582,255.039383 
	C1033.696655,254.389221 1023.416870,253.337341 1013.109680,252.924789 
	C1008.502686,252.740387 1007.002930,251.013565 1007.172241,246.572037 
	C1007.683289,233.160522 1005.167297,220.453369 997.996704,208.839325 
	C986.721558,190.577240 969.397461,181.679062 949.291565,176.981705 
	C947.995667,176.678925 946.677917,176.470825 945.377808,176.184799 
	C935.686523,174.052811 935.784058,174.050354 935.805969,164.333557 
	C935.884460,129.510849 935.986267,94.687500 935.814026,59.865704 
	C935.790649,55.132607 937.598755,54.092892 941.681702,54.434704 
	C982.416199,57.844837 1020.273254,69.855957 1054.152954,92.999947 
	C1093.909668,120.158752 1117.512451,157.995682 1124.767456,205.401337 
	C1127.419922,222.732971 1126.960693,240.540848 1127.901611,258.585602 
z"/>
<path fill="#0796A9" opacity="1.000000" stroke="none" 
	d="
M930.039368,343.137573 
	C942.673218,339.892303 955.444580,338.043884 966.908386,333.139099 
	C987.420288,324.362976 997.880920,306.798615 1002.863708,285.653992 
	C1003.159302,284.399872 1003.385681,283.129486 1003.735840,281.419281 
	C1043.501831,285.783813 1082.977539,290.116516 1123.266113,294.538391 
	C1117.796021,340.089355 1099.012573,378.691833 1066.108398,409.917999 
	C1023.144043,450.691284 971.285339,465.894867 912.551880,460.993103 
	C912.551880,444.605865 912.551880,428.523163 912.551880,411.757294 
	C956.807434,413.456299 997.919250,405.475616 1032.918457,372.538940 
	C1035.882446,376.902740 1038.853882,381.277405 1041.964233,385.856537 
	C1055.553223,368.912170 1067.575073,319.704865 1064.151733,297.839081 
	C1047.605591,317.946808 1029.049316,334.761200 1004.320190,344.665588 
	C1008.234436,348.825409 1011.710632,352.519653 1016.165222,357.253693 
	C1009.656311,362.034882 1003.957703,367.205200 997.411743,370.856354 
	C971.130066,385.515533 942.481628,389.012604 912.582092,388.013947 
	C912.582092,373.221375 912.582092,358.821045 912.582092,344.225800 
	C918.386536,343.861053 923.987122,343.509125 930.039368,343.137573 
z"/>
<path fill="#985D98" opacity="1.000000" stroke="none" 
	d="
M728.602234,208.885620 
	C728.740356,207.759247 728.878479,206.632904 729.538391,205.101776 
	C730.094666,203.150742 730.129150,201.604446 730.163635,200.058167 
	C739.644348,153.349182 764.266724,116.683510 803.475769,89.752861 
	C808.117737,86.564522 813.080383,83.843147 818.684692,80.920746 
	C821.405029,80.670624 823.752014,81.018524 825.195557,80.037292 
	C833.024841,74.715645 841.185547,70.452103 850.846619,69.768570 
	C851.415344,69.728333 851.943970,69.121567 852.491333,68.778618 
	C854.511536,67.512978 856.377686,65.692055 858.579529,65.081245 
	C866.631592,62.847530 874.762451,60.865170 882.929993,59.093582 
	C887.562195,58.088840 892.310181,57.412464 897.035217,57.178146 
	C898.293884,57.115726 900.780579,59.204025 900.805115,60.345718 
	C901.069641,72.648232 901.118958,84.963585 900.771545,97.262535 
	C900.716980,99.194649 898.671631,102.402306 897.069580,102.737175 
	C888.368103,104.556007 879.507263,105.599525 870.722168,107.037788 
	C867.404968,107.580872 863.930298,107.978989 860.904663,109.304337 
	C855.720276,111.575256 850.753235,114.388924 845.868835,117.269707 
	C844.407471,118.131622 843.525391,119.975739 842.377869,121.369843 
	C842.377869,121.369835 842.341187,121.224335 841.948242,121.202156 
	C837.720276,122.823387 833.157288,123.528793 831.987427,128.606018 
	C820.666992,139.522873 809.346558,150.439743 797.491211,161.872421 
	C794.816650,160.058395 791.036621,157.494598 787.114868,154.834686 
	C772.782837,186.694839 768.906494,219.449295 774.911743,254.854431 
	C787.889465,226.263931 804.339111,201.765060 831.929138,185.701767 
	C827.398865,182.393372 823.236145,179.353378 819.109924,176.340042 
	C837.636963,147.129333 871.010315,127.430710 902.775513,129.423447 
	C902.775513,144.296906 902.775513,159.203064 902.775513,174.644882 
	C900.746094,175.279739 898.442932,176.074188 896.099243,176.722168 
	C867.103455,184.739197 850.838013,204.335144 846.156006,233.400330 
	C844.431030,244.108505 845.302185,255.234848 844.669800,266.827728 
	C840.110596,267.990417 835.872742,268.915497 831.630920,268.933716 
	C802.015137,269.061005 772.398376,269.040405 742.782288,268.954407 
	C738.664307,268.942444 734.535461,268.411102 730.441467,267.886932 
	C729.582947,267.776978 728.195129,266.663696 728.169312,265.971069 
	C727.855774,257.560852 727.830566,249.140366 727.566406,240.727707 
	C727.378662,234.752029 726.941895,228.784164 726.616333,222.812820 
	C726.677429,222.400146 726.738525,221.987473 727.272339,221.212463 
	C729.019897,217.831757 730.497009,214.871857 731.399902,211.746124 
	C731.582275,211.114700 729.591248,209.855438 728.602234,208.885620 
z"/>
<path fill="#070707" opacity="1.000000" stroke="none" 
	d="
M74.719002,335.725220 
	C97.973969,314.018188 135.838043,313.929413 156.427048,335.267609 
	C183.710831,363.544159 171.483444,410.475494 133.852280,421.904785 
	C132.312042,422.372620 130.758652,422.797119 128.951767,423.316437 
	C147.095688,431.144958 151.565323,432.048035 166.086166,430.944397 
	C162.340714,435.009064 158.643402,439.366394 154.507355,443.257294 
	C153.525818,444.180634 151.037384,443.810944 149.303772,443.577637 
	C133.751831,441.484802 120.139343,434.761902 107.346718,426.002045 
	C104.936646,424.351685 102.148613,422.995880 99.337288,422.227661 
	C61.065434,411.769592 47.586929,365.133820 74.719002,335.725220 
M154.022339,384.217529 
	C161.903122,355.811707 142.267471,331.442505 112.813919,333.074951 
	C95.500778,334.034515 81.929054,344.832642 77.447578,361.213593 
	C72.815056,378.146729 78.820183,395.695709 92.473495,404.387207 
	C110.846260,416.083038 143.209518,413.974640 154.022339,384.217529 
z"/>
<path fill="#090909" opacity="1.000000" stroke="none" 
	d="
M695.163025,422.967285 
	C680.640991,417.864044 672.761292,407.695892 671.189941,392.990753 
	C669.730469,379.334045 674.667664,368.107147 686.182678,360.327850 
	C701.313660,350.105682 723.739136,353.104004 735.321411,366.624664 
	C746.360046,379.510651 745.900940,401.276550 733.820007,413.741150 
	C723.172302,424.726929 709.887817,426.424133 695.163025,422.967285 
M701.180908,367.083923 
	C688.944153,370.894257 683.166260,380.432098 685.097534,393.632904 
	C686.791748,405.212952 695.366333,412.496918 707.131592,412.350433 
	C719.379211,412.197968 727.746582,404.796631 729.049866,392.962738 
	C730.941650,375.786285 719.725403,364.981476 701.180908,367.083923 
z"/>
<path fill="#090909" opacity="1.000000" stroke="none" 
	d="
M573.681396,414.506897 
	C575.913208,413.616547 577.704895,412.786407 579.491394,411.958679 
	C581.361023,418.246185 580.698242,419.822815 574.944397,422.697327 
	C567.661438,426.335724 561.483459,424.915924 557.238464,419.168457 
	C551.890015,420.954895 546.900146,423.235107 541.666077,424.228516 
	C533.471863,425.783722 526.588928,421.564728 523.676880,414.180206 
	C520.813354,406.918762 522.932678,398.701263 529.414612,394.200531 
	C532.924377,391.763519 536.959412,390.020782 540.897705,388.282288 
	C544.231934,386.810425 547.802856,385.884766 551.203369,384.550049 
	C554.031189,383.440125 557.870056,383.685760 557.336731,378.523804 
	C556.711060,372.467590 555.078247,369.098083 550.256104,367.803345 
	C542.365601,365.684784 535.523804,368.273712 529.298157,373.004089 
	C527.713684,374.208038 526.314087,375.655396 524.824646,376.995361 
	C521.066101,366.816956 523.684753,360.504944 533.503357,356.608795 
	C540.683716,353.759552 548.102539,353.483734 555.506104,355.630829 
	C565.655945,358.574432 570.769592,365.619659 570.891907,376.866516 
	C571.009583,387.686646 570.805481,398.511078 571.010193,409.328552 
	C571.043457,411.088165 572.462585,412.821594 573.681396,414.506897 
M542.102051,396.510529 
	C540.646484,397.848389 538.920776,398.991974 537.790527,400.563721 
	C535.287720,404.043823 535.422791,407.822723 537.944153,411.203888 
	C540.599976,414.765381 544.464172,415.920563 548.599854,414.535553 
	C552.219666,413.323334 556.832703,412.496674 557.199158,407.576263 
	C557.615723,401.983826 557.295349,396.336517 557.295349,389.598969 
	C551.963806,391.982117 547.345703,394.046356 542.102051,396.510529 
z"/>
<path fill="#060606" opacity="1.000000" stroke="none" 
	d="
M800.937927,390.016907 
	C800.655457,384.726532 801.001953,379.789886 799.952637,375.170288 
	C798.077820,366.916229 791.262573,363.478638 783.112244,365.898682 
	C775.392395,368.190918 771.090515,373.840881 771.090393,381.689087 
	C771.090210,395.318481 771.090393,408.947906 771.090393,422.886322 
	C766.577332,422.886322 762.347229,422.886322 757.821655,422.886322 
	C757.821655,400.622650 757.821655,378.399200 757.821655,356.167053 
	C758.508240,356.016418 758.988403,355.822754 759.469971,355.819397 
	C763.117920,355.793762 766.766113,355.805420 770.839478,355.805420 
	C770.972168,358.312927 771.100281,360.733795 771.217346,362.945648 
	C775.630127,360.425018 779.842041,357.021667 784.651917,355.460083 
	C798.673035,350.907867 811.663086,359.498169 813.902222,374.284515 
	C814.398987,377.565033 814.589539,380.918182 814.610107,384.239838 
	C814.689270,397.028137 814.642151,409.817230 814.642151,422.910736 
	C809.928589,422.910736 805.699524,422.910736 800.937927,422.910736 
	C800.937927,412.051636 800.937927,401.282562 800.937927,390.016907 
z"/>
<path fill="#090909" opacity="1.000000" stroke="none" 
	d="
M301.998413,383.018066 
	C301.999146,391.842926 301.980560,400.171173 302.007080,408.499237 
	C302.028656,415.278961 303.138428,415.913910 309.220245,412.721466 
	C309.785400,412.424805 310.351318,412.129608 310.955261,411.813660 
	C312.814270,418.688751 311.991486,420.211243 304.925720,423.254486 
	C297.918640,426.272461 291.964417,424.559845 288.701813,419.098694 
	C283.248840,420.898438 278.063385,423.231506 272.631165,424.255096 
	C264.755035,425.739197 257.922668,421.511658 254.995346,414.397797 
	C252.091736,407.341553 253.764709,398.880951 260.176575,394.733734 
	C265.819336,391.083984 272.363159,388.822937 278.526794,385.987152 
	C279.578918,385.503052 280.726990,385.231293 281.819000,384.829498 
	C285.415924,383.506104 289.696228,383.158722 288.585602,377.209442 
	C287.441467,371.080688 285.054657,367.886871 279.266022,367.234009 
	C271.098511,366.312958 264.304352,369.440186 258.385345,374.831787 
	C257.562988,375.580780 256.774841,376.367310 255.865814,377.236969 
	C252.583374,365.399078 255.896149,358.526093 267.289185,355.936493 
	C273.270081,354.577087 279.914825,354.447388 285.967865,355.477570 
	C295.984863,357.182434 301.773926,365.227570 301.973724,375.525940 
	C302.018951,377.857025 301.992188,380.189514 301.998413,383.018066 
M268.016937,409.297363 
	C268.771484,410.382690 269.346741,411.673950 270.313446,412.515594 
	C273.492310,415.283112 277.375244,416.056000 281.004883,414.127197 
	C283.859009,412.610474 287.774445,410.290833 288.285522,407.740173 
	C289.394806,402.203857 288.627563,396.291565 288.627563,389.416351 
	C282.934204,392.023834 277.962616,393.879944 273.429932,396.496368 
	C268.998291,399.054535 266.188110,402.924744 268.016937,409.297363 
z"/>
<path fill="#0D0D0D" opacity="1.000000" stroke="none" 
	d="
M348.621735,518.078369 
	C335.855408,511.657257 319.807953,521.581055 319.783813,535.545715 
	C319.760193,549.197876 319.778687,562.850220 319.778687,576.895630 
	C317.300354,576.895630 314.937500,576.895630 312.233246,576.895630 
	C312.233246,565.599548 312.343262,554.472046 312.181946,543.348450 
	C312.112274,538.545532 312.000946,533.639282 310.999756,528.975098 
	C308.797424,518.715393 298.679474,513.214783 288.688049,516.358826 
	C280.696503,518.873535 274.229462,527.839172 274.242462,536.303650 
	C274.263123,549.765625 274.247955,563.227600 274.247955,576.979004 
	C271.751038,576.979004 269.524048,576.979004 267.206665,576.979004 
	C267.206665,554.630981 267.206665,532.536926 267.206665,510.180969 
	C269.475739,510.180969 271.568787,510.180969 274.136902,510.180969 
	C274.136902,513.364563 274.136902,516.605347 274.136902,519.846130 
	C280.573303,512.772095 287.545105,507.814056 297.413818,508.491913 
	C307.406952,509.178314 313.984802,514.469727 317.864471,523.896912 
	C320.146820,521.060425 321.974426,518.557434 324.038147,516.267151 
	C330.595764,508.989746 338.847778,506.867157 348.073364,509.413605 
	C357.344025,511.972504 362.987885,518.676575 363.967865,527.957520 
	C365.081909,538.508240 364.770996,549.213562 364.982971,559.853577 
	C365.095276,565.490906 365.002838,571.132202 365.002838,577.025696 
	C362.586975,577.025696 360.467651,577.025696 357.625977,577.025696 
	C357.625977,575.363831 357.645844,573.621277 357.622803,571.879272 
	C357.451080,558.898865 357.454193,545.912354 357.012207,532.941040 
	C356.806671,526.908508 354.406006,521.638855 348.621735,518.078369 
z"/>
<path fill="#0D0D0D" opacity="1.000000" stroke="none" 
	d="
M99.455765,236.382874 
	C98.004387,237.867645 96.782295,239.223846 96.044022,240.805862 
	C92.177269,249.091537 88.127121,257.313019 84.759529,265.802338 
	C82.691734,271.014984 79.838661,273.354431 73.691765,271.313599 
	C76.103050,265.880768 78.508537,260.333557 81.016068,254.832901 
	C93.498039,227.451599 105.974480,200.067596 118.585556,172.745804 
	C119.352943,171.083267 121.523766,168.650208 122.583084,168.862579 
	C124.309196,169.208649 126.258751,171.163361 127.074654,172.921570 
	C141.493439,203.992661 155.756927,235.135864 170.043594,266.268219 
	C170.790543,267.895905 171.445129,269.566040 172.197556,271.346191 
	C166.733368,272.962982 163.535233,271.811890 161.398758,266.206787 
	C158.090088,257.526459 153.615936,249.297592 149.989990,240.727493 
	C148.523285,237.260818 146.551193,236.211914 142.870285,236.268311 
	C128.552505,236.487625 114.229393,236.358170 99.455765,236.382874 
M134.783051,207.739182 
	C130.939240,199.401917 127.095428,191.064667 122.838730,181.831848 
	C115.337471,198.200775 108.336731,213.477478 101.130135,229.203400 
	C116.029106,229.203400 129.930405,229.203400 144.513199,229.203400 
	C141.205231,221.963684 138.118454,215.208099 134.783051,207.739182 
z"/>
<path fill="#050505" opacity="1.000000" stroke="none" 
	d="
M218.240112,411.608795 
	C224.568481,408.339478 227.513260,404.001495 227.193405,396.718750 
	C226.603867,383.294769 227.025055,369.826447 227.025055,356.069092 
	C231.526031,356.069092 235.609634,356.069092 240.078583,356.069092 
	C240.078583,378.229645 240.078583,400.415314 240.078583,422.905273 
	C235.862183,422.905273 231.649109,422.905273 227.138672,422.905273 
	C227.138672,420.542694 227.138672,418.428955 227.138672,415.348602 
	C225.004562,416.933167 223.515411,418.067657 221.997131,419.161682 
	C205.722717,430.888641 185.835327,422.816925 184.324936,403.050354 
	C183.139038,387.530334 184.086975,371.847290 184.086975,356.012329 
	C188.350159,356.012329 192.435699,356.012329 197.178177,356.012329 
	C197.178177,361.895294 197.177750,367.823853 197.178284,373.752380 
	C197.178986,381.577911 197.167953,389.403442 197.184372,397.228943 
	C197.212555,410.654053 205.058609,416.170929 218.240112,411.608795 
z"/>
<path fill="#0E0E0E" opacity="1.000000" stroke="none" 
	d="
M484.134460,557.050537 
	C489.713470,542.577698 495.099915,528.445923 500.678711,514.390503 
	C501.355988,512.684143 503.069611,511.389069 504.302979,509.903381 
	C505.548889,511.335815 507.317993,512.566650 507.959595,514.231934 
	C514.221863,530.485046 520.295776,546.810669 526.689148,563.823181 
	C527.620239,562.253235 528.362915,561.269287 528.832397,560.168823 
	C535.224121,545.186707 541.780151,530.269226 547.819275,515.145508 
	C549.654785,510.549011 552.001892,508.773071 557.031982,510.367981 
	C556.926941,510.929077 556.918091,511.698334 556.640625,512.353882 
	C547.957947,532.867554 539.292664,553.389038 530.469604,573.842346 
	C529.673584,575.687622 527.832336,577.081970 526.476562,578.685791 
	C525.317566,577.055481 523.759644,575.579102 523.061890,573.770813 
	C516.901367,557.804749 510.893616,541.779663 504.391449,524.584106 
	C503.321228,527.035339 502.591766,528.534485 502.000702,530.086426 
	C496.261749,545.155518 490.584625,560.248352 484.755859,575.282471 
	C484.248444,576.591309 482.786011,577.529846 481.767181,578.640381 
	C480.781067,577.702515 479.360229,576.948853 478.873169,575.799500 
	C469.795044,554.376648 460.826813,532.907104 451.848511,511.442047 
	C451.726471,511.150238 451.771088,510.788757 451.733521,510.416229 
	C456.517975,508.729584 458.906494,510.441589 460.774017,515.231689 
	C466.387054,529.628784 472.558289,543.808594 478.533966,558.063843 
	C479.284241,559.853638 480.167816,561.587524 481.359222,564.138733 
	C482.462982,561.328491 483.231567,559.371643 484.134460,557.050537 
z"/>
<path fill="#090909" opacity="1.000000" stroke="none" 
	d="
M861.481079,386.539734 
	C863.776123,388.237823 865.793396,389.705566 867.790161,391.200775 
	C874.150024,395.963287 876.913574,402.177551 874.764648,409.988983 
	C872.610718,417.818634 866.985474,422.305878 859.295776,423.895325 
	C849.639893,425.891144 840.453613,423.756256 831.765076,419.404358 
	C830.824402,418.933197 829.837402,417.530701 829.777161,416.506989 
	C829.545898,412.576019 829.683472,408.623383 829.683472,405.018829 
	C836.190369,407.563782 842.242310,410.166901 848.472473,412.232513 
	C850.504517,412.906219 853.350464,412.863953 855.198486,411.921875 
	C857.608398,410.693481 860.549316,408.518127 861.092163,406.234497 
	C861.539856,404.350830 859.338989,401.076294 857.413940,399.551941 
	C853.664917,396.583099 849.195190,394.545288 845.197205,391.863556 
	C841.761780,389.559174 838.214355,387.243958 835.332581,384.325195 
	C826.446838,375.325470 828.907776,361.703186 840.419861,356.665924 
	C850.791748,352.127625 860.928650,354.357178 870.682495,359.109528 
	C871.380249,359.449524 872.060730,360.596161 872.094421,361.395355 
	C872.245667,364.987152 872.160278,368.588928 872.160278,372.192047 
	C866.649048,370.230682 861.590210,368.302734 856.438049,366.669525 
	C854.755493,366.136139 852.603271,365.788300 851.066711,366.386017 
	C848.606567,367.342987 845.232178,368.752533 844.586243,370.734222 
	C844.010193,372.501282 846.050842,375.984650 847.917908,377.508057 
	C852.013733,380.849976 856.730652,383.430511 861.481079,386.539734 
z"/>
<path fill="#060606" opacity="1.000000" stroke="none" 
	d="
M387.876740,348.920074 
	C387.934296,340.218292 389.854767,332.679291 395.703735,326.478607 
	C402.203735,319.587738 410.148590,318.045197 419.002258,320.159302 
	C420.023193,320.403107 421.324921,322.003387 421.429688,323.078705 
	C421.748657,326.352325 421.545319,329.676849 421.545319,333.325684 
	C415.458710,332.724518 409.356873,331.625793 404.989014,336.576752 
	C400.276581,341.918304 401.343872,348.678375 401.153503,355.594818 
	C405.168335,355.594818 408.920227,355.594818 413.002380,355.594818 
	C413.002380,359.800201 413.002380,363.529175 413.002380,367.727997 
	C409.286102,367.727997 405.543976,367.727997 401.394897,367.727997 
	C401.394897,386.251038 401.394897,404.321350 401.394897,422.796692 
	C396.800507,422.796692 392.605560,422.796692 387.832825,422.796692 
	C387.832825,404.666626 387.832825,386.460846 387.832825,367.940430 
	C384.495819,367.940430 381.716095,367.940430 378.610840,367.940430 
	C378.610840,363.880463 378.610840,360.142273 378.610840,355.996460 
	C381.592987,355.850159 384.485138,355.708313 387.861633,355.542664 
	C387.861633,353.287872 387.861633,351.337372 387.876740,348.920074 
z"/>
<path fill="#090909" opacity="1.000000" stroke="none" 
	d="
M504.331848,370.479675 
	C495.055420,365.935028 486.104950,364.660645 477.754639,371.369690 
	C470.134796,377.491852 467.774902,390.302124 472.071930,399.785706 
	C476.035126,408.532501 485.997894,413.440399 496.794617,411.572296 
	C501.324097,410.788574 505.722351,409.246307 510.802307,407.881805 
	C510.802307,411.633911 510.916748,415.219940 510.721558,418.789001 
	C510.673035,419.676666 509.802704,421.008789 509.007874,421.293823 
	C494.001343,426.675598 473.585999,426.807556 462.013245,410.618561 
	C451.574707,396.016296 453.873627,361.680084 480.371338,355.410217 
	C489.084656,353.348480 497.522552,354.331696 505.846863,357.462555 
	C508.408417,358.425964 509.558075,359.726440 509.327728,362.573395 
	C509.062225,365.854828 509.266052,369.174225 509.266052,373.173828 
	C507.389709,372.151855 506.026123,371.409149 504.331848,370.479675 
z"/>
<path fill="#090909" opacity="1.000000" stroke="none" 
	d="
M623.161133,411.649506 
	C626.450439,410.392334 629.341248,409.266174 632.163025,408.166962 
	C632.395020,408.470367 632.561218,408.587341 632.554932,408.694153 
	C632.326538,412.576630 633.411865,418.868774 631.584412,419.876862 
	C626.588379,422.632874 620.329224,424.464874 614.633362,424.312164 
	C601.318115,423.955261 594.564209,416.325043 594.313721,402.833649 
	C594.101196,391.386475 594.269836,379.932159 594.269836,368.026123 
	C590.380859,368.026123 586.805176,368.026123 583.782349,368.026123 
	C591.763184,359.782623 599.799194,351.482117 607.792480,343.225800 
	C607.792480,346.782135 607.792480,350.981720 607.792480,355.562073 
	C615.020020,355.562073 621.760071,355.562073 628.799988,355.562073 
	C628.799988,359.701111 628.799988,363.451263 628.799988,367.638428 
	C622.112793,367.638428 615.365417,367.638428 608.101440,367.638428 
	C608.101440,380.308502 607.812256,392.565033 608.248901,404.795654 
	C608.415161,409.452576 612.048584,412.041229 616.812622,412.250458 
	C618.785217,412.337128 620.778687,411.951416 623.161133,411.649506 
z"/>
<path fill="#0E0E0E" opacity="1.000000" stroke="none" 
	d="
M391.330383,541.370483 
	C388.737549,562.065369 406.586945,576.613647 426.499939,570.259277 
	C431.887512,568.540100 436.800201,565.332764 441.885162,562.830994 
	C443.630554,567.927246 441.261475,571.042908 436.351959,573.743713 
	C420.515991,582.455444 400.615631,579.596985 390.430511,566.731323 
	C379.280060,552.646301 379.997681,530.129456 391.999756,517.490784 
	C400.486664,508.553711 414.632721,505.879578 426.060150,511.052155 
	C437.305878,516.142456 444.064026,527.898438 442.975555,541.108521 
	C425.927063,541.108521 408.828613,541.108521 391.330383,541.370483 
M432.318939,527.500122 
	C427.101776,517.409973 418.659546,513.182129 408.723755,515.683594 
	C399.423065,518.025269 392.140137,526.499084 392.292084,534.730469 
	C406.291107,534.730469 420.285706,534.730469 434.768158,534.730469 
	C433.978119,532.240967 433.337982,530.223694 432.318939,527.500122 
z"/>
<path fill="#0D0D0D" opacity="1.000000" stroke="none" 
	d="
M568.548462,524.609009 
	C579.676086,505.590698 605.572937,504.780334 619.136230,515.075134 
	C634.750488,526.926636 637.228577,552.012817 624.108032,567.267761 
	C611.712585,581.679626 587.770447,582.673157 573.964905,569.348572 
	C562.963379,558.730286 560.715027,540.948608 568.548462,524.609009 
M601.039124,571.868225 
	C615.365723,568.877930 622.712402,561.035156 624.608704,546.706787 
	C626.956421,528.967834 612.233032,513.371826 595.147339,515.499329 
	C579.843506,517.404907 570.748413,529.608337 571.919678,546.665466 
	C572.991150,562.269409 584.045227,572.148804 601.039124,571.868225 
z"/>
<path fill="#0E0E0E" opacity="1.000000" stroke="none" 
	d="
M134.413605,481.674622 
	C120.484520,481.675507 106.997986,481.675507 93.148056,481.675507 
	C93.148056,494.419891 93.148056,507.116669 93.148056,520.274048 
	C106.380081,520.274048 119.451759,520.274048 132.767136,520.274048 
	C132.767136,522.642517 132.767136,524.554810 132.767136,526.917175 
	C119.564362,526.917175 106.489609,526.917175 93.021919,526.917175 
	C93.021919,543.772827 93.021919,560.188538 93.021919,576.950806 
	C90.207474,576.950806 87.787949,576.950806 85.062027,576.950806 
	C85.062027,543.156067 85.062027,509.276611 85.062027,475.107849 
	C102.306396,475.107849 119.542183,475.107849 137.157791,475.107849 
	C136.355423,477.359741 139.705383,480.717499 134.413605,481.674622 
z"/>
<path fill="#111111" opacity="1.000000" stroke="none" 
	d="
M450.380615,266.992554 
	C444.560303,270.910492 438.652374,273.314697 431.880554,273.112122 
	C424.201324,272.882355 418.257294,269.582428 415.298187,262.452057 
	C412.298065,255.222931 413.707153,248.274490 419.151611,242.600616 
	C426.255585,235.197296 435.784760,233.354141 445.411865,231.973938 
	C447.855286,231.623642 450.317932,231.407410 453.015350,231.101990 
	C453.090118,229.738052 453.192169,228.616470 453.207001,227.493744 
	C453.413544,211.870377 445.118500,205.789993 430.161560,210.927994 
	C426.028168,212.347885 422.248718,214.798340 418.211670,216.823700 
	C416.848358,212.203293 417.920074,208.577789 422.834808,207.244766 
	C429.005280,205.571106 435.305084,203.197128 441.542725,203.216156 
	C451.632233,203.246887 461.106598,207.865280 460.749298,222.864014 
	C460.456116,235.170685 460.669098,247.489822 460.699768,259.803345 
	C460.704529,261.710358 460.934692,263.616760 461.139130,266.712463 
	C465.087891,264.462372 468.141205,262.722565 471.360687,260.888031 
	C472.721252,264.124329 472.035156,266.489868 468.904053,268.196014 
	C466.864990,269.307098 465.030121,270.812134 462.950134,271.825287 
	C457.515625,274.472443 455.593933,273.510620 453.539490,267.756042 
	C453.330505,267.170563 451.687958,267.096832 450.380615,266.992554 
M453.244537,251.372177 
	C453.244537,246.768829 453.244537,242.165497 453.244537,237.225052 
	C443.237640,237.547699 434.084564,238.470642 426.639709,245.111847 
	C420.766998,250.350632 419.672729,257.887939 423.940643,262.786285 
	C427.676544,267.074036 435.186066,268.348389 442.038574,265.857513 
	C450.053558,262.944061 453.237000,259.099579 453.244537,251.372177 
z"/>
<path fill="#0C0C0C" opacity="1.000000" stroke="none" 
	d="
M205.885422,519.641357 
	C204.222000,520.741760 202.849243,521.625183 201.255234,522.651001 
	C199.558334,517.740356 200.912277,514.872253 205.533905,512.687805 
	C213.840759,508.761536 222.215775,507.136932 231.149460,509.872437 
	C239.290894,512.365417 243.025177,516.974731 243.163193,525.504517 
	C243.378708,538.823425 243.281693,552.147461 243.315643,565.469299 
	C243.320190,567.254578 243.316269,569.039917 243.316269,572.295898 
	C247.626099,569.977661 250.825714,568.256592 254.266953,566.405579 
	C255.355743,569.826111 254.692535,572.386658 251.250443,574.017944 
	C250.057755,574.583191 249.012436,575.451477 247.866516,576.124573 
	C240.213791,580.619873 237.897522,579.697937 235.917175,571.838562 
	C230.505508,573.978943 225.201828,576.837830 219.539734,578.148560 
	C209.505585,580.471680 200.722778,575.618347 197.649887,567.051636 
	C194.619202,558.602661 198.404251,549.055786 206.967026,544.014343 
	C215.673462,538.888245 225.388031,537.549988 235.608612,536.805298 
	C235.608612,532.625793 236.107407,528.308044 235.484085,524.158875 
	C234.680237,518.808105 230.140503,515.746948 223.810623,515.122742 
	C217.411499,514.491638 211.636032,516.276978 205.885422,519.641357 
M208.247284,551.821960 
	C204.995697,555.856873 202.645584,560.142456 204.932037,565.485718 
	C207.005630,570.331482 211.214264,572.251282 216.037979,572.666626 
	C223.726440,573.328552 229.720886,569.490967 235.146957,564.598572 
	C235.666946,564.129700 235.949554,563.147095 235.956818,562.399292 
	C236.019104,555.980591 235.992584,549.561096 235.992584,542.985596 
	C225.632843,542.818726 216.324203,544.202759 208.247284,551.821960 
z"/>
<path fill="#0E0E0E" opacity="1.000000" stroke="none" 
	d="
M576.852173,211.832306 
	C565.589905,206.967133 556.100647,210.527130 547.202759,217.248978 
	C545.554382,210.646957 545.717407,210.358597 550.904541,207.551605 
	C558.994385,203.173889 567.460571,201.590378 576.455200,204.042587 
	C584.904785,206.346222 589.061890,211.564194 589.142151,220.299591 
	C589.264587,233.629135 589.175903,246.960556 589.214233,260.291046 
	C589.219177,262.023865 589.445984,263.756012 589.661865,266.771790 
	C593.819763,264.401184 597.005066,262.585083 600.273193,260.721741 
	C601.271057,264.134644 600.795593,266.696350 597.434937,268.294373 
	C595.944458,269.003113 594.666443,270.144379 593.224060,270.970795 
	C586.245422,274.969299 583.668823,273.845245 581.690735,265.385864 
	C580.215149,266.314484 579.012817,267.406647 577.601196,267.899597 
	C572.330322,269.740326 567.090210,272.306305 561.654480,272.892212 
	C552.958374,273.829498 545.806519,268.612335 543.419922,261.151184 
	C540.973694,253.503632 543.941040,244.845078 550.768433,239.921478 
	C557.736511,234.896378 565.806091,233.038300 574.128967,231.968658 
	C576.591492,231.652176 579.063782,231.411270 582.008728,231.082443 
	C581.614929,224.263855 583.739319,217.164597 576.852173,211.832306 
M564.486389,239.751465 
	C558.982422,241.662430 554.366211,244.730942 551.588196,250.020981 
	C547.918335,257.009308 550.685303,263.764252 558.168274,266.305481 
	C565.258972,268.713501 576.459106,265.159546 581.127136,258.961761 
	C581.583313,258.356171 581.942444,257.503265 581.949829,256.761200 
	C582.013672,250.348312 581.986572,243.934509 581.986572,236.617950 
	C575.905518,237.646179 570.566284,238.548981 564.486389,239.751465 
z"/>
<path fill="#040404" opacity="1.000000" stroke="none" 
	d="
M322.191406,320.896484 
	C326.463257,320.818390 330.257812,320.818390 334.255341,320.818390 
	C334.255341,355.055725 334.255341,388.836853 334.255341,422.913879 
	C329.965851,422.913879 325.870972,422.913879 321.425720,422.913879 
	C321.300568,421.935547 321.039398,420.843170 321.038727,419.750641 
	C321.019318,388.084473 321.018127,356.418304 321.057434,324.752167 
	C321.058990,323.492706 321.485565,322.233795 322.191406,320.896484 
z"/>
<path fill="#101010" opacity="1.000000" stroke="none" 
	d="
M617.028503,271.900696 
	C615.487732,271.090881 613.434998,270.288300 613.428345,269.469116 
	C613.252991,247.868988 613.289124,226.267151 613.289124,204.406067 
	C615.901184,204.406067 618.006531,204.406067 620.679932,204.406067 
	C620.679932,207.544617 620.679932,210.752838 620.679932,213.961044 
	C621.290039,214.383148 621.900146,214.805237 622.510254,215.227325 
	C622.696167,214.422974 622.648560,213.442459 623.102783,212.840607 
	C630.184998,203.456024 639.653503,200.987091 650.597046,204.066803 
	C661.584595,207.158920 667.206055,215.370407 667.724609,226.158157 
	C668.450012,241.249283 667.907593,256.401367 667.907593,271.713623 
	C665.765808,271.713623 663.657166,271.713623 660.935364,271.713623 
	C660.935364,267.939423 660.998047,264.330139 660.923706,260.723694 
	C660.687378,249.257172 660.993713,237.737228 659.947510,226.342834 
	C659.088013,216.980316 652.096252,210.842072 643.716309,210.079285 
	C634.734924,209.261749 624.040344,215.642105 621.234070,223.648590 
	C620.758911,225.004349 620.875916,226.599426 620.873596,228.084152 
	C620.852905,241.402222 620.825562,254.720596 620.906799,268.038239 
	C620.922241,270.562042 620.610657,272.380402 617.028503,271.900696 
z"/>
<path fill="#0C0C0C" opacity="1.000000" stroke="none" 
	d="
M184.258148,214.057251 
	C184.258133,210.611023 184.258133,207.654068 184.258133,204.434021 
	C186.843536,204.434021 188.945175,204.434021 191.833237,204.434021 
	C191.833237,206.155518 191.832138,207.911194 191.833420,209.666855 
	C191.842453,221.991791 191.750824,234.317871 191.890335,246.641327 
	C192.024719,258.512390 196.798187,264.755493 206.681915,266.464844 
	C216.450684,268.154327 227.575211,262.126465 231.094223,253.069778 
	C231.730164,251.433151 231.900406,249.530106 231.908234,247.748413 
	C231.971130,233.442963 231.943436,219.137115 231.943436,204.496872 
	C234.418030,204.496872 236.635696,204.496872 239.088104,204.496872 
	C239.088104,226.808121 239.088104,249.083435 239.088104,271.632935 
	C236.818207,271.632935 234.723816,271.632935 232.025146,271.632935 
	C232.025146,268.509613 232.025146,265.311371 232.025146,261.911652 
	C228.212280,264.860413 225.156265,267.903107 221.528107,269.913177 
	C205.043350,279.045959 186.214828,269.181396 184.930374,250.484650 
	C184.110214,238.546219 184.442535,226.528625 184.258148,214.057251 
z"/>
<path fill="#0E0E0E" opacity="1.000000" stroke="none" 
	d="
M290.631531,212.066956 
	C284.898529,209.635590 279.413788,208.823257 273.781097,210.810333 
	C269.220215,212.419357 265.920715,215.376556 265.506134,220.413681 
	C265.116455,225.148575 267.933441,228.289917 271.930634,230.180130 
	C276.724243,232.446976 281.707397,234.310715 286.591278,236.389374 
	C293.338501,239.261108 298.626617,243.543274 300.035095,251.202927 
	C301.975433,261.754791 294.759064,271.001465 282.942871,272.808655 
	C274.780548,274.057037 266.913757,272.479340 260.082367,267.881317 
	C258.350494,266.715637 258.134979,263.296967 257.222717,260.913544 
	C257.611694,260.675568 258.000671,260.437592 258.389648,260.199615 
	C261.676697,261.552734 264.857910,263.550751 268.274963,264.111389 
	C273.721375,265.004944 279.374146,265.543335 284.846191,265.093842 
	C289.273743,264.730133 292.117157,261.210052 292.880524,256.696411 
	C293.653076,252.128067 291.748840,248.515152 287.901154,246.090775 
	C285.386383,244.506271 282.697723,243.162033 279.983521,241.939896 
	C277.262604,240.714752 274.381195,239.851227 271.625977,238.696030 
	C262.259033,234.768661 257.593506,227.595825 258.778351,219.068268 
	C259.927795,210.795425 267.299927,203.819748 276.843018,203.267395 
	C281.834869,202.978455 287.010468,204.169388 291.959961,205.312042 
	C297.074951,206.492920 300.207581,209.557388 297.976135,215.985794 
	C295.725891,214.765701 293.363464,213.484772 290.631531,212.066956 
z"/>
<path fill="#090909" opacity="1.000000" stroke="none" 
	d="
M323.004700,250.969543 
	C323.004700,237.334991 323.004700,224.194763 323.004700,210.610733 
	C316.961121,210.610733 311.217010,210.610733 305.204315,210.610733 
	C305.204315,208.414078 305.204315,206.659271 305.204315,204.443756 
	C310.845734,204.443756 316.586761,204.443756 322.397339,204.443756 
	C324.541504,197.461060 320.101074,189.531769 326.528473,183.880478 
	C327.423645,183.093384 328.367035,182.361206 330.226105,180.832077 
	C330.226105,189.290802 330.226105,196.496918 330.226105,204.101242 
	C336.681610,204.101242 342.620850,204.101242 348.974365,204.101242 
	C349.071960,206.227539 349.151917,207.969254 349.263397,210.398300 
	C342.947693,210.398300 336.922302,210.398300 330.354736,210.398300 
	C330.354736,221.174500 330.305267,231.287704 330.374908,241.400101 
	C330.411560,246.724579 330.461517,252.062210 330.858307,257.367523 
	C331.314606,263.468781 333.708008,265.651306 339.762482,265.787384 
	C341.894012,265.835327 344.072968,265.476471 346.166870,265.015442 
	C348.248596,264.557007 350.250641,263.736816 352.282501,263.076965 
	C354.228271,268.319550 352.202728,271.106049 347.120605,271.902100 
	C343.852692,272.414001 340.528992,273.097656 337.259552,272.967896 
	C329.186340,272.647430 323.793945,267.147400 323.129578,258.956604 
	C322.928040,256.471985 323.037598,253.962143 323.004700,250.969543 
z"/>
<path fill="#040404" opacity="1.000000" stroke="none" 
	d="
M654.802612,355.897888 
	C655.489014,356.406494 655.884155,356.830566 655.884705,357.255127 
	C655.914734,379.000061 655.911133,400.744995 655.911133,422.842957 
	C651.448364,422.842957 647.232971,422.842957 642.750977,422.842957 
	C642.750977,400.634430 642.750977,378.434082 642.750977,355.813599 
	C646.754089,355.813599 650.540649,355.813599 654.802612,355.897888 
z"/>
<path fill="#010101" opacity="1.000000" stroke="none" 
	d="
M356.119995,423.173187 
	C355.050415,422.222565 353.965759,421.265808 353.962067,420.304932 
	C353.881104,399.201447 353.918396,378.097504 353.952850,356.993683 
	C353.953339,356.710510 354.207825,356.427765 354.433838,355.957336 
	C358.440918,355.957336 362.525787,355.957336 366.909058,355.957336 
	C366.909058,378.248352 366.909058,400.415497 366.909058,423.165131 
	C363.460907,423.165131 360.034637,423.165131 356.119995,423.173187 
z"/>
<path fill="#010101" opacity="1.000000" stroke="none" 
	d="
M430.234680,356.253143 
	C434.557007,355.913391 438.521271,355.913391 442.798706,355.913391 
	C442.798706,378.182861 442.798706,400.366241 442.798706,422.868591 
	C438.628387,422.868591 434.436249,422.868591 429.876587,422.868591 
	C429.876587,400.685333 429.876587,378.639130 430.234680,356.253143 
z"/>
<path fill="#151515" opacity="1.000000" stroke="none" 
	d="
M365.160889,263.903320 
	C365.162476,243.833176 365.162476,224.247955 365.162476,204.398315 
	C367.751587,204.398315 369.851593,204.398315 372.587189,204.398315 
	C372.587189,209.547409 372.587189,214.744781 372.587189,221.378662 
	C376.128906,217.147278 378.556824,213.931671 381.305511,211.018799 
	C391.541779,200.171112 401.145386,200.183762 411.855347,211.163467 
	C410.627472,213.154617 409.355560,215.217209 407.871704,217.623428 
	C405.489014,215.900818 403.427643,214.327393 401.282959,212.877136 
	C396.663879,209.753647 391.519989,209.214554 387.423309,212.916565 
	C382.316406,217.531448 377.959351,223.007919 373.551941,228.338425 
	C372.662811,229.413788 372.804535,231.498459 372.795898,233.119553 
	C372.736389,244.264587 372.772491,255.410110 372.752045,266.555420 
	C372.749054,268.183563 372.608978,269.811432 372.521484,271.668823 
	C370.104523,271.668823 367.999115,271.668823 365.159271,271.668823 
	C365.159271,269.232819 365.159271,266.810547 365.160889,263.903320 
z"/>
<path fill="#141414" opacity="1.000000" stroke="none" 
	d="
M676.791443,508.800140 
	C683.943176,508.110413 688.226318,509.998962 694.916626,516.728271 
	C693.569946,518.817993 692.168152,520.993286 690.778687,523.149475 
	C690.353210,522.918274 690.201294,522.860535 690.078430,522.765442 
	C677.784058,513.251648 672.033936,513.939331 662.096191,525.864502 
	C657.829773,530.984131 655.183411,536.240662 655.623352,543.396606 
	C656.304016,554.470154 655.802795,565.616394 655.802795,577.012329 
	C653.213501,577.012329 650.960144,577.012329 648.445374,577.012329 
	C648.445374,554.671326 648.445374,532.488098 648.445374,510.106750 
	C650.825623,510.106750 652.943054,510.106750 655.683472,510.106750 
	C655.683472,515.290466 655.683472,520.465515 655.683472,526.936035 
	C662.203247,519.073547 667.035034,511.252594 676.791443,508.800140 
z"/>
<path fill="#0C0C0C" opacity="1.000000" stroke="none" 
	d="
M155.312164,556.999939 
	C155.312134,563.827942 155.312134,570.156067 155.312134,576.877747 
	C153.017822,576.877747 150.804260,576.877747 148.322693,576.877747 
	C148.322693,554.788330 148.322693,532.713318 148.322693,510.269897 
	C150.535858,510.269897 152.751236,510.269897 155.323822,510.269897 
	C155.323822,515.431458 155.323822,520.554810 155.323822,526.893616 
	C156.843811,525.148926 157.623718,524.269714 158.386108,523.375610 
	C160.652115,520.718018 162.707062,517.842834 165.208954,515.430664 
	C175.162399,505.833801 184.409149,506.193054 194.507095,516.737122 
	C193.334808,518.701172 192.088623,520.789062 190.642700,523.211609 
	C188.600830,521.695862 186.833649,520.291931 184.975296,519.021484 
	C178.908646,514.874023 174.181732,514.700073 168.528900,519.383301 
	C160.579788,525.968872 153.586777,533.216736 155.230255,545.013977 
	C155.753998,548.773560 155.312180,552.667603 155.312164,556.999939 
z"/>
<path fill="#151515" opacity="1.000000" stroke="none" 
	d="
M707.890869,499.000061 
	C707.890869,525.255005 707.890869,551.009949 707.890869,577.038879 
	C705.344604,577.038879 703.088989,577.038879 700.557495,577.038879 
	C700.557495,543.031799 700.557495,509.197296 700.557495,475.083740 
	C702.904297,475.083740 705.158752,475.083740 707.890869,475.083740 
	C707.890869,482.973175 707.890869,490.736633 707.890869,499.000061 
z"/>
<path fill="#111111" opacity="1.000000" stroke="none" 
	d="
M737.779663,566.193298 
	C728.060730,558.108826 718.612122,550.255371 707.679504,541.168396 
	C709.268127,540.390503 710.625183,540.028870 711.589966,539.206787 
	C721.209290,531.010742 730.973633,522.965332 740.242310,514.386169 
	C744.443298,510.497681 748.737732,509.050446 755.044556,510.328766 
	C742.978149,520.889587 731.326721,531.087219 719.045349,541.836182 
	C733.112793,553.528809 746.925781,565.009888 761.173645,576.852478 
	C755.127441,577.855530 750.161560,577.709595 746.001648,573.226135 
	C743.645020,570.686157 740.719360,568.674133 737.779663,566.193298 
z"/>
<path fill="#040404" opacity="1.000000" stroke="none" 
	d="
M485.889160,267.795349 
	C485.883179,234.851044 485.883179,202.384628 485.883179,169.550476 
	C488.175568,169.550476 490.249969,169.550476 492.736755,169.550476 
	C492.736755,203.252441 492.736755,237.272491 492.736755,271.772949 
	C490.218323,270.848907 485.759644,274.774414 485.889160,267.795349 
z"/>
<path fill="#070707" opacity="1.000000" stroke="none" 
	d="
M516.903809,227.000031 
	C516.903809,219.210907 516.903809,211.921768 516.903809,204.398102 
	C519.299377,204.398102 521.237183,204.398102 523.589539,204.398102 
	C523.589539,226.706192 523.589539,249.056168 523.589539,271.644470 
	C521.553345,271.644470 519.612366,271.644470 516.903809,271.644470 
	C516.903809,256.993530 516.903809,242.246765 516.903809,227.000031 
z"/>
<path fill="#946D94" opacity="1.000000" stroke="none" 
	d="
M842.725342,121.324432 
	C843.525391,119.975739 844.407471,118.131622 845.868835,117.269707 
	C850.753235,114.388924 855.720276,111.575256 860.904663,109.304337 
	C863.930298,107.978989 867.404968,107.580872 870.722168,107.037788 
	C879.507263,105.599525 888.368103,104.556007 897.069580,102.737175 
	C898.671631,102.402306 900.716980,99.194649 900.771545,97.262535 
	C901.118958,84.963585 901.069641,72.648232 900.805115,60.345718 
	C900.780579,59.204025 898.293884,57.115726 897.035217,57.178146 
	C892.310181,57.412464 887.562195,58.088840 882.929993,59.093582 
	C874.762451,60.865170 866.631592,62.847530 858.579529,65.081245 
	C856.377686,65.692055 854.511536,67.512978 852.491333,68.778618 
	C851.943970,69.121567 851.415344,69.728333 850.846619,69.768570 
	C841.185547,70.452103 833.024841,74.715645 825.195557,80.037292 
	C823.752014,81.018524 821.405029,80.670624 819.027039,80.891579 
	C828.414124,76.097191 838.025513,70.791367 848.135437,66.724991 
	C864.216492,60.257015 880.977722,56.049778 898.315735,54.486137 
	C899.746826,54.357067 901.199646,54.469074 902.906311,54.469074 
	C902.906311,71.374619 902.906311,87.773247 902.906311,104.367302 
	C896.210632,105.057014 889.594849,105.424026 883.088928,106.473022 
	C868.810181,108.775276 855.715210,114.458221 842.725342,121.324432 
z"/>
<path fill="#8E648D" opacity="1.000000" stroke="none" 
	d="
M726.368652,223.157410 
	C726.941895,228.784164 727.378662,234.752029 727.566406,240.727707 
	C727.830566,249.140366 727.855774,257.560852 728.169312,265.971069 
	C728.195129,266.663696 729.582947,267.776978 730.441467,267.886932 
	C734.535461,268.411102 738.664307,268.942444 742.782288,268.954407 
	C772.398376,269.040405 802.015137,269.061005 831.630920,268.933716 
	C835.872742,268.915497 840.110596,267.990417 844.632690,267.266602 
	C845.731750,269.835480 845.291321,271.328827 841.783447,271.321350 
	C804.328491,271.241455 766.873169,271.254974 729.418213,271.345703 
	C726.209656,271.353485 725.963257,269.651184 725.974670,267.248444 
	C726.043945,252.666397 726.076294,238.084152 726.368652,223.157410 
z"/>
<path fill="#0E0E0E" opacity="1.000000" stroke="none" 
	d="
M646.243774,342.792419 
	C641.043396,339.117889 639.843628,334.889130 642.551392,330.880768 
	C644.875671,327.440033 649.452576,326.298157 653.108887,328.360138 
	C656.800354,330.441925 657.890198,333.759888 656.898865,337.692352 
	C655.851807,341.846222 652.176941,343.605164 646.243774,342.792419 
z"/>
<path fill="#0D0D0D" opacity="1.000000" stroke="none" 
	d="
M353.598572,331.639313 
	C357.523987,327.061127 361.281555,326.052856 364.955231,328.615204 
	C368.269684,330.927032 369.677307,334.130096 368.129242,338.114471 
	C366.512421,342.275909 363.283295,343.832611 359.009583,343.119751 
	C354.060974,342.294342 352.048615,338.154907 353.598572,331.639313 
z"/>
<path fill="#0C0C0C" opacity="1.000000" stroke="none" 
	d="
M430.768188,329.754883 
	C436.640442,326.161957 441.839417,327.205505 443.804291,332.193207 
	C445.301971,335.995056 444.550079,339.506134 441.123077,341.866638 
	C437.772308,344.174713 434.179169,344.052979 431.162933,341.144104 
	C427.628174,337.735168 427.696594,333.916626 430.768188,329.754883 
z"/>
<path fill="#111111" opacity="1.000000" stroke="none" 
	d="
M516.876465,174.079742 
	C516.965210,172.184174 517.057556,170.758987 517.153320,169.280807 
	C519.465210,169.280807 521.399780,169.280807 523.679810,169.280807 
	C523.679810,173.267685 523.679810,177.145828 523.679810,181.448898 
	C521.789307,181.448898 519.753601,181.448898 516.880066,181.448898 
	C516.880066,179.329849 516.880066,176.939972 516.876465,174.079742 
z"/>
<path fill="#8E648D" opacity="1.000000" stroke="none" 
	d="
M728.402954,209.226654 
	C729.591248,209.855438 731.582275,211.114700 731.399902,211.746124 
	C730.497009,214.871857 729.019897,217.831757 727.381287,220.918915 
	C727.412781,217.181030 727.808167,213.374359 728.402954,209.226654 
z"/>
<path fill="#946D94" opacity="1.000000" stroke="none" 
	d="
M832.301636,128.536011 
	C833.157288,123.528793 837.720276,122.823387 841.932983,121.275604 
	C839.079041,123.736160 835.847412,126.101082 832.301636,128.536011 
z"/>
<path fill="#8E648D" opacity="1.000000" stroke="none" 
	d="
M730.042114,200.449234 
	C730.129150,201.604446 730.094666,203.150742 729.691528,204.796906 
	C729.522156,203.544617 729.721375,202.192459 730.042114,200.449234 
z"/>
<path fill="#FBFBFB" opacity="1.000000" stroke="none" 
	d="
M153.911469,384.601562 
	C143.209518,413.974640 110.846260,416.083038 92.473495,404.387207 
	C78.820183,395.695709 72.815056,378.146729 77.447578,361.213593 
	C81.929054,344.832642 95.500778,334.034515 112.813919,333.074951 
	C142.267471,331.442505 161.903122,355.811707 153.911469,384.601562 
z"/>
<path fill="#F9F9F9" opacity="1.000000" stroke="none" 
	d="
M701.612305,367.015625 
	C719.725403,364.981476 730.941650,375.786285 729.049866,392.962738 
	C727.746582,404.796631 719.379211,412.197968 707.131592,412.350433 
	C695.366333,412.496918 686.791748,405.212952 685.097534,393.632904 
	C683.166260,380.432098 688.944153,370.894257 701.612305,367.015625 
z"/>
<path fill="#F5F5F5" opacity="1.000000" stroke="none" 
	d="
M542.414795,396.310547 
	C547.345703,394.046356 551.963806,391.982117 557.295349,389.598969 
	C557.295349,396.336517 557.615723,401.983826 557.199158,407.576263 
	C556.832703,412.496674 552.219666,413.323334 548.599854,414.535553 
	C544.464172,415.920563 540.599976,414.765381 537.944153,411.203888 
	C535.422791,407.822723 535.287720,404.043823 537.790527,400.563721 
	C538.920776,398.991974 540.646484,397.848389 542.414795,396.310547 
z"/>
<path fill="#F1F1F1" opacity="1.000000" stroke="none" 
	d="
M267.914551,408.934387 
	C266.188110,402.924744 268.998291,399.054535 273.429932,396.496368 
	C277.962616,393.879944 282.934204,392.023834 288.627563,389.416351 
	C288.627563,396.291565 289.394806,402.203857 288.285522,407.740173 
	C287.774445,410.290833 283.859009,412.610474 281.004883,414.127197 
	C277.375244,416.056000 273.492310,415.283112 270.313446,412.515594 
	C269.346741,411.673950 268.771484,410.382690 267.914551,408.934387 
z"/>
<path fill="#F8F8F8" opacity="1.000000" stroke="none" 
	d="
M134.907379,208.095840 
	C138.118454,215.208099 141.205231,221.963684 144.513199,229.203400 
	C129.930405,229.203400 116.029106,229.203400 101.130135,229.203400 
	C108.336731,213.477478 115.337471,198.200775 122.838730,181.831848 
	C127.095428,191.064667 130.939240,199.401917 134.907379,208.095840 
z"/>
<path fill="#F7F7F7" opacity="1.000000" stroke="none" 
	d="
M432.508362,527.853271 
	C433.337982,530.223694 433.978119,532.240967 434.768158,534.730469 
	C420.285706,534.730469 406.291107,534.730469 392.292084,534.730469 
	C392.140137,526.499084 399.423065,518.025269 408.723755,515.683594 
	C418.659546,513.182129 427.101776,517.409973 432.508362,527.853271 
z"/>
<path fill="#FAFAFA" opacity="1.000000" stroke="none" 
	d="
M600.605469,571.891846 
	C584.045227,572.148804 572.991150,562.269409 571.919678,546.665466 
	C570.748413,529.608337 579.843506,517.404907 595.147339,515.499329 
	C612.233032,513.371826 626.956421,528.967834 624.608704,546.706787 
	C622.712402,561.035156 615.365723,568.877930 600.605469,571.891846 
z"/>
<path fill="#F7F7F7" opacity="1.000000" stroke="none" 
	d="
M453.244293,251.848694 
	C453.237000,259.099579 450.053558,262.944061 442.038574,265.857513 
	C435.186066,268.348389 427.676544,267.074036 423.940643,262.786285 
	C419.672729,257.887939 420.766998,250.350632 426.639709,245.111847 
	C434.084564,238.470642 443.237640,237.547699 453.244537,237.225052 
	C453.244537,242.165497 453.244537,246.768829 453.244293,251.848694 
z"/>
<path fill="#F7F7F7" opacity="1.000000" stroke="none" 
	d="
M208.497345,551.551514 
	C216.324203,544.202759 225.632843,542.818726 235.992584,542.985596 
	C235.992584,549.561096 236.019104,555.980591 235.956818,562.399292 
	C235.949554,563.147095 235.666946,564.129700 235.146957,564.598572 
	C229.720886,569.490967 223.726440,573.328552 216.037979,572.666626 
	C211.214264,572.251282 207.005630,570.331482 204.932037,565.485718 
	C202.645584,560.142456 204.995697,555.856873 208.497345,551.551514 
z"/>
<path fill="#F6F6F6" opacity="1.000000" stroke="none" 
	d="
M564.856689,239.601624 
	C570.566284,238.548981 575.905518,237.646179 581.986572,236.617950 
	C581.986572,243.934509 582.013672,250.348312 581.949829,256.761200 
	C581.942444,257.503265 581.583313,258.356171 581.127136,258.961761 
	C576.459106,265.159546 565.258972,268.713501 558.168274,266.305481 
	C550.685303,263.764252 547.918335,257.009308 551.588196,250.020981 
	C554.366211,244.730942 558.982422,241.662430 564.856689,239.601624 
z"/>
</svg>