<svg version="1.1" id="Layer_1" xmlns="http://www.w3.org/2000/svg" xmlns:xlink="http://www.w3.org/1999/xlink" x="0px" y="0px"
	 width="100%" viewBox="0 0 1024 768" enable-background="new 0 0 1024 768" xml:space="preserve">
<path fill="#FEFEFE" opacity="1.000000" stroke="none" 
	d="
M1025.000000,276.000000 
	C1025.000000,440.666656 1025.000000,604.833313 1025.000000,769.000000 
	C683.666687,769.000000 342.333344,769.000000 1.000000,769.000000 
	C1.000000,513.000000 1.000000,257.000000 1.000000,1.000000 
	C342.333344,1.000000 683.666687,1.000000 1025.000000,1.000000 
	C1025.000000,92.500000 1025.000000,184.000000 1025.000000,276.000000 
M639.652405,367.123169 
	C639.552185,365.989441 639.768921,364.043945 639.297852,363.860046 
	C637.041626,362.979095 634.602783,362.095337 632.222412,362.077789 
	C613.578857,361.940277 594.933838,362.001282 576.289307,362.001251 
	C519.437012,362.001190 462.584747,362.001221 405.970215,362.001221 
	C405.748932,362.768555 405.402008,363.971558 404.676514,365.709869 
	C398.116882,372.184509 391.557281,378.659149 384.073792,386.045746 
	C387.068665,386.045746 388.663513,386.045746 390.258392,386.045776 
	C431.248505,386.046448 472.248352,386.549500 513.222961,385.753113 
	C526.141907,385.501984 536.576111,387.543060 544.255493,398.550934 
	C545.292725,400.037720 547.827271,401.252136 549.686401,401.277405 
	C577.340454,401.653625 604.997437,401.843811 632.654175,401.917938 
	C634.169983,401.921997 636.208435,400.915222 637.118774,399.710419 
	C641.324768,394.143738 645.069397,388.227814 649.292297,382.675018 
	C651.078918,380.325806 650.508484,378.988098 648.690796,377.252289 
	C645.335388,374.048035 642.120056,370.697144 639.652405,367.123169 
M658.714783,333.903656 
	C663.419678,338.932892 668.124573,343.962128 673.125427,349.307739 
	C682.313721,336.283356 691.062012,323.882599 700.040161,311.156067 
	C694.886047,306.391083 690.054626,301.924530 684.301453,297.153717 
	C579.723206,297.133789 475.144348,297.269775 370.567780,296.842957 
	C360.560913,296.802155 353.047974,298.906525 346.964111,306.824097 
	C344.045105,310.622833 340.275574,313.767975 336.089905,318.023895 
	C339.267456,318.023895 341.068512,318.024109 342.869568,318.023865 
	C385.000946,318.018311 427.136719,318.338928 469.260498,317.769867 
	C479.359833,317.633423 487.226227,319.476868 493.360474,327.838287 
	C495.125183,330.243744 498.489441,331.475739 501.021454,333.293976 
	C501.021454,333.293976 500.936462,333.256165 502.006714,333.283661 
	C554.153564,333.274963 606.300354,333.266235 658.714783,333.903656 
M635.523315,229.065369 
	C529.536377,229.058472 423.549286,229.115662 317.562805,228.889984 
	C311.008698,228.876038 306.245056,230.436996 302.028931,235.426483 
	C297.946808,240.257370 293.148865,244.483353 287.669647,249.972473 
	C291.037811,249.972473 292.815765,249.972473 294.593750,249.972473 
	C335.255432,249.972473 375.927734,250.495544 416.572693,249.671051 
	C429.694031,249.404861 440.200928,251.647842 448.022644,262.697784 
	C449.025360,264.114410 451.642395,265.084839 453.513916,265.088531 
	C505.673309,265.191559 557.833069,265.142914 610.281921,265.707367 
	C615.693298,271.090607 620.972534,276.618347 626.598450,281.767090 
	C628.239258,283.268738 630.863831,284.472290 633.046448,284.487061 
	C660.350220,284.671783 687.656006,284.670410 714.959839,284.493011 
	C716.898438,284.480377 719.485596,283.215363 720.649780,281.681580 
	C727.584473,272.545013 734.109863,263.098907 740.960632,253.896637 
	C742.673096,251.596313 742.914246,250.228241 740.641052,248.097244 
	C734.823730,242.643799 729.360779,236.813553 723.591797,231.306122 
	C722.398254,230.166641 720.494263,229.134354 718.915039,229.130508 
	C691.447937,229.063431 663.980469,229.164749 635.523315,229.065369 
M562.119690,197.716644 
	C567.651733,203.234451 573.082825,208.860229 578.787720,214.193069 
	C580.187988,215.501953 582.481140,216.542572 584.366089,216.546448 
	C643.841309,216.668472 703.316772,216.662552 762.792114,216.572525 
	C764.583252,216.569809 767.112793,216.016983 768.046509,214.777679 
	C775.935181,204.307449 783.532104,193.617523 791.420593,182.711685 
	C785.174377,176.446213 779.011353,170.444672 773.080444,164.221954 
	C770.849304,161.881042 768.558533,160.942093 765.284729,160.947830 
	C707.975220,161.048492 650.665527,161.019547 593.355835,161.030731 
	C591.694946,161.031052 590.033997,161.162125 587.387451,161.069717 
	C480.917114,161.050934 374.446716,161.080658 267.976715,160.878265 
	C262.311401,160.867493 258.271698,162.246964 254.645447,166.573273 
	C251.248062,170.626526 247.079575,174.028564 243.315399,177.782364 
	C242.255936,178.838898 241.425232,180.124832 239.997345,181.926758 
	C241.863495,181.926758 242.689194,181.926727 243.514893,181.926758 
	C285.503021,181.928284 327.502869,182.483871 369.472290,181.598328 
	C382.292267,181.327835 391.940094,184.223129 399.512909,194.487244 
	C400.612213,195.977188 403.346161,196.988800 405.327148,196.994339 
	C457.478210,197.140427 509.629791,197.124664 562.119690,197.716644 
M513.758911,129.636002 
	C517.866943,133.774200 522.294617,137.647751 525.998413,142.120636 
	C530.194763,147.188416 535.070129,148.712906 541.601318,148.697525 
	C628.913513,148.491882 716.226379,148.560532 803.539062,148.557297 
	C806.203674,148.557205 808.940430,148.884460 811.509766,148.378952 
	C813.519226,147.983597 815.937195,147.005600 817.113586,145.472931 
	C823.997070,136.504807 830.488464,127.236893 837.295471,118.208336 
	C839.249756,115.616341 839.535889,113.937134 836.885254,111.536827 
	C831.586182,106.738014 826.465271,101.708534 821.632874,96.442131 
	C819.120361,93.703972 816.486267,92.912064 812.904541,92.915581 
	C724.925415,93.002045 636.946167,92.981361 548.966980,92.991127 
	C545.971252,92.991455 542.975586,93.108620 539.057007,93.018166 
	C433.578064,93.008331 328.098907,93.085365 222.620636,92.811150 
	C214.824890,92.790886 208.995743,94.471359 204.094650,100.620529 
	C200.557297,105.058685 196.129227,108.786896 191.050873,113.882942 
	C194.500412,113.882942 196.263306,113.882942 198.026199,113.882942 
	C238.684814,113.882942 279.354187,114.409081 319.995850,113.579994 
	C333.129883,113.312065 343.632935,115.582314 351.470612,126.612541 
	C352.469574,128.018448 355.055725,128.990646 356.908966,128.994370 
	C409.063690,129.099243 461.218781,129.053497 513.758911,129.636002 
M465.553162,61.589134 
	C470.621674,66.639160 475.839569,71.550865 480.696533,76.796799 
	C483.172272,79.470840 485.752289,80.466248 489.387482,80.463707 
	C610.821594,80.378799 732.255920,80.318810 853.689453,80.589844 
	C861.022766,80.606209 865.572327,78.647919 869.478027,72.510796 
	C875.145874,63.604649 881.697998,55.261303 888.078003,46.392990 
	C881.784119,40.198658 875.707275,34.528255 870.026672,28.485325 
	C867.506958,25.804768 864.952637,24.922689 861.344238,24.925442 
	C740.909607,25.017338 620.474915,25.000282 500.040222,25.009554 
	C497.212128,25.009771 494.384003,25.128801 490.537933,25.036243 
	C385.386414,25.023855 280.234680,25.094671 175.083771,24.833973 
	C167.064102,24.814091 160.750519,26.100376 155.661484,32.756054 
	C152.244858,37.224468 147.780609,40.891842 142.889084,45.820408 
	C145.676865,45.820408 146.959625,45.820461 148.242386,45.820400 
	C189.402954,45.818501 230.574677,46.354988 271.717621,45.502285 
	C284.879517,45.229492 295.297424,47.645634 303.183899,58.542126 
	C304.205750,59.953968 306.777924,60.945457 308.634430,60.949314 
	C360.792847,61.057827 412.951569,61.013969 465.553162,61.589134 
M468.500000,454.083527 
	C496.969238,454.083527 525.458984,454.720428 553.898804,453.805664 
	C567.426025,453.370514 578.697815,455.443909 586.799866,467.046875 
	C587.051392,467.407074 587.597839,467.561401 588.592163,468.169983 
	C593.460205,461.328064 598.298706,454.527649 603.895813,446.661072 
	C599.391235,442.624634 595.295654,438.728302 590.924744,435.170197 
	C589.537842,434.041168 587.418152,433.259094 585.631653,433.254944 
	C542.678345,433.155640 499.724762,433.174744 456.771271,433.228271 
	C455.359222,433.230042 453.506409,433.351349 452.606964,434.204956 
	C446.053162,440.424744 439.691193,446.846649 432.380829,454.083557 
	C444.977478,454.083557 456.238739,454.083557 468.500000,454.083527 
M111.104546,602.742798 
	C111.811218,598.503479 112.517883,594.264221 113.186172,590.255127 
	C110.193855,590.255127 106.208221,590.255127 102.813324,590.255127 
	C107.283699,603.693909 103.955750,617.110901 104.610992,630.373169 
	C94.631569,618.628113 85.178421,606.836853 75.798439,594.987671 
	C71.271400,589.268921 69.079514,588.537842 62.360500,590.399109 
	C63.003155,593.588440 64.098068,596.657959 64.158730,599.747803 
	C64.377640,610.898254 64.418625,622.059448 64.154602,633.207825 
	C64.066795,636.915283 62.859016,640.596191 62.142941,644.397095 
	C65.321602,644.397095 69.340500,644.397095 72.796516,644.397095 
	C68.240074,630.955933 71.476173,617.363953 71.093475,603.787842 
	C73.019218,605.061462 74.247032,606.525879 75.433609,608.022888 
	C83.801926,618.581116 92.127205,629.173645 100.544579,639.692566 
	C103.199043,643.009766 106.164375,646.019653 111.104675,646.477600 
	C111.104675,631.968018 111.104675,617.830017 111.104546,602.742798 
M542.097778,507.416840 
	C539.865479,505.190369 537.443237,503.120667 535.445984,500.700287 
	C532.543152,497.182465 529.079529,496.011383 524.534668,496.175598 
	C515.550903,496.500214 506.545929,496.194275 497.552826,496.338867 
	C495.674561,496.369049 493.271637,496.639801 492.028564,497.790985 
	C485.622498,503.723480 479.515411,509.978882 472.748749,516.670654 
	C499.272644,516.670654 524.826538,516.670654 550.380493,516.670654 
	C550.581909,516.312073 550.783325,515.953552 550.984741,515.594971 
	C548.187256,513.028198 545.389709,510.461426 542.097778,507.416840 
M556.199036,589.951355 
	C549.336914,589.951355 542.474731,589.951355 536.859253,589.951355 
	C538.307434,608.483643 538.700378,626.418457 536.620422,644.292969 
	C540.121765,644.292969 544.331421,644.292969 548.346008,644.292969 
	C547.676941,641.462219 546.614868,638.967102 546.573486,636.455200 
	C546.367676,623.967773 546.392578,611.475769 546.462769,598.986023 
	C546.469238,597.843018 547.050537,596.203674 547.912964,595.652954 
	C551.321716,593.476135 559.082458,595.851318 561.304382,599.501587 
	C563.766846,603.547119 562.794800,609.209839 558.704834,611.847351 
	C555.701294,613.784363 552.254883,615.034485 548.249695,616.952881 
	C553.703003,624.163940 559.279602,631.162903 564.430847,638.462097 
	C569.000793,644.937561 575.200378,645.068604 583.309631,644.185059 
	C572.138000,637.127625 565.711975,627.412231 558.607788,617.946167 
	C568.187378,613.850281 571.984802,608.522278 571.064148,601.222534 
	C570.282654,595.025085 565.213013,590.947205 556.199036,589.951355 
M250.042313,644.636963 
	C251.854034,644.900024 253.657730,645.259766 255.478745,645.410461 
	C267.904755,646.438965 278.581696,637.921509 279.741669,626.099609 
	C280.884308,614.454102 272.643158,604.880493 260.199432,603.397705 
	C248.222351,601.970520 236.843826,610.082886 235.174179,621.239563 
	C233.650955,631.417908 238.158661,638.821289 250.042313,644.636963 
M689.076904,603.541443 
	C688.261169,603.700867 687.430725,603.806946 686.631958,604.027710 
	C675.227966,607.180725 668.582458,617.137207 670.588806,628.039734 
	C672.717041,639.605103 682.863525,646.554688 695.830933,645.328857 
	C706.535767,644.316956 715.107056,634.833191 715.067261,624.044678 
	C715.019531,611.106567 705.182922,603.028076 689.076904,603.541443 
M369.928741,706.515137 
	C369.928741,702.935303 369.928741,699.355530 369.928741,694.894836 
	C375.425537,695.682861 380.016327,696.341064 385.119598,697.072693 
	C385.631195,695.203796 386.405701,692.374329 387.256256,689.267029 
	C373.419708,689.267029 360.009033,689.267029 346.408691,689.267029 
	C345.632446,692.121277 344.878204,694.894653 344.287994,697.064941 
	C349.843689,696.391174 355.151794,695.747498 361.113586,695.024475 
	C361.113586,708.505249 361.213318,721.103760 361.046906,733.698792 
	C361.002625,737.048279 360.141785,740.387024 359.639496,743.843384 
	C363.533234,743.843384 368.083832,743.843384 371.722961,743.843384 
	C371.108948,739.775146 370.136078,735.877686 370.008545,731.952759 
	C369.744141,723.813782 369.928711,715.660217 369.928741,706.515137 
M301.878662,617.844604 
	C308.308807,625.881897 314.651520,633.991943 321.233704,641.902771 
	C322.783478,643.765381 325.140747,644.956116 328.065674,647.165283 
	C328.065674,638.816284 327.976288,632.005798 328.090607,625.198853 
	C328.207062,618.264282 328.523987,611.333069 328.744568,604.659302 
	C327.038361,604.659302 324.360474,604.659302 322.688721,604.659302 
	C322.688721,614.389893 322.688721,623.698730 322.688721,633.958435 
	C315.652039,625.128357 308.726685,617.146912 302.675659,608.550110 
	C299.582672,604.155762 296.297058,603.716309 292.490753,604.512390 
	C294.416199,618.054871 294.563202,631.162903 292.450684,644.272827 
	C294.763153,644.272827 297.445312,644.272827 300.014648,644.272827 
	C296.753113,635.269897 298.657990,626.274048 298.364319,617.439331 
	C298.362152,617.373718 300.306213,617.243469 301.878662,617.844604 
M792.883911,616.545715 
	C790.827759,613.934509 788.367371,611.542419 786.806641,608.662720 
	C784.222839,603.895386 780.396118,603.686218 776.531799,604.428345 
	C778.664551,617.901062 778.707336,631.148743 776.548767,644.174866 
	C778.968872,644.174866 781.646667,644.174866 784.116821,644.174866 
	C780.657166,634.495728 782.969116,625.019043 782.911316,615.430176 
	C784.574402,616.321167 785.652283,617.412659 786.602051,618.606140 
	C792.296387,625.761475 797.845825,633.036438 803.698303,640.059326 
	C805.750854,642.522522 808.523315,644.385681 810.967041,646.522888 
	C812.149841,636.355164 812.032959,627.220947 812.199646,618.091980 
	C812.282104,613.576538 812.887329,609.070618 813.255554,604.566650 
	C811.229614,604.566650 808.529907,604.566650 806.769653,604.566650 
	C806.769653,614.283264 806.769653,623.667053 806.769653,633.750793 
	C802.175293,628.046753 797.762146,622.567810 792.883911,616.545715 
M517.507935,703.962097 
	C516.028381,703.962097 514.548889,703.962097 513.946289,703.962097 
	C515.686584,717.401489 515.513794,730.537415 514.128845,743.877197 
	C515.843445,743.877197 518.628906,743.877197 520.517456,743.877197 
	C520.517456,734.203430 520.517456,724.656921 520.517456,714.405334 
	C521.946960,716.052979 523.143494,717.336304 524.233521,718.704407 
	C530.038757,725.991150 535.699707,733.397522 541.675049,740.541321 
	C543.527283,742.755615 546.208313,744.276672 549.068848,746.561646 
	C550.530029,731.543274 547.739868,717.674744 550.951416,704.102051 
	C548.587830,704.102051 545.782959,704.102051 543.969238,704.102051 
	C543.969238,713.799316 543.969238,723.355042 543.969238,733.378357 
	C536.909119,724.510315 529.976562,715.681458 522.866455,706.998169 
	C521.759338,705.646118 519.841919,704.957703 517.507935,703.962097 
M619.306274,726.378235 
	C619.306274,728.394836 619.306274,730.411377 619.306274,732.427979 
	C618.842529,732.522461 618.378845,732.616943 617.915100,732.711426 
	C611.531860,724.706848 604.784729,716.957886 598.909180,708.596558 
	C595.671204,703.988708 592.107361,703.281250 588.221375,704.120117 
	C590.257812,717.590454 590.011719,730.689148 588.429382,743.859375 
	C590.617249,743.859375 593.211853,743.859375 594.933228,743.859375 
	C594.933228,733.917053 594.933228,724.206055 594.933228,714.187134 
	C602.224487,723.243591 609.307678,732.228638 616.637756,741.007629 
	C618.349792,743.058044 620.899109,744.409302 623.970032,746.783142 
	C623.970032,734.142639 623.872681,723.165161 624.039551,712.191650 
	C624.080444,709.506653 624.986206,706.834717 625.491211,704.172974 
	C623.152283,704.172974 620.244324,704.172974 618.786743,704.172974 
	C618.962708,711.368164 619.134399,718.390747 619.306274,726.378235 
M960.996277,636.438416 
	C970.413513,622.026367 963.484009,606.664734 946.383728,604.669495 
	C940.686890,604.004761 934.847168,604.564514 929.329224,604.564514 
	C929.329224,617.875549 929.329224,631.117126 929.329224,644.560974 
	C933.334412,644.560974 937.812500,644.665405 942.283875,644.537048 
	C949.301697,644.335632 955.693726,642.460632 960.996277,636.438416 
M734.719421,641.849365 
	C744.281433,647.100220 754.165771,645.716980 764.139771,643.722839 
	C764.139771,636.971680 764.139771,630.667786 764.139771,624.155273 
	C761.377747,624.155273 758.763367,624.155273 757.076904,624.155273 
	C757.463989,629.424683 757.843201,634.586853 758.212646,639.616516 
	C747.494751,642.396851 740.003235,640.296082 735.172729,633.542236 
	C731.270386,628.086182 730.912170,619.870239 734.822266,614.840515 
	C741.692078,606.003479 750.506897,606.670410 759.652283,610.581482 
	C759.652283,608.343872 759.652283,606.418213 759.652283,604.335571 
	C752.212830,602.971985 745.167358,602.790710 738.282532,605.531677 
	C730.471497,608.641418 725.854492,614.342834 725.142029,622.756348 
	C724.475464,630.627747 727.121399,637.127319 734.719421,641.849365 
M654.797546,739.297668 
	C645.071655,734.158447 641.416565,725.341431 645.383789,716.589478 
	C649.332458,707.878540 658.601135,705.556335 671.587341,710.206970 
	C671.587341,708.213257 671.587341,706.319763 671.587341,704.056885 
	C663.502930,702.303162 655.718689,702.278198 648.227539,705.962219 
	C639.534912,710.237122 636.370300,717.536926 636.984314,726.870361 
	C637.473083,734.300598 642.811401,740.693420 650.898804,743.403320 
	C659.270081,746.208374 667.559875,745.126465 675.932373,743.171509 
	C675.932373,736.601624 675.932373,730.332642 675.932373,723.797729 
	C673.319946,723.797729 670.942078,723.797729 668.151001,723.797729 
	C668.483704,724.761963 668.682312,725.336670 668.880249,725.911560 
	C672.873352,737.512146 669.046631,742.058777 657.001648,740.016663 
	C656.511353,739.933594 656.034912,739.768921 654.797546,739.297668 
M400.074860,717.547363 
	C400.074860,726.259888 400.074860,734.972351 400.074860,743.822266 
	C401.972321,743.822266 405.058350,743.822266 408.237823,743.822266 
	C407.720490,742.495789 406.962891,741.436279 406.942108,740.362549 
	C406.749207,730.386353 406.625610,720.407288 406.689087,710.430359 
	C406.694214,709.629150 408.169464,708.254944 409.083344,708.143311 
	C412.928162,707.673279 416.720490,708.274963 417.962616,712.606567 
	C419.125580,716.661987 417.267212,719.726501 413.403381,721.468628 
	C411.812866,722.185791 410.195709,722.843811 407.770142,723.878845 
	C412.018188,729.493042 416.001801,734.542725 419.742737,739.766174 
	C423.059540,744.397339 427.384430,744.644287 431.828644,743.764465 
	C426.313660,737.580078 420.868317,731.473816 415.189972,725.106262 
	C416.508667,724.341919 417.058350,724.019165 417.611877,723.703125 
	C423.148804,720.542053 425.665131,716.220764 424.567200,711.756409 
	C423.380646,706.931641 419.156189,704.120605 412.630157,703.987244 
	C407.990936,703.892395 403.348206,703.968811 399.482697,703.968811 
	C399.689758,708.374451 399.882324,712.471069 400.074860,717.547363 
M164.471542,633.797791 
	C160.471344,623.997070 156.471130,614.196350 152.526871,604.532715 
	C149.516159,604.532715 146.778351,604.532715 144.040527,604.532715 
	C144.472488,604.791260 144.904449,605.049805 145.336395,605.308350 
	C140.149078,618.370544 134.961746,631.432739 129.788147,644.460327 
	C131.726456,644.460327 134.322632,644.460327 136.923553,644.460327 
	C136.641571,632.640503 139.921249,629.294067 151.454910,629.507141 
	C152.285965,629.522461 153.198975,629.339539 153.927704,629.623657 
	C154.925430,630.012634 156.284149,630.560120 156.616211,631.389038 
	C158.284668,635.553650 159.669144,639.832153 161.249939,644.346436 
	C163.461655,644.346436 166.646576,644.346436 169.641815,644.346436 
	C167.940842,640.955444 166.327209,637.738525 164.471542,633.797791 
M348.595795,628.919006 
	C346.318573,634.106079 344.041351,639.293152 341.791595,644.417664 
	C344.257385,644.417664 347.014069,644.417664 348.700195,644.417664 
	C349.961792,640.180054 351.084503,636.515564 352.142120,632.832397 
	C353.866669,626.826599 358.764832,630.495605 362.144623,629.580872 
	C363.383667,629.245483 364.870483,629.246460 366.095917,629.603333 
	C367.309387,629.956787 368.930542,630.708862 369.339996,631.708923 
	C370.994415,635.749634 372.250122,639.953491 373.669006,644.144287 
	C376.157196,644.144287 379.256439,644.144287 382.252686,644.144287 
	C380.742798,641.299255 379.246735,638.923096 378.169952,636.370117 
	C374.626129,627.967651 371.225067,619.504822 367.786743,611.058044 
	C364.897339,603.959900 364.908203,603.955505 358.077545,604.467834 
	C354.913513,612.641724 351.900635,620.425232 348.595795,628.919006 
M860.279419,603.755493 
	C853.306213,604.959900 849.547668,607.852234 848.956177,612.469116 
	C848.259277,617.909363 850.651550,621.568237 857.064819,624.774231 
	C859.877014,626.180054 863.102112,627.064331 865.438171,629.022400 
	C867.328796,630.607239 869.539307,633.761353 869.105591,635.642334 
	C868.632324,637.694580 865.503052,639.816162 863.114441,640.550293 
	C860.792664,641.263855 857.864685,640.562683 855.346497,639.920166 
	C852.921082,639.301270 850.679260,637.962646 846.895630,636.296997 
	C848.604736,639.701965 849.223389,643.234680 850.858215,643.793152 
	C857.938110,646.211853 865.229675,646.646790 871.831787,641.969299 
	C878.864807,636.986450 878.603516,629.017578 871.169434,624.577454 
	C867.473877,622.370239 863.273315,620.933594 859.812988,618.438538 
	C858.010132,617.138611 856.012207,613.937195 856.478455,612.251892 
	C856.979431,610.440918 860.206421,608.379578 862.348633,608.256897 
	C865.763000,608.061401 869.264160,609.380127 872.861328,610.084473 
	C872.861328,608.587158 872.861328,606.572388 872.861328,603.632874 
	C868.683044,603.632874 864.901611,603.632874 860.279419,603.755493 
M636.000366,633.194824 
	C635.158630,631.040649 634.016907,628.952515 633.526123,626.721130 
	C631.174072,616.027771 639.133545,607.416748 649.989807,608.956238 
	C652.863892,609.363831 655.636841,610.484985 658.470215,611.282410 
	C659.322693,604.541565 659.315063,604.440186 652.867920,603.802429 
	C650.069702,603.525635 647.204346,603.382935 644.415527,603.653931 
	C633.856873,604.679871 627.011536,611.864319 626.086243,622.623169 
	C625.192993,633.010010 630.659912,641.543152 640.593201,644.173462 
	C644.511230,645.210876 648.792175,644.939392 652.914062,645.129944 
	C658.291931,645.378601 660.325928,642.140259 661.178040,636.980408 
	C651.978333,640.725098 643.397156,642.898865 636.000366,633.194824 
M441.468597,744.048706 
	C442.779327,744.048706 444.090057,744.048706 444.267273,744.048706 
	C445.848572,738.730408 447.263733,733.970764 448.811646,728.764709 
	C454.316986,729.089844 460.546356,727.718811 464.131531,730.187683 
	C467.334167,732.393066 467.617706,738.837524 469.274048,743.658203 
	C471.659546,743.658203 474.796204,743.658203 477.768372,743.658203 
	C476.241638,740.770874 474.658783,738.245850 473.518890,735.534485 
	C469.981689,727.120911 466.632568,718.628479 463.172485,710.182190 
	C460.228119,702.994751 459.726776,702.769836 453.566193,704.258362 
	C448.532318,718.276978 443.719696,731.361572 437.154358,744.050598 
	C438.402832,744.050598 439.558685,744.050598 441.468597,744.048706 
M903.186401,625.056213 
	C904.707703,625.281982 906.228943,625.507751 907.734253,625.731201 
	C907.734253,623.889221 907.734253,622.294556 907.734253,620.196899 
	C904.408264,620.196899 901.342102,620.196899 898.178589,620.196899 
	C898.178589,616.273254 898.178589,612.858948 898.178589,608.741821 
	C902.664917,609.138123 906.838074,609.506775 911.259399,609.897339 
	C911.259399,608.402161 911.259399,606.536438 911.259399,604.540771 
	C903.916565,604.540771 896.893372,604.540771 890.546387,604.540771 
	C890.546387,617.985107 890.546387,631.066040 890.546387,644.661865 
	C896.140015,644.661865 902.260742,644.662964 908.381470,644.661560 
	C915.091125,644.659973 915.091125,644.658997 915.933044,638.473267 
	C910.265869,638.969604 904.386841,639.484497 897.916748,640.051147 
	C897.916748,636.536865 897.916748,634.402466 897.916748,632.268066 
	C897.916748,629.981750 897.916748,627.695435 897.916748,625.049194 
	C899.699280,625.049194 900.993042,625.049194 903.186401,625.056213 
M616.079834,638.592407 
	C615.291077,638.440430 614.483704,638.094666 613.716736,638.168579 
	C609.336243,638.591125 604.971619,639.316895 600.586792,639.449036 
	C599.578674,639.479370 597.727600,637.666931 597.616272,636.565735 
	C597.240540,632.850220 597.473145,629.073242 597.473145,624.937683 
	C601.231628,625.114319 604.286804,625.257874 607.568848,625.412170 
	C607.614441,624.564392 607.725403,623.751953 607.682007,622.947876 
	C607.640320,622.174683 607.438904,621.410095 607.323120,620.732239 
	C596.784119,619.596802 596.784119,619.596802 598.021606,608.809937 
	C602.263733,609.133362 606.543518,609.459656 610.728943,609.778748 
	C610.728943,608.249390 610.728943,606.360291 610.728943,604.541626 
	C603.499329,604.541626 596.633789,604.541626 590.352539,604.541626 
	C590.352539,618.002136 590.352539,631.129944 590.352539,644.617371 
	C596.046448,644.617371 602.182312,644.296326 608.265503,644.723999 
	C612.725586,645.037537 615.137817,643.553162 616.079834,638.592407 
M488.239746,642.822876 
	C485.713593,636.241882 485.123932,629.633789 488.973297,623.400574 
	C492.835449,617.146667 497.070862,611.123352 501.553253,604.381531 
	C497.665253,604.381531 494.907959,604.381531 492.206238,604.381531 
	C493.542786,612.054932 487.433655,615.629211 484.142029,621.572083 
	C481.281006,616.933960 478.967255,613.121155 476.591949,609.347107 
	C473.173309,603.915222 472.379639,603.606567 465.762238,604.858704 
	C473.502380,616.826843 484.955505,627.555359 478.208069,645.138977 
	C482.204254,644.517395 485.421814,644.016907 488.239746,642.822876 
M191.927139,619.521606 
	C191.927139,616.088989 191.927139,612.656311 191.927139,608.659729 
	C196.047821,609.078613 199.498001,609.429321 203.233719,609.809021 
	C203.591705,608.361694 204.044800,606.529785 204.609634,604.246216 
	C195.911316,604.246216 187.967270,604.267334 180.023392,604.239319 
	C174.018250,604.218140 174.018341,604.190247 173.677032,609.814026 
	C177.415451,609.462280 181.237701,609.102661 184.765793,608.770752 
	C184.765793,621.149170 184.765793,632.772217 184.765793,644.547607 
	C187.580536,644.547607 190.702606,644.547607 193.988388,644.547607 
	C190.195679,636.711548 192.620789,628.490479 191.927139,619.521606 
M402.911499,619.529175 
	C402.911499,614.521423 402.911499,609.513672 402.911499,604.403564 
	C400.939117,604.403564 398.022095,604.403564 395.591614,604.403564 
	C395.591614,617.939209 395.591614,631.194763 395.591614,644.661804 
	C401.246643,644.661804 407.215576,644.664978 413.184479,644.660950 
	C419.704315,644.656555 420.447327,643.934631 420.883820,638.304504 
	C415.225189,638.916199 409.347778,639.551514 402.911194,640.247253 
	C402.911194,632.802185 402.911194,626.660889 402.911499,619.529175 
M450.342285,644.661804 
	C458.784485,644.661560 458.784485,644.661560 459.975128,638.368896 
	C454.333862,638.955505 448.430145,639.569397 442.611511,640.174438 
	C442.611511,627.506348 442.611511,616.014160 442.611511,604.551514 
	C439.906342,604.551514 436.888184,604.551514 434.586304,604.551514 
	C434.586304,618.000366 434.586304,631.064941 434.586304,644.661621 
	C439.167297,644.661621 444.277405,644.661621 450.342285,644.661804 
M570.183655,744.038940 
	C571.425903,743.960205 572.668091,743.881409 573.188782,743.848450 
	C573.188782,730.358459 573.188782,717.311646 573.188782,704.135071 
	C570.630615,704.135071 567.514771,704.135071 565.120544,704.135071 
	C566.642029,717.443115 566.483521,730.594788 565.174133,744.072205 
	C566.424622,744.072205 567.898865,744.072205 570.183655,744.038940 
M491.588135,731.455322 
	C491.316803,735.573059 491.045441,739.690796 490.772095,743.839355 
	C493.387970,743.839355 496.312408,743.839355 498.659851,743.839355 
	C498.659851,730.470764 498.659851,717.356934 498.659851,704.252686 
	C496.102875,704.252686 492.914642,704.252686 491.161469,704.252686 
	C491.306091,713.132629 491.447266,721.800110 491.588135,731.455322 
M828.925903,620.528931 
	C828.925903,628.394714 828.925903,636.260498 828.925903,644.366028 
	C830.554749,644.366028 833.432251,644.366028 835.795105,644.366028 
	C835.795105,630.964294 835.795105,617.848816 835.795105,604.535522 
	C833.433289,604.535522 830.552734,604.535522 828.228088,604.535522 
	C828.469604,609.729614 828.697754,614.635925 828.925903,620.528931 
z"/>
<path fill="#195740" opacity="1.000000" stroke="none" 
	d="
M491.555908,25.192417 
	C494.384003,25.128801 497.212128,25.009771 500.040222,25.009554 
	C620.474915,25.000282 740.909607,25.017338 861.344238,24.925442 
	C864.952637,24.922689 867.506958,25.804768 870.026672,28.485325 
	C875.707275,34.528255 881.784119,40.198658 888.078003,46.392990 
	C881.697998,55.261303 875.145874,63.604649 869.478027,72.510796 
	C865.572327,78.647919 861.022766,80.606209 853.689453,80.589844 
	C732.255920,80.318810 610.821594,80.378799 489.387482,80.463707 
	C485.752289,80.466248 483.172272,79.470840 480.696533,76.796799 
	C475.839569,71.550865 470.621674,66.639160 465.540100,60.972321 
	C466.428619,59.174995 467.346954,58.006866 468.229065,56.812000 
	C476.008362,46.274845 483.781189,35.732933 491.555908,25.192417 
z"/>
<path fill="#1B5842" opacity="1.000000" stroke="none" 
	d="
M539.979858,93.171326 
	C542.975586,93.108620 545.971252,92.991455 548.966980,92.991127 
	C636.946167,92.981361 724.925415,93.002045 812.904541,92.915581 
	C816.486267,92.912064 819.120361,93.703972 821.632874,96.442131 
	C826.465271,101.708534 831.586182,106.738014 836.885254,111.536827 
	C839.535889,113.937134 839.249756,115.616341 837.295471,118.208336 
	C830.488464,127.236893 823.997070,136.504807 817.113586,145.472931 
	C815.937195,147.005600 813.519226,147.983597 811.509766,148.378952 
	C808.940430,148.884460 806.203674,148.557205 803.539062,148.557297 
	C716.226379,148.560532 628.913513,148.491882 541.601318,148.697525 
	C535.070129,148.712906 530.194763,147.188416 525.998413,142.120636 
	C522.294617,137.647751 517.866943,133.774200 513.796631,129.047211 
	C514.195801,127.906792 514.529480,127.334602 514.922546,126.806572 
	C523.270935,115.591827 531.626099,104.382072 539.979858,93.171326 
z"/>
<path fill="#1B5842" opacity="1.000000" stroke="none" 
	d="
M588.373108,161.232208 
	C590.033997,161.162125 591.694946,161.031052 593.355835,161.030731 
	C650.665527,161.019547 707.975220,161.048492 765.284729,160.947830 
	C768.558533,160.942093 770.849304,161.881042 773.080444,164.221954 
	C779.011353,170.444672 785.174377,176.446213 791.420593,182.711685 
	C783.532104,193.617523 775.935181,204.307449 768.046509,214.777679 
	C767.112793,216.016983 764.583252,216.569809 762.792114,216.572525 
	C703.316772,216.662552 643.841309,216.668472 584.366089,216.546448 
	C582.481140,216.542572 580.187988,215.501953 578.787720,214.193069 
	C573.082825,208.860229 567.651733,203.234451 562.099365,197.104218 
	C570.843750,184.738602 579.608398,172.985397 588.373108,161.232208 
z"/>
<path fill="#EE0D45" opacity="1.000000" stroke="none" 
	d="
M539.518433,93.094749 
	C531.626099,104.382072 523.270935,115.591827 514.922546,126.806572 
	C514.529480,127.334602 514.195801,127.906792 513.604126,128.745422 
	C461.218781,129.053497 409.063690,129.099243 356.908966,128.994370 
	C355.055725,128.990646 352.469574,128.018448 351.470612,126.612541 
	C343.632935,115.582314 333.129883,113.312065 319.995850,113.579994 
	C279.354187,114.409081 238.684814,113.882942 198.026199,113.882942 
	C196.263306,113.882942 194.500412,113.882942 191.050873,113.882942 
	C196.129227,108.786896 200.557297,105.058685 204.094650,100.620529 
	C208.995743,94.471359 214.824890,92.790886 222.620636,92.811150 
	C328.098907,93.085365 433.578064,93.008331 539.518433,93.094749 
z"/>
<path fill="#EE0D45" opacity="1.000000" stroke="none" 
	d="
M587.880249,161.150970 
	C579.608398,172.985397 570.843750,184.738602 561.930176,196.814209 
	C509.629791,197.124664 457.478210,197.140427 405.327148,196.994339 
	C403.346161,196.988800 400.612213,195.977188 399.512909,194.487244 
	C391.940094,184.223129 382.292267,181.327835 369.472290,181.598328 
	C327.502869,182.483871 285.503021,181.928284 243.514893,181.926758 
	C242.689194,181.926727 241.863495,181.926758 239.997345,181.926758 
	C241.425232,180.124832 242.255936,178.838898 243.315399,177.782364 
	C247.079575,174.028564 251.248062,170.626526 254.645447,166.573273 
	C258.271698,162.246964 262.311401,160.867493 267.976715,160.878265 
	C374.446716,161.080658 480.917114,161.050934 587.880249,161.150970 
z"/>
<path fill="#EE0E45" opacity="1.000000" stroke="none" 
	d="
M609.992737,265.119324 
	C557.833069,265.142914 505.673309,265.191559 453.513916,265.088531 
	C451.642395,265.084839 449.025360,264.114410 448.022644,262.697784 
	C440.200928,251.647842 429.694031,249.404861 416.572693,249.671051 
	C375.927734,250.495544 335.255432,249.972473 294.593750,249.972473 
	C292.815765,249.972473 291.037811,249.972473 287.669647,249.972473 
	C293.148865,244.483353 297.946808,240.257370 302.028931,235.426483 
	C306.245056,230.436996 311.008698,228.876038 317.562805,228.889984 
	C423.549286,229.115662 529.536377,229.058472 635.888855,229.485703 
	C627.500549,241.643814 618.746643,253.381577 609.992737,265.119324 
z"/>
<path fill="#EE0D45" opacity="1.000000" stroke="none" 
	d="
M491.046936,25.114332 
	C483.781189,35.732933 476.008362,46.274845 468.229065,56.812000 
	C467.346954,58.006866 466.428619,59.174995 465.318665,60.675320 
	C412.951569,61.013969 360.792847,61.057827 308.634430,60.949314 
	C306.777924,60.945457 304.205750,59.953968 303.183899,58.542126 
	C295.297424,47.645634 284.879517,45.229492 271.717621,45.502285 
	C230.574677,46.354988 189.402954,45.818501 148.242386,45.820400 
	C146.959625,45.820461 145.676865,45.820408 142.889084,45.820408 
	C147.780609,40.891842 152.244858,37.224468 155.661484,32.756054 
	C160.750519,26.100376 167.064102,24.814091 175.083771,24.833973 
	C280.234680,25.094671 385.386414,25.023855 491.046936,25.114332 
z"/>
<path fill="#EE0D45" opacity="1.000000" stroke="none" 
	d="
M501.120331,333.245789 
	C498.489441,331.475739 495.125183,330.243744 493.360474,327.838287 
	C487.226227,319.476868 479.359833,317.633423 469.260498,317.769867 
	C427.136719,318.338928 385.000946,318.018311 342.869568,318.023865 
	C341.068512,318.024109 339.267456,318.023895 336.089905,318.023895 
	C340.275574,313.767975 344.045105,310.622833 346.964111,306.824097 
	C353.047974,298.906525 360.560913,296.802155 370.567780,296.842957 
	C475.144348,297.269775 579.723206,297.133789 684.551392,297.553162 
	C676.016602,309.720947 667.231934,321.489258 658.447205,333.257568 
	C606.300354,333.266235 554.153564,333.274963 501.501343,333.255859 
	C500.995941,333.228027 501.120331,333.245789 501.120331,333.245789 
z"/>
<path fill="#EF0F47" opacity="1.000000" stroke="none" 
	d="
M638.846375,367.407349 
	C642.120056,370.697144 645.335388,374.048035 648.690796,377.252289 
	C650.508484,378.988098 651.078918,380.325806 649.292297,382.675018 
	C645.069397,388.227814 641.324768,394.143738 637.118774,399.710419 
	C636.208435,400.915222 634.169983,401.921997 632.654175,401.917938 
	C604.997437,401.843811 577.340454,401.653625 549.686401,401.277405 
	C547.827271,401.252136 545.292725,400.037720 544.255493,398.550934 
	C536.576111,387.543060 526.141907,385.501984 513.222961,385.753113 
	C472.248352,386.549500 431.248505,386.046448 390.258392,386.045776 
	C388.663513,386.045746 387.068665,386.045746 384.073792,386.045746 
	C391.557281,378.659149 398.116882,372.184509 405.329895,365.473694 
	C481.162537,365.217621 556.341797,365.176727 631.520935,365.271667 
	C633.963623,365.274750 636.404602,366.664154 638.846375,367.407349 
z"/>
<path fill="#1C5942" opacity="1.000000" stroke="none" 
	d="
M610.137329,265.413361 
	C618.746643,253.381577 627.500549,241.643814 636.383728,229.567688 
	C663.980469,229.164749 691.447937,229.063431 718.915039,229.130508 
	C720.494263,229.134354 722.398254,230.166641 723.591797,231.306122 
	C729.360779,236.813553 734.823730,242.643799 740.641052,248.097244 
	C742.914246,250.228241 742.673096,251.596313 740.960632,253.896637 
	C734.109863,263.098907 727.584473,272.545013 720.649780,281.681580 
	C719.485596,283.215363 716.898438,284.480377 714.959839,284.493011 
	C687.656006,284.670410 660.350220,284.671783 633.046448,284.487061 
	C630.863831,284.472290 628.239258,283.268738 626.598450,281.767090 
	C620.972534,276.618347 615.693298,271.090607 610.137329,265.413361 
z"/>
<path fill="#EE1047" opacity="1.000000" stroke="none" 
	d="
M468.000000,454.083557 
	C456.238739,454.083557 444.977478,454.083557 432.380829,454.083557 
	C439.691193,446.846649 446.053162,440.424744 452.606964,434.204956 
	C453.506409,433.351349 455.359222,433.230042 456.771271,433.228271 
	C499.724762,433.174744 542.678345,433.155640 585.631653,433.254944 
	C587.418152,433.259094 589.537842,434.041168 590.924744,435.170197 
	C595.295654,438.728302 599.391235,442.624634 603.895813,446.661072 
	C598.298706,454.527649 593.460205,461.328064 588.592163,468.169983 
	C587.597839,467.561401 587.051392,467.407074 586.799866,467.046875 
	C578.697815,455.443909 567.426025,453.370514 553.898804,453.805664 
	C525.458984,454.720428 496.969238,454.083527 468.000000,454.083557 
z"/>
<path fill="#245D48" opacity="1.000000" stroke="none" 
	d="
M111.104614,603.217407 
	C111.104675,617.830017 111.104675,631.968018 111.104675,646.477600 
	C106.164375,646.019653 103.199043,643.009766 100.544579,639.692566 
	C92.127205,629.173645 83.801926,618.581116 75.433609,608.022888 
	C74.247032,606.525879 73.019218,605.061462 71.093475,603.787842 
	C71.476173,617.363953 68.240074,630.955933 72.796516,644.397095 
	C69.340500,644.397095 65.321602,644.397095 62.142941,644.397095 
	C62.859016,640.596191 64.066795,636.915283 64.154602,633.207825 
	C64.418625,622.059448 64.377640,610.898254 64.158730,599.747803 
	C64.098068,596.657959 63.003155,593.588440 62.360500,590.399109 
	C69.079514,588.537842 71.271400,589.268921 75.798439,594.987671 
	C85.178421,606.836853 94.631569,618.628113 104.610992,630.373169 
	C103.955750,617.110901 107.283699,603.693909 102.813324,590.255127 
	C106.208221,590.255127 110.193855,590.255127 113.186172,590.255127 
	C112.517883,594.264221 111.811218,598.503479 111.104614,603.217407 
z"/>
<path fill="#ED1148" opacity="1.000000" stroke="none" 
	d="
M542.344971,507.655762 
	C545.389709,510.461426 548.187256,513.028198 550.984741,515.594971 
	C550.783325,515.953552 550.581909,516.312073 550.380493,516.670654 
	C524.826538,516.670654 499.272644,516.670654 472.748749,516.670654 
	C479.515411,509.978882 485.622498,503.723480 492.028564,497.790985 
	C493.271637,496.639801 495.674561,496.369049 497.552826,496.338867 
	C506.545929,496.194275 515.550903,496.500214 524.534668,496.175598 
	C529.079529,496.011383 532.543152,497.182465 535.445984,500.700287 
	C537.443237,503.120667 539.865479,505.190369 542.344971,507.655762 
z"/>
<path fill="#235C47" opacity="1.000000" stroke="none" 
	d="
M556.656372,589.976074 
	C565.213013,590.947205 570.282654,595.025085 571.064148,601.222534 
	C571.984802,608.522278 568.187378,613.850281 558.607788,617.946167 
	C565.711975,627.412231 572.138000,637.127625 583.309631,644.185059 
	C575.200378,645.068604 569.000793,644.937561 564.430847,638.462097 
	C559.279602,631.162903 553.703003,624.163940 548.249695,616.952881 
	C552.254883,615.034485 555.701294,613.784363 558.704834,611.847351 
	C562.794800,609.209839 563.766846,603.547119 561.304382,599.501587 
	C559.082458,595.851318 551.321716,593.476135 547.912964,595.652954 
	C547.050537,596.203674 546.469238,597.843018 546.462769,598.986023 
	C546.392578,611.475769 546.367676,623.967773 546.573486,636.455200 
	C546.614868,638.967102 547.676941,641.462219 548.346008,644.292969 
	C544.331421,644.292969 540.121765,644.292969 536.620422,644.292969 
	C538.700378,626.418457 538.307434,608.483643 536.859253,589.951355 
	C542.474731,589.951355 549.336914,589.951355 556.656372,589.976074 
z"/>
<path fill="#205943" opacity="1.000000" stroke="none" 
	d="
M658.580994,333.580627 
	C667.231934,321.489258 676.016602,309.720947 685.012268,297.705292 
	C690.054626,301.924530 694.886047,306.391083 700.040161,311.156067 
	C691.062012,323.882599 682.313721,336.283356 673.125427,349.307739 
	C668.124573,343.962128 663.419678,338.932892 658.580994,333.580627 
z"/>
<path fill="#275E4A" opacity="1.000000" stroke="none" 
	d="
M249.662964,644.524719 
	C238.158661,638.821289 233.650955,631.417908 235.174179,621.239563 
	C236.843826,610.082886 248.222351,601.970520 260.199432,603.397705 
	C272.643158,604.880493 280.884308,614.454102 279.741669,626.099609 
	C278.581696,637.921509 267.904755,646.438965 255.478745,645.410461 
	C253.657730,645.259766 251.854034,644.900024 249.662964,644.524719 
M243.441376,630.687561 
	C247.794998,639.645386 254.769073,642.913635 263.203308,639.948486 
	C270.118317,637.517517 274.071503,629.607666 272.362915,621.621399 
	C270.369598,612.304321 264.252716,607.300354 255.668884,607.964661 
	C245.418747,608.757935 239.908157,618.438660 243.441376,630.687561 
z"/>
<path fill="#275E4A" opacity="1.000000" stroke="none" 
	d="
M689.501282,603.469055 
	C705.182922,603.028076 715.019531,611.106567 715.067261,624.044678 
	C715.107056,634.833191 706.535767,644.316956 695.830933,645.328857 
	C682.863525,646.554688 672.717041,639.605103 670.588806,628.039734 
	C668.582458,617.137207 675.227966,607.180725 686.631958,604.027710 
	C687.430725,603.806946 688.261169,603.700867 689.501282,603.469055 
M697.374695,608.685425 
	C686.318054,606.036621 678.420837,611.502686 677.382629,622.522888 
	C676.649963,630.299561 681.258545,637.679688 688.438110,640.227234 
	C694.640747,642.428040 701.720764,639.994690 705.488464,634.350952 
	C710.246887,627.223145 708.409241,613.005005 697.374695,608.685425 
z"/>
<path fill="#275E4A" opacity="1.000000" stroke="none" 
	d="
M369.928711,707.013916 
	C369.928711,715.660217 369.744141,723.813782 370.008545,731.952759 
	C370.136078,735.877686 371.108948,739.775146 371.722961,743.843384 
	C368.083832,743.843384 363.533234,743.843384 359.639496,743.843384 
	C360.141785,740.387024 361.002625,737.048279 361.046906,733.698792 
	C361.213318,721.103760 361.113586,708.505249 361.113586,695.024475 
	C355.151794,695.747498 349.843689,696.391174 344.287994,697.064941 
	C344.878204,694.894653 345.632446,692.121277 346.408691,689.267029 
	C360.009033,689.267029 373.419708,689.267029 387.256256,689.267029 
	C386.405701,692.374329 385.631195,695.203796 385.119598,697.072693 
	C380.016327,696.341064 375.425537,695.682861 369.928741,694.894836 
	C369.928741,699.355530 369.928741,702.935303 369.928711,707.013916 
z"/>
<path fill="#255D48" opacity="1.000000" stroke="none" 
	d="
M301.610107,617.494019 
	C300.306213,617.243469 298.362152,617.373718 298.364319,617.439331 
	C298.657990,626.274048 296.753113,635.269897 300.014648,644.272827 
	C297.445312,644.272827 294.763153,644.272827 292.450684,644.272827 
	C294.563202,631.162903 294.416199,618.054871 292.490753,604.512390 
	C296.297058,603.716309 299.582672,604.155762 302.675659,608.550110 
	C308.726685,617.146912 315.652039,625.128357 322.688721,633.958435 
	C322.688721,623.698730 322.688721,614.389893 322.688721,604.659302 
	C324.360474,604.659302 327.038361,604.659302 328.744568,604.659302 
	C328.523987,611.333069 328.207062,618.264282 328.090607,625.198853 
	C327.976288,632.005798 328.065674,638.816284 328.065674,647.165283 
	C325.140747,644.956116 322.783478,643.765381 321.233704,641.902771 
	C314.651520,633.991943 308.308807,625.881897 301.610107,617.494019 
M298.614471,615.942993 
	C298.698029,615.729797 298.781586,615.516663 298.865173,615.303467 
	C298.654388,615.362122 298.443604,615.420776 298.614471,615.942993 
z"/>
<path fill="#255D48" opacity="1.000000" stroke="none" 
	d="
M793.116455,616.817261 
	C797.762146,622.567810 802.175293,628.046753 806.769653,633.750793 
	C806.769653,623.667053 806.769653,614.283264 806.769653,604.566650 
	C808.529907,604.566650 811.229614,604.566650 813.255554,604.566650 
	C812.887329,609.070618 812.282104,613.576538 812.199646,618.091980 
	C812.032959,627.220947 812.149841,636.355164 810.967041,646.522888 
	C808.523315,644.385681 805.750854,642.522522 803.698303,640.059326 
	C797.845825,633.036438 792.296387,625.761475 786.602051,618.606140 
	C785.652283,617.412659 784.574402,616.321167 782.911316,615.430176 
	C782.969116,625.019043 780.657166,634.495728 784.116821,644.174866 
	C781.646667,644.174866 778.968872,644.174866 776.548767,644.174866 
	C778.707336,631.148743 778.664551,617.901062 776.531799,604.428345 
	C780.396118,603.686218 784.222839,603.895386 786.806641,608.662720 
	C788.367371,611.542419 790.827759,613.934509 793.116455,616.817261 
z"/>
<path fill="#275E4A" opacity="1.000000" stroke="none" 
	d="
M517.903564,703.962280 
	C519.841919,704.957703 521.759338,705.646118 522.866455,706.998169 
	C529.976562,715.681458 536.909119,724.510315 543.969238,733.378357 
	C543.969238,723.355042 543.969238,713.799316 543.969238,704.102051 
	C545.782959,704.102051 548.587830,704.102051 550.951416,704.102051 
	C547.739868,717.674744 550.530029,731.543274 549.068848,746.561646 
	C546.208313,744.276672 543.527283,742.755615 541.675049,740.541321 
	C535.699707,733.397522 530.038757,725.991150 524.233521,718.704407 
	C523.143494,717.336304 521.946960,716.052979 520.517456,714.405334 
	C520.517456,724.656921 520.517456,734.203430 520.517456,743.877197 
	C518.628906,743.877197 515.843445,743.877197 514.128845,743.877197 
	C515.513794,730.537415 515.686584,717.401489 513.946289,703.962097 
	C514.548889,703.962097 516.028381,703.962097 517.903564,703.962280 
z"/>
<path fill="#28604C" opacity="1.000000" stroke="none" 
	d="
M619.306152,725.895813 
	C619.134399,718.390747 618.962708,711.368164 618.786743,704.172974 
	C620.244324,704.172974 623.152283,704.172974 625.491211,704.172974 
	C624.986206,706.834717 624.080444,709.506653 624.039551,712.191650 
	C623.872681,723.165161 623.970032,734.142639 623.970032,746.783142 
	C620.899109,744.409302 618.349792,743.058044 616.637756,741.007629 
	C609.307678,732.228638 602.224487,723.243591 594.933228,714.187134 
	C594.933228,724.206055 594.933228,733.917053 594.933228,743.859375 
	C593.211853,743.859375 590.617249,743.859375 588.429382,743.859375 
	C590.011719,730.689148 590.257812,717.590454 588.221375,704.120117 
	C592.107361,703.281250 595.671204,703.988708 598.909180,708.596558 
	C604.784729,716.957886 611.531860,724.706848 617.915100,732.711426 
	C618.378845,732.616943 618.842529,732.522461 619.306274,732.427979 
	C619.306274,730.411377 619.306274,728.394836 619.306152,725.895813 
z"/>
<path fill="#F8F3F2" opacity="1.000000" stroke="none" 
	d="
M639.249390,367.265259 
	C636.404602,366.664154 633.963623,365.274750 631.520935,365.271667 
	C556.341797,365.176727 481.162537,365.217621 405.519165,365.206055 
	C405.402008,363.971558 405.748932,362.768555 405.970215,362.001221 
	C462.584747,362.001221 519.437012,362.001190 576.289307,362.001251 
	C594.933838,362.001282 613.578857,361.940277 632.222412,362.077789 
	C634.602783,362.095337 637.041626,362.979095 639.297852,363.860046 
	C639.768921,364.043945 639.552185,365.989441 639.249390,367.265259 
z"/>
<path fill="#245D48" opacity="1.000000" stroke="none" 
	d="
M960.804321,636.744995 
	C955.693726,642.460632 949.301697,644.335632 942.283875,644.537048 
	C937.812500,644.665405 933.334412,644.560974 929.329224,644.560974 
	C929.329224,631.117126 929.329224,617.875549 929.329224,604.564514 
	C934.847168,604.564514 940.686890,604.004761 946.383728,604.669495 
	C963.484009,606.664734 970.413513,622.026367 960.804321,636.744995 
M937.054077,639.556152 
	C939.359009,639.672180 941.692139,640.075928 943.963745,639.852783 
	C952.379822,639.026306 957.662292,633.371643 957.953186,625.161621 
	C958.256165,616.612183 953.858887,610.457703 946.172363,609.268494 
	C943.138000,608.799072 939.970337,609.191467 936.623901,609.191467 
	C936.623901,619.277283 936.623901,629.020081 937.054077,639.556152 
z"/>
<path fill="#255D48" opacity="1.000000" stroke="none" 
	d="
M734.426086,641.629272 
	C727.121399,637.127319 724.475464,630.627747 725.142029,622.756348 
	C725.854492,614.342834 730.471497,608.641418 738.282532,605.531677 
	C745.167358,602.790710 752.212830,602.971985 759.652283,604.335571 
	C759.652283,606.418213 759.652283,608.343872 759.652283,610.581482 
	C750.506897,606.670410 741.692078,606.003479 734.822266,614.840515 
	C730.912170,619.870239 731.270386,628.086182 735.172729,633.542236 
	C740.003235,640.296082 747.494751,642.396851 758.212646,639.616516 
	C757.843201,634.586853 757.463989,629.424683 757.076904,624.155273 
	C758.763367,624.155273 761.377747,624.155273 764.139771,624.155273 
	C764.139771,630.667786 764.139771,636.971680 764.139771,643.722839 
	C754.165771,645.716980 744.281433,647.100220 734.426086,641.629272 
z"/>
<path fill="#275E4A" opacity="1.000000" stroke="none" 
	d="
M655.174805,739.469971 
	C656.034912,739.768921 656.511353,739.933594 657.001648,740.016663 
	C669.046631,742.058777 672.873352,737.512146 668.880249,725.911560 
	C668.682312,725.336670 668.483704,724.761963 668.151001,723.797729 
	C670.942078,723.797729 673.319946,723.797729 675.932373,723.797729 
	C675.932373,730.332642 675.932373,736.601624 675.932373,743.171509 
	C667.559875,745.126465 659.270081,746.208374 650.898804,743.403320 
	C642.811401,740.693420 637.473083,734.300598 636.984314,726.870361 
	C636.370300,717.536926 639.534912,710.237122 648.227539,705.962219 
	C655.718689,702.278198 663.502930,702.303162 671.587341,704.056885 
	C671.587341,706.319763 671.587341,708.213257 671.587341,710.206970 
	C658.601135,705.556335 649.332458,707.878540 645.383789,716.589478 
	C641.416565,725.341431 645.071655,734.158447 655.174805,739.469971 
z"/>
<path fill="#275E4A" opacity="1.000000" stroke="none" 
	d="
M400.074860,717.057495 
	C399.882324,712.471069 399.689758,708.374451 399.482697,703.968811 
	C403.348206,703.968811 407.990936,703.892395 412.630157,703.987244 
	C419.156189,704.120605 423.380646,706.931641 424.567200,711.756409 
	C425.665131,716.220764 423.148804,720.542053 417.611877,723.703125 
	C417.058350,724.019165 416.508667,724.341919 415.189972,725.106262 
	C420.868317,731.473816 426.313660,737.580078 431.828644,743.764465 
	C427.384430,744.644287 423.059540,744.397339 419.742737,739.766174 
	C416.001801,734.542725 412.018188,729.493042 407.770142,723.878845 
	C410.195709,722.843811 411.812866,722.185791 413.403381,721.468628 
	C417.267212,719.726501 419.125580,716.661987 417.962616,712.606567 
	C416.720490,708.274963 412.928162,707.673279 409.083344,708.143311 
	C408.169464,708.254944 406.694214,709.629150 406.689087,710.430359 
	C406.625610,720.407288 406.749207,730.386353 406.942108,740.362549 
	C406.962891,741.436279 407.720490,742.495789 408.237823,743.822266 
	C405.058350,743.822266 401.972321,743.822266 400.074860,743.822266 
	C400.074860,734.972351 400.074860,726.259888 400.074860,717.057495 
z"/>
<path fill="#28604C" opacity="1.000000" stroke="none" 
	d="
M164.592560,634.159668 
	C166.327209,637.738525 167.940842,640.955444 169.641815,644.346436 
	C166.646576,644.346436 163.461655,644.346436 161.249939,644.346436 
	C159.669144,639.832153 158.284668,635.553650 156.616211,631.389038 
	C156.284149,630.560120 154.925430,630.012634 153.927704,629.623657 
	C153.198975,629.339539 152.285965,629.522461 151.454910,629.507141 
	C139.921249,629.294067 136.641571,632.640503 136.923553,644.460327 
	C134.322632,644.460327 131.726456,644.460327 129.788147,644.460327 
	C134.961746,631.432739 140.149078,618.370544 145.336395,605.308350 
	C144.904449,605.049805 144.472488,604.791260 144.040527,604.532715 
	C146.778351,604.532715 149.516159,604.532715 152.526871,604.532715 
	C156.471130,614.196350 160.471344,623.997070 164.592560,634.159668 
M153.226044,622.393127 
	C151.793686,618.689636 150.361343,614.986145 148.929001,611.282654 
	C148.501816,611.353516 148.074646,611.424377 147.647476,611.495239 
	C145.957886,615.818542 144.268311,620.141785 142.391983,624.942932 
	C146.261490,624.942932 149.241440,625.019836 152.209000,624.862732 
	C152.670975,624.838318 153.076431,623.746338 153.226044,622.393127 
z"/>
<path fill="#28604C" opacity="1.000000" stroke="none" 
	d="
M348.741760,628.563843 
	C351.900635,620.425232 354.913513,612.641724 358.077545,604.467834 
	C364.908203,603.955505 364.897339,603.959900 367.786743,611.058044 
	C371.225067,619.504822 374.626129,627.967651 378.169952,636.370117 
	C379.246735,638.923096 380.742798,641.299255 382.252686,644.144287 
	C379.256439,644.144287 376.157196,644.144287 373.669006,644.144287 
	C372.250122,639.953491 370.994415,635.749634 369.339996,631.708923 
	C368.930542,630.708862 367.309387,629.956787 366.095917,629.603333 
	C364.870483,629.246460 363.383667,629.245483 362.144623,629.580872 
	C358.764832,630.495605 353.866669,626.826599 352.142120,632.832397 
	C351.084503,636.515564 349.961792,640.180054 348.700195,644.417664 
	C347.014069,644.417664 344.257385,644.417664 341.791595,644.417664 
	C344.041351,639.293152 346.318573,634.106079 348.741760,628.563843 
M356.445770,620.930969 
	C356.128387,622.151489 355.811005,623.372009 355.447174,624.771118 
	C359.224335,624.771118 362.626221,624.771118 366.760071,624.771118 
	C364.872040,619.862183 363.157990,615.405701 360.976837,609.734680 
	C359.194519,614.170288 357.976868,617.200562 356.445770,620.930969 
z"/>
<path fill="#275E4A" opacity="1.000000" stroke="none" 
	d="
M860.699829,603.694214 
	C864.901611,603.632874 868.683044,603.632874 872.861328,603.632874 
	C872.861328,606.572388 872.861328,608.587158 872.861328,610.084473 
	C869.264160,609.380127 865.763000,608.061401 862.348633,608.256897 
	C860.206421,608.379578 856.979431,610.440918 856.478455,612.251892 
	C856.012207,613.937195 858.010132,617.138611 859.812988,618.438538 
	C863.273315,620.933594 867.473877,622.370239 871.169434,624.577454 
	C878.603516,629.017578 878.864807,636.986450 871.831787,641.969299 
	C865.229675,646.646790 857.938110,646.211853 850.858215,643.793152 
	C849.223389,643.234680 848.604736,639.701965 846.895630,636.296997 
	C850.679260,637.962646 852.921082,639.301270 855.346497,639.920166 
	C857.864685,640.562683 860.792664,641.263855 863.114441,640.550293 
	C865.503052,639.816162 868.632324,637.694580 869.105591,635.642334 
	C869.539307,633.761353 867.328796,630.607239 865.438171,629.022400 
	C863.102112,627.064331 859.877014,626.180054 857.064819,624.774231 
	C850.651550,621.568237 848.259277,617.909363 848.956177,612.469116 
	C849.547668,607.852234 853.306213,604.959900 860.699829,603.694214 
z"/>
<path fill="#28604C" opacity="1.000000" stroke="none" 
	d="
M636.223206,633.506226 
	C643.397156,642.898865 651.978333,640.725098 661.178040,636.980408 
	C660.325928,642.140259 658.291931,645.378601 652.914062,645.129944 
	C648.792175,644.939392 644.511230,645.210876 640.593201,644.173462 
	C630.659912,641.543152 625.192993,633.010010 626.086243,622.623169 
	C627.011536,611.864319 633.856873,604.679871 644.415527,603.653931 
	C647.204346,603.382935 650.069702,603.525635 652.867920,603.802429 
	C659.315063,604.440186 659.322693,604.541565 658.470215,611.282410 
	C655.636841,610.484985 652.863892,609.363831 649.989807,608.956238 
	C639.133545,607.416748 631.174072,616.027771 633.526123,626.721130 
	C634.016907,628.952515 635.158630,631.040649 636.223206,633.506226 
z"/>
<path fill="#255D48" opacity="1.000000" stroke="none" 
	d="
M441.091553,744.049683 
	C439.558685,744.050598 438.402832,744.050598 437.154358,744.050598 
	C443.719696,731.361572 448.532318,718.276978 453.566193,704.258362 
	C459.726776,702.769836 460.228119,702.994751 463.172485,710.182190 
	C466.632568,718.628479 469.981689,727.120911 473.518890,735.534485 
	C474.658783,738.245850 476.241638,740.770874 477.768372,743.658203 
	C474.796204,743.658203 471.659546,743.658203 469.274048,743.658203 
	C467.617706,738.837524 467.334167,732.393066 464.131531,730.187683 
	C460.546356,727.718811 454.316986,729.089844 448.811646,728.764709 
	C447.263733,733.970764 445.848572,738.730408 444.267273,744.048706 
	C444.090057,744.048706 442.779327,744.048706 441.091553,744.049683 
M460.700531,724.555969 
	C461.067352,723.936829 461.886841,723.153137 461.730835,722.724060 
	C460.210083,718.541077 458.526306,714.417297 456.491669,709.272034 
	C454.329468,714.958923 452.616455,719.464478 450.664917,724.597290 
	C454.323273,724.597290 457.098236,724.597290 460.700531,724.555969 
z"/>
<path fill="#326754" opacity="1.000000" stroke="none" 
	d="
M902.736572,625.052734 
	C900.993042,625.049194 899.699280,625.049194 897.916748,625.049194 
	C897.916748,627.695435 897.916748,629.981750 897.916748,632.268066 
	C897.916748,634.402466 897.916748,636.536865 897.916748,640.051147 
	C904.386841,639.484497 910.265869,638.969604 915.933044,638.473267 
	C915.091125,644.658997 915.091125,644.659973 908.381470,644.661560 
	C902.260742,644.662964 896.140015,644.661865 890.546387,644.661865 
	C890.546387,631.066040 890.546387,617.985107 890.546387,604.540771 
	C896.893372,604.540771 903.916565,604.540771 911.259399,604.540771 
	C911.259399,606.536438 911.259399,608.402161 911.259399,609.897339 
	C906.838074,609.506775 902.664917,609.138123 898.178589,608.741821 
	C898.178589,612.858948 898.178589,616.273254 898.178589,620.196899 
	C901.342102,620.196899 904.408264,620.196899 907.734253,620.196899 
	C907.734253,622.294556 907.734253,623.889221 907.734253,625.731201 
	C906.228943,625.507751 904.707703,625.281982 902.736572,625.052734 
z"/>
<path fill="#2C624E" opacity="1.000000" stroke="none" 
	d="
M615.970947,638.904175 
	C615.137817,643.553162 612.725586,645.037537 608.265503,644.723999 
	C602.182312,644.296326 596.046448,644.617371 590.352539,644.617371 
	C590.352539,631.129944 590.352539,618.002136 590.352539,604.541626 
	C596.633789,604.541626 603.499329,604.541626 610.728943,604.541626 
	C610.728943,606.360291 610.728943,608.249390 610.728943,609.778748 
	C606.543518,609.459656 602.263733,609.133362 598.021606,608.809937 
	C596.784119,619.596802 596.784119,619.596802 607.323120,620.732239 
	C607.438904,621.410095 607.640320,622.174683 607.682007,622.947876 
	C607.725403,623.751953 607.614441,624.564392 607.568848,625.412170 
	C604.286804,625.257874 601.231628,625.114319 597.473145,624.937683 
	C597.473145,629.073242 597.240540,632.850220 597.616272,636.565735 
	C597.727600,637.666931 599.578674,639.479370 600.586792,639.449036 
	C604.971619,639.316895 609.336243,638.591125 613.716736,638.168579 
	C614.483704,638.094666 615.291077,638.440430 615.970947,638.904175 
z"/>
<path fill="#2C624E" opacity="1.000000" stroke="none" 
	d="
M488.439575,643.169678 
	C485.421814,644.016907 482.204254,644.517395 478.208069,645.138977 
	C484.955505,627.555359 473.502380,616.826843 465.763489,604.858276 
	C472.379639,603.606567 473.173309,603.915222 476.591949,609.347107 
	C478.967255,613.121155 481.281006,616.933960 484.142029,621.572083 
	C487.433655,615.629211 493.542786,612.054932 492.206238,604.381531 
	C494.907959,604.381531 497.665253,604.381531 501.553253,604.381531 
	C497.070862,611.123352 492.835449,617.146667 488.973297,623.400574 
	C485.123932,629.633789 485.713593,636.241882 488.439575,643.169678 
z"/>
<path fill="#2C624E" opacity="1.000000" stroke="none" 
	d="
M191.927109,620.019165 
	C192.620789,628.490479 190.195679,636.711548 193.988388,644.547607 
	C190.702606,644.547607 187.580536,644.547607 184.765793,644.547607 
	C184.765793,632.772217 184.765793,621.149170 184.765793,608.770752 
	C181.237701,609.102661 177.415451,609.462280 173.677032,609.814026 
	C174.018341,604.190247 174.018250,604.218140 180.023392,604.239319 
	C187.967270,604.267334 195.911316,604.246216 204.609634,604.246216 
	C204.044800,606.529785 203.591705,608.361694 203.233719,609.809021 
	C199.498001,609.429321 196.047821,609.078613 191.927139,608.659729 
	C191.927139,612.656311 191.927139,616.088989 191.927109,620.019165 
z"/>
<path fill="#326754" opacity="1.000000" stroke="none" 
	d="
M402.911346,620.024414 
	C402.911194,626.660889 402.911194,632.802185 402.911194,640.247253 
	C409.347778,639.551514 415.225189,638.916199 420.883820,638.304504 
	C420.447327,643.934631 419.704315,644.656555 413.184479,644.660950 
	C407.215576,644.664978 401.246643,644.661804 395.591614,644.661804 
	C395.591614,631.194763 395.591614,617.939209 395.591614,604.403564 
	C398.022095,604.403564 400.939117,604.403564 402.911499,604.403564 
	C402.911499,609.513672 402.911499,614.521423 402.911346,620.024414 
z"/>
<path fill="#326754" opacity="1.000000" stroke="none" 
	d="
M449.864899,644.661743 
	C444.277405,644.661621 439.167297,644.661621 434.586304,644.661621 
	C434.586304,631.064941 434.586304,618.000366 434.586304,604.551514 
	C436.888184,604.551514 439.906342,604.551514 442.611511,604.551514 
	C442.611511,616.014160 442.611511,627.506348 442.611511,640.174438 
	C448.430145,639.569397 454.333862,638.955505 459.975128,638.368896 
	C458.784485,644.661560 458.784485,644.661560 449.864899,644.661743 
z"/>
<path fill="#235C47" opacity="1.000000" stroke="none" 
	d="
M569.778381,744.055542 
	C567.898865,744.072205 566.424622,744.072205 565.174133,744.072205 
	C566.483521,730.594788 566.642029,717.443115 565.120544,704.135071 
	C567.514771,704.135071 570.630615,704.135071 573.188782,704.135071 
	C573.188782,717.311646 573.188782,730.358459 573.188782,743.848450 
	C572.668091,743.881409 571.425903,743.960205 569.778381,744.055542 
z"/>
<path fill="#205943" opacity="1.000000" stroke="none" 
	d="
M491.588257,730.961487 
	C491.447266,721.800110 491.306091,713.132629 491.161469,704.252686 
	C492.914642,704.252686 496.102875,704.252686 498.659851,704.252686 
	C498.659851,717.356934 498.659851,730.470764 498.659851,743.839355 
	C496.312408,743.839355 493.387970,743.839355 490.772095,743.839355 
	C491.045441,739.690796 491.316803,735.573059 491.588257,730.961487 
z"/>
<path fill="#245D48" opacity="1.000000" stroke="none" 
	d="
M828.925903,620.035583 
	C828.697754,614.635925 828.469604,609.729614 828.228088,604.535522 
	C830.552734,604.535522 833.433289,604.535522 835.795105,604.535522 
	C835.795105,617.848816 835.795105,630.964294 835.795105,644.366028 
	C833.432251,644.366028 830.554749,644.366028 828.925903,644.366028 
	C828.925903,636.260498 828.925903,628.394714 828.925903,620.035583 
z"/>
<path fill="#205943" opacity="1.000000" stroke="none" 
	d="
M501.070892,333.269897 
	C501.120331,333.245789 500.995941,333.228027 500.966187,333.242096 
	C500.936462,333.256165 501.021454,333.293976 501.070892,333.269897 
z"/>
<path fill="#F7F9F9" opacity="1.000000" stroke="none" 
	d="
M243.297607,630.318970 
	C239.908157,618.438660 245.418747,608.757935 255.668884,607.964661 
	C264.252716,607.300354 270.369598,612.304321 272.362915,621.621399 
	C274.071503,629.607666 270.118317,637.517517 263.203308,639.948486 
	C254.769073,642.913635 247.794998,639.645386 243.297607,630.318970 
z"/>
<path fill="#F7F9F9" opacity="1.000000" stroke="none" 
	d="
M697.760132,608.791992 
	C708.409241,613.005005 710.246887,627.223145 705.488464,634.350952 
	C701.720764,639.994690 694.640747,642.428040 688.438110,640.227234 
	C681.258545,637.679688 676.649963,630.299561 677.382629,622.522888 
	C678.420837,611.502686 686.318054,606.036621 697.760132,608.791992 
z"/>
<path fill="#FEFEFE" opacity="1.000000" stroke="none" 
	d="
M298.423645,615.711182 
	C298.443604,615.420776 298.654388,615.362122 298.865173,615.303467 
	C298.781586,615.516663 298.698029,615.729797 298.423645,615.711182 
z"/>
<path fill="#F7F9F9" opacity="1.000000" stroke="none" 
	d="
M936.838989,639.159485 
	C936.623901,629.020081 936.623901,619.277283 936.623901,609.191467 
	C939.970337,609.191467 943.138000,608.799072 946.172363,609.268494 
	C953.858887,610.457703 958.256165,616.612183 957.953186,625.161621 
	C957.662292,633.371643 952.379822,639.026306 943.963745,639.852783 
	C941.692139,640.075928 939.359009,639.672180 936.838989,639.159485 
z"/>
<path fill="#E7EEEC" opacity="1.000000" stroke="none" 
	d="
M153.367035,622.770569 
	C153.076431,623.746338 152.670975,624.838318 152.209000,624.862732 
	C149.241440,625.019836 146.261490,624.942932 142.391983,624.942932 
	C144.268311,620.141785 145.957886,615.818542 147.647476,611.495239 
	C148.074646,611.424377 148.501816,611.353516 148.929001,611.282654 
	C150.361343,614.986145 151.793686,618.689636 153.367035,622.770569 
z"/>
<path fill="#E7EEEC" opacity="1.000000" stroke="none" 
	d="
M356.602509,620.580933 
	C357.976868,617.200562 359.194519,614.170288 360.976837,609.734680 
	C363.157990,615.405701 364.872040,619.862183 366.760071,624.771118 
	C362.626221,624.771118 359.224335,624.771118 355.447174,624.771118 
	C355.811005,623.372009 356.128387,622.151489 356.602509,620.580933 
z"/>
<path fill="#E7EEEC" opacity="1.000000" stroke="none" 
	d="
M460.286865,724.576660 
	C457.098236,724.597290 454.323273,724.597290 450.664917,724.597290 
	C452.616455,719.464478 454.329468,714.958923 456.491669,709.272034 
	C458.526306,714.417297 460.210083,718.541077 461.730835,722.724060 
	C461.886841,723.153137 461.067352,723.936829 460.286865,724.576660 
z"/>
</svg>