<svg version="1.1" id="Layer_1" xmlns="http://www.w3.org/2000/svg" xmlns:xlink="http://www.w3.org/1999/xlink" x="0px" y="0px"
	 width="100%" viewBox="0 0 478 200" enable-background="new 0 0 478 200" xml:space="preserve">
<path fill="#FFFFFF" opacity="1.000000" stroke="none" 
	d="
M1.000000,65.000000 
	C1.000000,43.729916 1.000000,22.459833 1.000000,1.000000 
	C28.687273,1.000000 56.374977,1.000000 84.530411,1.384332 
	C84.429626,3.280564 83.956848,4.837055 83.276718,6.296949 
	C79.554977,14.285596 75.743813,22.232655 72.035088,30.227272 
	C63.876339,47.814457 55.760509,65.421555 47.573021,83.137672 
	C40.034931,79.887177 32.822975,76.777306 25.002817,73.405174 
	C25.002817,79.745552 24.877371,85.065948 25.103949,90.371315 
	C25.151823,91.492256 26.244061,93.109795 27.269037,93.563599 
	C36.906094,97.830399 46.633102,101.894028 56.515259,106.093292 
	C60.643532,97.155540 64.645683,88.417282 68.709625,79.707848 
	C76.851532,62.258961 84.999878,44.812950 93.210640,27.396427 
	C94.981598,23.639898 95.449753,20.331669 93.226791,16.303694 
	C90.584213,11.515367 89.027328,6.127870 87.000000,1.000000 
	C217.563232,1.000000 348.126465,1.000000 479.000000,1.000000 
	C479.000000,54.353828 479.000000,107.708252 478.647369,161.412323 
	C477.898926,161.246689 477.262085,160.781403 477.143341,160.208679 
	C475.271484,151.181564 470.152863,145.494278 460.942413,143.375458 
	C452.101318,141.341599 442.835938,144.424164 437.185150,151.206757 
	C430.578979,159.136108 430.033173,168.539413 431.251373,177.796692 
	C432.716431,188.929977 438.808990,197.113342 450.531677,199.821426 
	C452.031799,200.167938 453.511078,200.604919 455.000000,201.000000 
	C431.645782,201.000000 408.291534,201.000000 384.469788,200.618774 
	C386.291779,198.024582 388.581299,195.811615 389.781677,194.651398 
	C389.118469,189.047913 388.166748,184.330322 388.076782,179.596344 
	C387.846558,167.487000 388.000000,155.370361 388.000000,142.567627 
	C383.713715,143.463043 380.091888,144.757401 376.443054,144.838821 
	C372.350525,144.930145 371.907745,146.852020 371.951324,150.158691 
	C372.085175,160.315735 371.910400,170.476837 372.039764,180.634003 
	C372.098938,185.280396 369.138275,186.343002 365.491333,187.012665 
	C361.041473,187.829742 360.817322,184.308273 360.117737,181.617126 
	C359.670959,179.898453 360.002197,177.974945 360.001648,176.143280 
	C359.998383,165.197906 360.000000,154.252533 360.000000,142.573273 
	C354.300812,143.570938 349.252655,144.454636 344.000000,145.374130 
	C344.000000,156.503769 343.958740,167.312042 344.009430,178.119858 
	C344.090851,195.493149 346.200958,196.375061 358.800201,200.554718 
	C358.904541,200.589325 358.935028,200.846664 359.000000,201.000000 
	C346.979095,201.000000 334.958221,201.000000 322.483582,200.612549 
	C322.619812,199.818970 323.157349,199.198532 323.807678,199.039612 
	C331.117859,197.253067 336.735504,190.840622 336.999573,183.881912 
	C337.427460,172.605423 335.023560,168.816544 325.336304,165.749954 
	C322.090912,164.722580 318.668579,164.169662 315.545685,162.873413 
	C313.831543,162.161896 312.572601,160.353699 311.108429,159.039978 
	C312.597107,157.952820 314.062592,156.001114 315.579315,155.960419 
	C318.634827,155.878387 322.120209,156.107315 324.699829,157.529358 
	C329.024536,159.913330 331.249664,159.029221 332.778107,154.635162 
	C333.311584,153.101410 334.491486,151.746994 334.797943,150.196396 
	C334.990448,149.222397 334.431610,147.486984 333.656830,147.029282 
	C325.658752,142.304428 309.810150,140.708008 301.591919,146.222595 
	C295.622498,150.228180 293.354492,156.226028 294.007050,163.330276 
	C294.548553,169.225067 297.308533,173.594849 303.075195,175.513885 
	C306.290833,176.584015 309.706207,177.045303 312.945068,178.057724 
	C315.017120,178.705399 317.468262,179.411697 318.735321,180.935181 
	C319.644257,182.028061 319.521942,185.724670 318.729431,186.149094 
	C316.612152,187.282944 313.644928,188.153564 311.449829,187.549789 
	C306.485474,186.184341 301.782684,183.868027 296.630829,181.800964 
	C294.663544,185.759232 292.754883,189.599609 290.779205,193.574814 
	C291.906891,194.241837 292.551086,194.782349 293.293365,195.036667 
	C299.185059,197.055145 305.095398,199.019226 311.000000,201.000000 
	C298.979095,201.000000 286.958221,201.000000 274.481018,200.621857 
	C275.185913,199.534454 276.279449,198.664505 277.519440,198.142181 
	C285.247894,194.886673 288.994324,188.543350 288.778809,180.737961 
	C288.582642,173.634933 287.283600,169.161636 276.129700,165.584442 
	C272.731750,164.494690 269.224823,163.686142 265.940887,162.329773 
	C264.711914,161.822174 263.290558,160.155045 263.232086,158.954468 
	C263.185486,157.998001 264.918060,156.587555 266.153534,156.044296 
	C267.279480,155.549194 268.858887,155.698715 270.133850,156.002655 
	C273.741394,156.862686 278.027771,159.635803 280.672729,158.488312 
	C283.550140,157.239960 284.885712,152.433762 286.880341,149.170715 
	C286.954376,149.049606 286.889801,148.843750 286.888794,148.677383 
	C281.164612,143.962006 270.456268,141.351624 260.698273,143.110092 
	C251.740814,144.724304 245.215729,150.458252 245.024521,160.859421 
	C244.859390,169.843048 250.202911,175.430267 259.863831,177.060776 
	C263.024750,177.594238 266.241364,178.417038 269.135956,179.751038 
	C272.690887,181.389374 272.663422,185.240204 269.119659,186.841400 
	C267.352936,187.639648 264.921265,187.938095 263.083893,187.420532 
	C258.133301,186.026031 253.340439,184.071655 248.040970,182.181107 
	C246.156723,185.837433 244.165787,189.700775 242.094849,193.719376 
	C242.923920,194.227539 243.555481,194.798691 244.294601,195.038712 
	C250.518585,197.060135 256.762268,199.020950 263.000000,201.000000 
	C175.666656,201.000000 88.333305,201.000000 1.000000,201.000000 
	C1.000000,193.247223 1.000000,185.592300 1.468657,177.468689 
	C13.514070,177.000000 25.090824,177.000000 37.219193,177.000000 
	C37.219193,184.773590 37.219193,191.682495 37.219193,198.610107 
	C38.416302,198.790955 39.059441,198.972809 39.702679,198.973145 
	C73.348778,198.991272 106.994965,198.962967 140.640839,199.052841 
	C143.571045,199.060669 144.658096,197.783600 145.455734,195.218536 
	C148.944824,183.998215 152.662277,172.848831 156.138519,161.624680 
	C156.572235,160.224319 156.508469,158.336609 155.924103,157.004105 
	C146.809814,136.221069 137.547073,115.503242 128.370117,94.747597 
	C121.137497,78.389450 113.998306,61.989990 106.765907,45.631737 
	C104.924339,41.466469 102.886177,37.388115 100.456001,32.250027 
	C97.943573,36.820675 96.162270,40.533047 93.944931,43.963585 
	C91.686218,47.458149 91.987801,50.694870 93.626816,54.266022 
	C98.188286,64.204758 102.579491,74.221458 107.078972,84.188858 
	C118.055939,108.505341 129.085785,132.798096 139.974030,157.154175 
	C140.636627,158.636353 140.703400,160.711105 140.270782,162.298477 
	C138.662170,168.200897 136.564117,173.970718 134.981674,179.879196 
	C134.089844,183.209137 132.414474,184.112061 129.010483,184.088409 
	C105.026260,183.921768 81.040329,184.005615 57.054970,183.986938 
	C55.468014,183.985703 53.881210,183.798935 51.762558,183.664764 
	C51.762558,176.207260 51.762558,169.297943 51.762558,161.845215 
	C39.627010,161.845215 28.053970,161.845215 16.000000,161.845215 
	C16.000000,159.318298 16.000002,157.356781 16.000002,155.395248 
	C15.999992,128.578262 16.036951,101.761108 15.922093,74.944611 
	C15.913879,73.026703 15.324762,69.981544 14.094296,69.404678 
	C9.951697,67.462570 5.397032,66.399399 1.000000,65.000000 
M221.926956,194.809372 
	C222.917023,196.202454 223.817017,198.710526 224.912460,198.799011 
	C230.147354,199.221939 235.435257,198.988617 241.048218,198.988617 
	C239.277756,193.364319 237.662277,188.280975 236.077179,183.188171 
	C230.572784,165.502914 224.976913,147.844925 219.660202,130.103333 
	C218.482819,126.174438 216.774475,124.427780 212.486679,124.906754 
	C208.555206,125.345932 204.536011,125.000000 200.356842,125.000000 
	C192.360184,149.588425 184.427231,173.980957 176.290527,199.000000 
	C179.284622,199.000000 180.934006,198.998825 182.583374,199.000183 
	C194.006775,199.009689 194.064621,199.025330 197.109482,187.639191 
	C198.215439,183.503571 200.027420,181.135269 204.927231,181.897476 
	C209.133881,182.551849 214.449066,180.877762 217.470551,182.912048 
	C220.129761,184.702423 220.291824,190.201782 221.926956,194.809372 
M189.082901,100.629807 
	C187.659164,103.151619 186.235443,105.673431 184.862335,108.105568 
	C192.127884,115.865356 213.656952,119.439056 225.320755,111.277596 
	C232.463669,106.279518 236.112595,99.735703 234.869797,91.247826 
	C233.721161,83.402794 229.551315,77.445244 221.473770,74.753288 
	C215.365540,72.717621 209.393250,70.261787 203.407211,67.875694 
	C199.079849,66.150764 197.797836,62.084793 199.283279,58.577747 
	C200.564011,55.554028 203.703156,52.546032 206.756134,51.203415 
	C213.308548,48.321823 219.299179,51.552559 225.179947,54.535278 
	C226.502808,55.206230 229.417892,55.156277 230.053528,54.295792 
	C231.743515,52.008030 235.547302,48.961811 230.617432,46.328907 
	C219.438385,40.358482 207.918533,38.171150 196.227676,44.991653 
	C189.476089,48.930561 186.810043,55.340645 187.087448,62.806091 
	C187.338974,69.574844 190.293808,75.175575 196.863434,77.922546 
	C203.560760,80.722893 210.654968,82.660851 217.118729,85.890373 
	C219.706818,87.183472 222.298615,90.713287 222.778183,93.578262 
	C224.488159,103.793945 214.195435,107.966743 206.573318,106.567719 
	C200.722046,105.493736 195.253311,102.335716 189.082901,100.629807 
M275.510132,96.006554 
	C272.287659,92.320091 269.065186,88.633636 265.855011,84.961212 
	C272.636963,77.343605 279.213013,69.957245 286.297363,62.000000 
	C282.564087,62.000000 279.897552,62.101479 277.242065,61.973415 
	C274.164276,61.824982 272.016449,62.296658 269.856903,65.305435 
	C266.092194,70.550659 261.227844,75.006638 256.824402,79.793427 
	C256.216187,79.657722 255.607956,79.522018 254.999725,79.386314 
	C254.999725,67.370041 255.039261,55.353558 254.976105,43.337612 
	C254.956696,39.644428 254.609970,37.444801 249.237793,38.560844 
	C244.073013,39.633808 243.088531,41.019966 244.907974,45.535969 
	C245.370560,46.684124 244.998871,48.171146 244.998962,49.502468 
	C245.000443,69.474358 245.000000,89.446243 245.000000,109.418137 
	C245.000000,111.184555 245.000000,112.950966 245.000000,114.658035 
	C249.003098,114.658035 252.392319,114.658035 256.311279,114.658035 
	C256.311279,106.369102 256.311279,98.412193 256.311279,89.006653 
	C261.512970,95.553497 265.678802,101.013992 270.091248,106.267311 
	C272.674377,109.342720 275.179657,113.116203 278.589233,114.678474 
	C281.705841,116.106506 285.992340,114.981331 291.500000,114.981331 
	C285.713287,108.083046 280.864014,102.302307 275.510132,96.006554 
M409.999847,98.470490 
	C409.276001,88.458763 404.717438,85.029572 395.634216,82.994881 
	C392.793915,82.358643 389.681793,82.169624 387.226593,80.812515 
	C385.105164,79.639885 382.117767,76.785881 382.418091,75.239227 
	C382.871704,72.903214 385.481812,70.232338 387.835632,69.178894 
	C392.453918,67.111961 396.847870,69.635483 401.065582,71.575371 
	C404.018402,72.933502 405.036346,71.237198 406.086517,68.867844 
	C407.015289,66.772415 408.427643,65.071976 405.636597,63.212357 
	C397.139862,57.551170 381.855591,59.180584 374.910889,66.618614 
	C369.599243,72.307632 370.806641,84.377388 377.691223,88.052467 
	C382.274078,90.498856 387.706879,91.317123 392.689575,93.063042 
	C395.999420,94.222801 399.446747,95.736870 398.927338,100.121574 
	C398.420135,104.403122 395.642639,107.233749 391.322876,106.865601 
	C386.547974,106.458664 381.593750,105.663651 377.210876,103.847382 
	C372.799255,102.019203 372.411072,104.659523 370.852661,107.286140 
	C368.784424,110.772034 371.069000,111.808891 373.410309,112.681519 
	C376.735687,113.920906 380.140991,115.329170 383.617096,115.711700 
	C395.981995,117.072372 407.537750,114.849884 409.999847,98.470490 
M415.000000,166.740295 
	C415.013550,158.886047 418.510651,156.456024 427.123108,158.475250 
	C428.337769,154.825699 429.661530,151.187698 430.745453,147.479584 
	C431.548767,144.731567 430.707489,142.584946 427.441376,143.067688 
	C422.746704,143.761597 418.117523,144.898773 413.138428,145.912292 
	C412.284393,142.854416 409.910522,142.100433 406.057526,143.845779 
	C403.301025,145.094437 400.174255,145.525803 398.375610,146.009262 
	C398.375610,163.999329 398.375610,181.400726 398.375610,198.758423 
	C404.670441,198.758423 409.606384,198.758423 415.000000,198.758423 
	C415.000000,188.243027 415.000000,177.962952 415.000000,166.740295 
M322.000000,85.499992 
	C322.000000,92.324677 321.971313,99.149506 322.007874,105.973991 
	C322.046295,113.150238 326.882050,116.861237 333.892517,115.014999 
	C335.316132,114.640083 337.789001,113.560814 337.727020,113.060219 
	C337.482941,111.088699 336.828705,107.942513 335.587067,107.545532 
	C331.568390,106.260635 332.010040,103.398651 332.007568,100.503098 
	C331.992432,82.692375 332.045898,64.881386 331.955231,47.071114 
	C331.939941,44.068539 331.335114,41.068970 330.989990,37.953449 
	C327.185730,38.870373 324.104736,39.612980 322.000000,40.120274 
	C322.000000,55.366982 322.000000,69.933495 322.000000,85.499992 
M357.032867,104.858849 
	C357.021912,86.229179 357.069397,67.599144 356.949707,48.970173 
	C356.926331,45.330135 356.254486,41.694263 355.874573,37.986523 
	C351.799103,38.928089 348.415344,39.709854 345.622803,40.355030 
	C346.113373,45.354923 346.899750,49.870304 346.939117,54.392193 
	C347.089691,71.690018 347.035614,88.990036 346.981720,106.289001 
	C346.961548,112.767792 350.735840,115.201431 356.469849,115.819145 
	C358.444489,116.031868 360.997131,114.854752 362.504669,113.465179 
	C363.104919,112.911873 361.906921,109.863396 360.935089,108.325172 
	C360.190552,107.146751 358.515686,106.556145 357.032867,104.858849 
M297.000000,71.550690 
	C297.000000,85.942322 297.000000,100.333954 297.000000,114.659760 
	C301.007233,114.659760 304.392853,114.659760 307.732422,114.659760 
	C307.732422,96.284737 307.732422,78.251259 307.732422,60.093002 
	C304.016022,60.841854 300.586548,61.532898 297.000000,62.255589 
	C297.000000,65.278992 297.000000,67.924248 297.000000,71.550690 
M309.760010,50.702435 
	C309.839783,49.386745 310.376587,47.869335 309.903564,46.797653 
	C308.938812,44.611858 307.832214,41.538597 306.045715,40.901573 
	C303.713898,40.070099 300.264893,40.519936 298.033325,41.752426 
	C295.540924,43.128983 294.307373,45.844185 295.626801,49.355808 
	C298.141388,56.048527 303.353149,56.917255 309.760010,50.702435 
z"/>
<path fill="#C7C8CA" opacity="1.000000" stroke="none" 
	d="
M1.000000,65.468658 
	C5.397032,66.399399 9.951697,67.462570 14.094296,69.404678 
	C15.324762,69.981544 15.913879,73.026703 15.922093,74.944611 
	C16.036951,101.761108 15.999992,128.578262 16.000002,155.395248 
	C16.000002,157.356781 16.000000,159.318298 16.000000,161.845215 
	C28.053970,161.845215 39.627010,161.845215 51.762558,161.845215 
	C51.762558,169.297943 51.762558,176.207260 51.762558,183.664764 
	C53.881210,183.798935 55.468014,183.985703 57.054970,183.986938 
	C81.040329,184.005615 105.026260,183.921768 129.010483,184.088409 
	C132.414474,184.112061 134.089844,183.209137 134.981674,179.879196 
	C136.564117,173.970718 138.662170,168.200897 140.270782,162.298477 
	C140.703400,160.711105 140.636627,158.636353 139.974030,157.154175 
	C129.085785,132.798096 118.055939,108.505341 107.078972,84.188858 
	C102.579491,74.221458 98.188286,64.204758 93.626816,54.266022 
	C91.987801,50.694870 91.686218,47.458149 93.944931,43.963585 
	C96.162270,40.533047 97.943573,36.820675 100.456001,32.250027 
	C102.886177,37.388115 104.924339,41.466469 106.765907,45.631737 
	C113.998306,61.989990 121.137497,78.389450 128.370117,94.747597 
	C137.547073,115.503242 146.809814,136.221069 155.924103,157.004105 
	C156.508469,158.336609 156.572235,160.224319 156.138519,161.624680 
	C152.662277,172.848831 148.944824,183.998215 145.455734,195.218536 
	C144.658096,197.783600 143.571045,199.060669 140.640839,199.052841 
	C106.994965,198.962967 73.348778,198.991272 39.702679,198.973145 
	C39.059441,198.972809 38.416302,198.790955 37.219193,198.610107 
	C37.219193,191.682495 37.219193,184.773590 37.219193,177.000000 
	C25.090824,177.000000 13.514070,177.000000 1.468657,177.000000 
	C1.000000,139.979111 1.000000,102.958214 1.000000,65.468658 
z"/>
<path fill="#EB8A1C" opacity="1.000000" stroke="none" 
	d="
M86.666672,1.000000 
	C89.027328,6.127870 90.584213,11.515367 93.226791,16.303694 
	C95.449753,20.331669 94.981598,23.639898 93.210640,27.396427 
	C84.999878,44.812950 76.851532,62.258961 68.709625,79.707848 
	C64.645683,88.417282 60.643532,97.155540 56.515259,106.093292 
	C46.633102,101.894028 36.906094,97.830399 27.269037,93.563599 
	C26.244061,93.109795 25.151823,91.492256 25.103949,90.371315 
	C24.877371,85.065948 25.002817,79.745552 25.002817,73.405174 
	C32.822975,76.777306 40.034931,79.887177 47.573021,83.137672 
	C55.760509,65.421555 63.876339,47.814457 72.035088,30.227272 
	C75.743813,22.232655 79.554977,14.285596 83.276718,6.296949 
	C83.956848,4.837055 84.429626,3.280564 84.999069,1.384332 
	C85.444443,1.000000 85.888893,1.000000 86.666672,1.000000 
z"/>
<path fill="#EB8A1C" opacity="1.000000" stroke="none" 
	d="
M455.454102,201.000000 
	C453.511078,200.604919 452.031799,200.167938 450.531677,199.821426 
	C438.808990,197.113342 432.716431,188.929977 431.251373,177.796692 
	C430.033173,168.539413 430.578979,159.136108 437.185150,151.206757 
	C442.835938,144.424164 452.101318,141.341599 460.942413,143.375458 
	C470.152863,145.494278 475.271484,151.181564 477.143341,160.208679 
	C477.262085,160.781403 477.898926,161.246689 478.647369,161.880981 
	C479.000000,162.000000 479.000000,162.500000 478.665527,162.881012 
	C478.554047,164.508011 478.777008,165.754013 479.000000,167.000000 
	C479.000000,170.030594 479.000000,173.061188 478.531342,176.545898 
	C468.145935,177.000000 458.229218,177.000000 448.216949,177.000000 
	C449.040833,182.956406 451.490723,187.574432 457.445374,187.521484 
	C461.201447,187.488083 464.936951,185.136017 468.681488,183.823380 
	C469.809265,183.428024 471.710602,182.428680 471.943115,182.727768 
	C474.117096,185.524490 476.386200,188.391251 477.675934,191.618164 
	C477.957001,192.321457 474.533417,194.672745 472.648468,196.032837 
	C470.186249,197.809479 467.557251,199.355042 465.000000,201.000000 
	C461.969391,201.000000 458.938812,201.000000 455.454102,201.000000 
M461.941589,161.950668 
	C459.752594,156.350601 457.393066,154.557526 453.172760,156.129257 
	C449.422760,157.525848 448.520538,160.787857 449.293121,164.985519 
	C452.939911,164.985519 456.548584,165.092590 460.139435,164.887665 
	C460.792206,164.850433 461.372162,163.537476 461.941589,161.950668 
z"/>
<path fill="#EB8A1C" opacity="1.000000" stroke="none" 
	d="
M359.468628,201.000000 
	C358.935028,200.846664 358.904541,200.589325 358.800201,200.554718 
	C346.200958,196.375061 344.090851,195.493149 344.009430,178.119858 
	C343.958740,167.312042 344.000000,156.503769 344.000000,145.374130 
	C349.252655,144.454636 354.300812,143.570938 360.000000,142.573273 
	C360.000000,154.252533 359.998383,165.197906 360.001648,176.143280 
	C360.002197,177.974945 359.670959,179.898453 360.117737,181.617126 
	C360.817322,184.308273 361.041473,187.829742 365.491333,187.012665 
	C369.138275,186.343002 372.098938,185.280396 372.039764,180.634003 
	C371.910400,170.476837 372.085175,160.315735 371.951324,150.158691 
	C371.907745,146.852020 372.350525,144.930145 376.443054,144.838821 
	C380.091888,144.757401 383.713715,143.463043 388.000000,142.567627 
	C388.000000,155.370361 387.846558,167.487000 388.076782,179.596344 
	C388.166748,184.330322 389.118469,189.047913 389.781677,194.651398 
	C388.581299,195.811615 386.291779,198.024582 384.001129,200.618774 
	C375.979095,201.000000 367.958191,201.000000 359.468628,201.000000 
z"/>
<path fill="#EB8A1C" opacity="1.000000" stroke="none" 
	d="
M263.458069,201.000000 
	C256.762268,199.020950 250.518585,197.060135 244.294601,195.038712 
	C243.555481,194.798691 242.923920,194.227539 242.094849,193.719376 
	C244.165787,189.700775 246.156723,185.837433 248.040970,182.181107 
	C253.340439,184.071655 258.133301,186.026031 263.083893,187.420532 
	C264.921265,187.938095 267.352936,187.639648 269.119659,186.841400 
	C272.663422,185.240204 272.690887,181.389374 269.135956,179.751038 
	C266.241364,178.417038 263.024750,177.594238 259.863831,177.060776 
	C250.202911,175.430267 244.859390,169.843048 245.024521,160.859421 
	C245.215729,150.458252 251.740814,144.724304 260.698273,143.110092 
	C270.456268,141.351624 281.164612,143.962006 286.888794,148.677383 
	C286.889801,148.843750 286.954376,149.049606 286.880341,149.170715 
	C284.885712,152.433762 283.550140,157.239960 280.672729,158.488312 
	C278.027771,159.635803 273.741394,156.862686 270.133850,156.002655 
	C268.858887,155.698715 267.279480,155.549194 266.153534,156.044296 
	C264.918060,156.587555 263.185486,157.998001 263.232086,158.954468 
	C263.290558,160.155045 264.711914,161.822174 265.940887,162.329773 
	C269.224823,163.686142 272.731750,164.494690 276.129700,165.584442 
	C287.283600,169.161636 288.582642,173.634933 288.778809,180.737961 
	C288.994324,188.543350 285.247894,194.886673 277.519440,198.142181 
	C276.279449,198.664505 275.185913,199.534454 274.012329,200.621857 
	C270.638702,201.000000 267.277435,201.000000 263.458069,201.000000 
z"/>
<path fill="#EB8A1C" opacity="1.000000" stroke="none" 
	d="
M311.458069,201.000000 
	C305.095398,199.019226 299.185059,197.055145 293.293365,195.036667 
	C292.551086,194.782349 291.906891,194.241837 290.779205,193.574814 
	C292.754883,189.599609 294.663544,185.759232 296.630829,181.800964 
	C301.782684,183.868027 306.485474,186.184341 311.449829,187.549789 
	C313.644928,188.153564 316.612152,187.282944 318.729431,186.149094 
	C319.521942,185.724670 319.644257,182.028061 318.735321,180.935181 
	C317.468262,179.411697 315.017120,178.705399 312.945068,178.057724 
	C309.706207,177.045303 306.290833,176.584015 303.075195,175.513885 
	C297.308533,173.594849 294.548553,169.225067 294.007050,163.330276 
	C293.354492,156.226028 295.622498,150.228180 301.591919,146.222595 
	C309.810150,140.708008 325.658752,142.304428 333.656830,147.029282 
	C334.431610,147.486984 334.990448,149.222397 334.797943,150.196396 
	C334.491486,151.746994 333.311584,153.101410 332.778107,154.635162 
	C331.249664,159.029221 329.024536,159.913330 324.699829,157.529358 
	C322.120209,156.107315 318.634827,155.878387 315.579315,155.960419 
	C314.062592,156.001114 312.597107,157.952820 311.108429,159.039978 
	C312.572601,160.353699 313.831543,162.161896 315.545685,162.873413 
	C318.668579,164.169662 322.090912,164.722580 325.336304,165.749954 
	C335.023560,168.816544 337.427460,172.605423 336.999573,183.881912 
	C336.735504,190.840622 331.117859,197.253067 323.807678,199.039612 
	C323.157349,199.198532 322.619812,199.818970 322.014954,200.612549 
	C318.638702,201.000000 315.277435,201.000000 311.458069,201.000000 
z"/>
<path fill="#FFFFFF" opacity="1.000000" stroke="none" 
	d="
M465.474121,201.000000 
	C467.557251,199.355042 470.186249,197.809479 472.648468,196.032837 
	C474.533417,194.672745 477.957001,192.321457 477.675934,191.618164 
	C476.386200,188.391251 474.117096,185.524490 471.943115,182.727768 
	C471.710602,182.428680 469.809265,183.428024 468.681488,183.823380 
	C464.936951,185.136017 461.201447,187.488083 457.445374,187.521484 
	C451.490723,187.574432 449.040833,182.956406 448.216949,177.000000 
	C458.229218,177.000000 468.145935,177.000000 478.531342,177.000000 
	C479.000000,184.904373 479.000000,192.808746 479.000000,201.000000 
	C474.653564,201.000000 470.300903,201.000000 465.474121,201.000000 
z"/>
<path fill="#FFFFFF" opacity="1.000000" stroke="none" 
	d="
M479.000000,166.600021 
	C478.777008,165.754013 478.554047,164.508011 478.665527,163.131012 
	C479.000000,164.066681 479.000000,165.133362 479.000000,166.600021 
z"/>
<path fill="#EB8A1C" opacity="1.000000" stroke="none" 
	d="
M221.741821,194.436279 
	C220.291824,190.201782 220.129761,184.702423 217.470551,182.912048 
	C214.449066,180.877762 209.133881,182.551849 204.927231,181.897476 
	C200.027420,181.135269 198.215439,183.503571 197.109482,187.639191 
	C194.064621,199.025330 194.006775,199.009689 182.583374,199.000183 
	C180.934006,198.998825 179.284622,199.000000 176.290527,199.000000 
	C184.427231,173.980957 192.360184,149.588425 200.356842,125.000000 
	C204.536011,125.000000 208.555206,125.345932 212.486679,124.906754 
	C216.774475,124.427780 218.482819,126.174438 219.660202,130.103333 
	C224.976913,147.844925 230.572784,165.502914 236.077179,183.188171 
	C237.662277,188.280975 239.277756,193.364319 241.048218,198.988617 
	C235.435257,198.988617 230.147354,199.221939 224.912460,198.799011 
	C223.817017,198.710526 222.917023,196.202454 221.741821,194.436279 
M205.977188,167.999619 
	C208.445480,167.999619 210.913773,167.999619 213.533737,167.999619 
	C212.313614,163.106659 211.182205,158.440811 209.955719,153.800079 
	C209.786469,153.159714 209.146255,152.643799 208.724075,152.070251 
	C208.152039,152.658401 207.254761,153.155823 207.061279,153.849548 
	C205.893097,158.037842 204.844711,162.261810 203.894821,166.504868 
	C203.808701,166.889572 204.703217,167.493805 205.977188,167.999619 
z"/>
<path fill="#58585A" opacity="1.000000" stroke="none" 
	d="
M189.348663,100.367165 
	C195.253311,102.335716 200.722046,105.493736 206.573318,106.567719 
	C214.195435,107.966743 224.488159,103.793945 222.778183,93.578262 
	C222.298615,90.713287 219.706818,87.183472 217.118729,85.890373 
	C210.654968,82.660851 203.560760,80.722893 196.863434,77.922546 
	C190.293808,75.175575 187.338974,69.574844 187.087448,62.806091 
	C186.810043,55.340645 189.476089,48.930561 196.227676,44.991653 
	C207.918533,38.171150 219.438385,40.358482 230.617432,46.328907 
	C235.547302,48.961811 231.743515,52.008030 230.053528,54.295792 
	C229.417892,55.156277 226.502808,55.206230 225.179947,54.535278 
	C219.299179,51.552559 213.308548,48.321823 206.756134,51.203415 
	C203.703156,52.546032 200.564011,55.554028 199.283279,58.577747 
	C197.797836,62.084793 199.079849,66.150764 203.407211,67.875694 
	C209.393250,70.261787 215.365540,72.717621 221.473770,74.753288 
	C229.551315,77.445244 233.721161,83.402794 234.869797,91.247826 
	C236.112595,99.735703 232.463669,106.279518 225.320755,111.277596 
	C213.656952,119.439056 192.127884,115.865356 184.862335,108.105568 
	C186.235443,105.673431 187.659164,103.151619 189.348663,100.367165 
z"/>
<path fill="#58585A" opacity="1.000000" stroke="none" 
	d="
M275.762451,96.264061 
	C280.864014,102.302307 285.713287,108.083046 291.500000,114.981331 
	C285.992340,114.981331 281.705841,116.106506 278.589233,114.678474 
	C275.179657,113.116203 272.674377,109.342720 270.091248,106.267311 
	C265.678802,101.013992 261.512970,95.553497 256.311279,89.006653 
	C256.311279,98.412193 256.311279,106.369102 256.311279,114.658035 
	C252.392319,114.658035 249.003098,114.658035 245.000000,114.658035 
	C245.000000,112.950966 245.000000,111.184555 245.000000,109.418137 
	C245.000000,89.446243 245.000443,69.474358 244.998962,49.502468 
	C244.998871,48.171146 245.370560,46.684124 244.907974,45.535969 
	C243.088531,41.019966 244.073013,39.633808 249.237793,38.560844 
	C254.609970,37.444801 254.956696,39.644428 254.976105,43.337612 
	C255.039261,55.353558 254.999725,67.370041 254.999725,79.386314 
	C255.607956,79.522018 256.216187,79.657722 256.824402,79.793427 
	C261.227844,75.006638 266.092194,70.550659 269.856903,65.305435 
	C272.016449,62.296658 274.164276,61.824982 277.242065,61.973415 
	C279.897552,62.101479 282.564087,62.000000 286.297363,62.000000 
	C279.213013,69.957245 272.636963,77.343605 265.855011,84.961212 
	C269.065186,88.633636 272.287659,92.320091 275.762451,96.264061 
z"/>
<path fill="#58585A" opacity="1.000000" stroke="none" 
	d="
M409.999542,98.897034 
	C407.537750,114.849884 395.981995,117.072372 383.617096,115.711700 
	C380.140991,115.329170 376.735687,113.920906 373.410309,112.681519 
	C371.069000,111.808891 368.784424,110.772034 370.852661,107.286140 
	C372.411072,104.659523 372.799255,102.019203 377.210876,103.847382 
	C381.593750,105.663651 386.547974,106.458664 391.322876,106.865601 
	C395.642639,107.233749 398.420135,104.403122 398.927338,100.121574 
	C399.446747,95.736870 395.999420,94.222801 392.689575,93.063042 
	C387.706879,91.317123 382.274078,90.498856 377.691223,88.052467 
	C370.806641,84.377388 369.599243,72.307632 374.910889,66.618614 
	C381.855591,59.180584 397.139862,57.551170 405.636597,63.212357 
	C408.427643,65.071976 407.015289,66.772415 406.086517,68.867844 
	C405.036346,71.237198 404.018402,72.933502 401.065582,71.575371 
	C396.847870,69.635483 392.453918,67.111961 387.835632,69.178894 
	C385.481812,70.232338 382.871704,72.903214 382.418091,75.239227 
	C382.117767,76.785881 385.105164,79.639885 387.226593,80.812515 
	C389.681793,82.169624 392.793915,82.358643 395.634216,82.994881 
	C404.717438,85.029572 409.276001,88.458763 409.999542,98.897034 
z"/>
<path fill="#EB8A1C" opacity="1.000000" stroke="none" 
	d="
M415.000000,167.211594 
	C415.000000,177.962952 415.000000,188.243027 415.000000,198.758423 
	C409.606384,198.758423 404.670441,198.758423 398.375610,198.758423 
	C398.375610,181.400726 398.375610,163.999329 398.375610,146.009262 
	C400.174255,145.525803 403.301025,145.094437 406.057526,143.845779 
	C409.910522,142.100433 412.284393,142.854416 413.138428,145.912292 
	C418.117523,144.898773 422.746704,143.761597 427.441376,143.067688 
	C430.707489,142.584946 431.548767,144.731567 430.745453,147.479584 
	C429.661530,151.187698 428.337769,154.825699 427.123108,158.475250 
	C418.510651,156.456024 415.013550,158.886047 415.000000,167.211594 
z"/>
<path fill="#58585A" opacity="1.000000" stroke="none" 
	d="
M322.000000,85.000000 
	C322.000000,69.933495 322.000000,55.366982 322.000000,40.120274 
	C324.104736,39.612980 327.185730,38.870373 330.989990,37.953449 
	C331.335114,41.068970 331.939941,44.068539 331.955231,47.071114 
	C332.045898,64.881386 331.992432,82.692375 332.007568,100.503098 
	C332.010040,103.398651 331.568390,106.260635 335.587067,107.545532 
	C336.828705,107.942513 337.482941,111.088699 337.727020,113.060219 
	C337.789001,113.560814 335.316132,114.640083 333.892517,115.014999 
	C326.882050,116.861237 322.046295,113.150238 322.007874,105.973991 
	C321.971313,99.149506 322.000000,92.324677 322.000000,85.000000 
z"/>
<path fill="#58585A" opacity="1.000000" stroke="none" 
	d="
M357.143738,105.281479 
	C358.515686,106.556145 360.190552,107.146751 360.935089,108.325172 
	C361.906921,109.863396 363.104919,112.911873 362.504669,113.465179 
	C360.997131,114.854752 358.444489,116.031868 356.469849,115.819145 
	C350.735840,115.201431 346.961548,112.767792 346.981720,106.289001 
	C347.035614,88.990036 347.089691,71.690018 346.939117,54.392193 
	C346.899750,49.870304 346.113373,45.354923 345.622803,40.355030 
	C348.415344,39.709854 351.799103,38.928089 355.874573,37.986523 
	C356.254486,41.694263 356.926331,45.330135 356.949707,48.970173 
	C357.069397,67.599144 357.021912,86.229179 357.143738,105.281479 
z"/>
<path fill="#58585A" opacity="1.000000" stroke="none" 
	d="
M297.000000,71.060097 
	C297.000000,67.924248 297.000000,65.278992 297.000000,62.255589 
	C300.586548,61.532898 304.016022,60.841854 307.732422,60.093002 
	C307.732422,78.251259 307.732422,96.284737 307.732422,114.659760 
	C304.392853,114.659760 301.007233,114.659760 297.000000,114.659760 
	C297.000000,100.333954 297.000000,85.942322 297.000000,71.060097 
z"/>
<path fill="#58585A" opacity="1.000000" stroke="none" 
	d="
M309.467163,50.984627 
	C303.353149,56.917255 298.141388,56.048527 295.626801,49.355808 
	C294.307373,45.844185 295.540924,43.128983 298.033325,41.752426 
	C300.264893,40.519936 303.713898,40.070099 306.045715,40.901573 
	C307.832214,41.538597 308.938812,44.611858 309.903564,46.797653 
	C310.376587,47.869335 309.839783,49.386745 309.467163,50.984627 
z"/>
<path fill="#FFFFFF" opacity="1.000000" stroke="none" 
	d="
M461.963654,162.382065 
	C461.372162,163.537476 460.792206,164.850433 460.139435,164.887665 
	C456.548584,165.092590 452.939911,164.985519 449.293121,164.985519 
	C448.520538,160.787857 449.422760,157.525848 453.172760,156.129257 
	C457.393066,154.557526 459.752594,156.350601 461.963654,162.382065 
z"/>
<path fill="#FFFFFF" opacity="1.000000" stroke="none" 
	d="
M205.559753,167.997849 
	C204.703217,167.493805 203.808701,166.889572 203.894821,166.504868 
	C204.844711,162.261810 205.893097,158.037842 207.061279,153.849548 
	C207.254761,153.155823 208.152039,152.658401 208.724075,152.070251 
	C209.146255,152.643799 209.786469,153.159714 209.955719,153.800079 
	C211.182205,158.440811 212.313614,163.106659 213.533737,167.999619 
	C210.913773,167.999619 208.445480,167.999619 205.559753,167.997849 
z"/>
</svg>